<svg width="20" height="20" viewBox="0 0 20 20" fill="none" xmlns="http://www.w3.org/2000/svg">
<path d="M12.0898 4.89795C11.7867 4.89795 11.541 4.65229 11.541 4.34912C11.541 4.04595 11.7867 3.80029 12.0898 3.80029C12.393 3.80029 12.6387 4.04595 12.6387 4.34912C12.6382 4.65207 12.3928 4.89751 12.0898 4.89795Z" fill="#FC5B31"/>
<path d="M7.88867 4.89795C7.5855 4.89795 7.33984 4.65229 7.33984 4.34912C7.33984 4.04595 7.5855 3.80029 7.88867 3.80029C8.19184 3.80029 8.4375 4.04595 8.4375 4.34912C8.43706 4.65207 8.19162 4.89751 7.88867 4.89795Z" fill="#FC5B31"/>
<path d="M3.87828 14.4093C2.99028 14.4093 2.26758 13.6866 2.26758 12.7983V8.4391C2.26758 6.96517 3.46666 5.76587 4.94081 5.76587C5.2431 5.76587 5.48898 6.01174 5.48898 6.31404V12.7981C5.48898 13.6866 4.76628 14.4093 3.87828 14.4093ZM4.61085 6.67451C3.77817 6.82994 3.1457 7.56185 3.1457 8.4391V12.7981C3.1457 13.2023 3.47434 13.5309 3.87828 13.5309C4.28222 13.5309 4.61085 13.2023 4.61085 12.7981V6.67451Z" fill="#FC5B31"/>
<path d="M16.1 14.4093C15.2117 14.4093 14.4893 13.6866 14.4893 12.7984V6.31428C14.4893 6.01199 14.7351 5.76611 15.0374 5.76611C16.5114 5.76611 17.7107 6.96519 17.7107 8.43935V12.7984C17.7107 13.6866 16.9882 14.4093 16.1 14.4093ZM15.3674 6.67453V12.7984C15.3674 13.2025 15.696 13.5312 16.1 13.5312C16.5039 13.5312 16.8325 13.2025 16.8325 12.7984V8.43913C16.8325 7.5621 16.2001 6.82996 15.3674 6.67453Z" fill="#FC5B31"/>
<path d="M11.9687 19.8677C11.0805 19.8677 10.358 19.1452 10.358 18.257V15.6037H9.62103V18.257C9.62103 19.1452 8.89833 19.8677 8.01033 19.8677C7.12233 19.8677 6.39963 19.1452 6.39963 18.257V15.5164C5.35664 15.2314 4.61133 14.2822 4.61133 13.1661V6.20518C4.61133 5.96281 4.80803 5.76611 5.05039 5.76611H14.9289C15.1712 5.76611 15.3679 5.96281 15.3679 6.20518V13.1661C15.3679 14.2822 14.6224 15.2314 13.5796 15.5164V18.257C13.5794 19.1452 12.8569 19.8677 11.9687 19.8677ZM9.18175 14.7256H10.7968C11.0392 14.7256 11.2359 14.9223 11.2359 15.1647V18.257C11.2359 18.6609 11.5645 18.9896 11.9685 18.9896C12.3724 18.9896 12.7011 18.6609 12.7011 18.257V15.1533C12.7011 14.9285 12.8708 14.7399 13.0945 14.7166C13.8898 14.6334 14.4894 13.9669 14.4894 13.1661V6.64424H5.48923V13.1661C5.48923 13.9669 6.08899 14.6336 6.88414 14.7166C7.10784 14.7399 7.27753 14.9285 7.27753 15.1533V18.257C7.27753 18.6609 7.60617 18.9896 8.01011 18.9896C8.41405 18.9896 8.74269 18.6609 8.74269 18.257V15.1647C8.74269 14.9223 8.93939 14.7256 9.18175 14.7256Z" fill="#FC5B31"/>
<path d="M12.3224 2.57794C12.2482 2.57794 12.1731 2.55906 12.1044 2.51954C11.8941 2.3988 11.8214 2.13054 11.9421 1.92022L12.8543 0.330599C12.9748 0.120288 13.2433 0.0478428 13.4534 0.168365C13.6637 0.289108 13.7364 0.557375 13.6156 0.767686L12.7035 2.35731C12.6225 2.49869 12.4745 2.57794 12.3224 2.57794Z" fill="#FC5B31"/>
<path d="M7.65651 2.57786C7.50438 2.57786 7.35641 2.49861 7.27519 2.35723L6.36304 0.767386C6.24229 0.557075 6.31496 0.288808 6.52549 0.168066C6.7358 0.0475434 7.00429 0.120208 7.12481 0.330519L8.03696 1.92036C8.1577 2.13068 8.08504 2.39894 7.87451 2.51968C7.80558 2.55898 7.7305 2.57786 7.65651 2.57786Z" fill="#FC5B31"/>
<path d="M14.928 6.6442H5.04954C4.92858 6.6442 4.81289 6.59415 4.7299 6.50634C4.64692 6.4183 4.60389 6.29998 4.61114 6.17902C4.78062 3.33982 7.14277 1.11597 9.98878 1.11597C12.8348 1.11597 15.1969 3.33982 15.3662 6.1788C15.3734 6.29954 15.3306 6.41787 15.2476 6.50612C15.1647 6.59415 15.049 6.6442 14.928 6.6442ZM5.53976 5.76608H14.4378C14.0841 3.61687 12.2131 1.99409 9.98878 1.99409C7.76449 1.99409 5.89342 3.61687 5.53976 5.76608Z" fill="#FC5B31"/>
</svg>
