<svg width="20" height="20" viewBox="0 0 20 20" fill="none" xmlns="http://www.w3.org/2000/svg">
<g clip-path="url(#clip0_219_2555)">
<path d="M9.72721 5.2916C9.7585 5.29256 9.78999 5.29301 9.82128 5.29301H9.82141C10.932 5.29301 12.1372 4.66686 12.8913 3.69804C13.6696 2.6994 14.0233 1.50145 13.8616 0.411257C13.8246 0.162273 13.6015 -0.0168026 13.3512 0.00125277C12.2566 0.0779077 11.0175 0.74345 10.2678 1.65721C9.4522 2.65051 9.0785 3.86156 9.26825 4.89676C9.30918 5.12004 9.50033 5.28447 9.72721 5.2916ZM11.0129 2.26877C11.4778 1.70205 12.2304 1.2339 12.9356 1.04615C12.9021 2.00508 12.3813 2.7846 12.131 3.10587C11.6442 3.73119 10.8957 4.18116 10.1816 4.29881C10.1958 3.34522 10.8042 2.52296 11.0129 2.26877Z" fill="#FC5B31"/>
<path d="M18.159 14.5427C18.108 14.42 18.0084 14.3238 17.884 14.2769C15.8994 13.5286 15.2779 11.3778 15.8403 9.81375C16.1184 9.03801 16.6653 8.40755 17.4221 7.99054C17.5467 7.92192 17.6346 7.80177 17.6622 7.66227C17.6899 7.52278 17.6545 7.37814 17.5657 7.26717C16.5598 6.01191 15.1301 5.26252 13.741 5.26252C12.7684 5.26252 12.1101 5.51221 11.5292 5.73247C11.1013 5.89471 10.7319 6.03485 10.3083 6.03485C9.83978 6.03485 9.41249 5.88179 8.9176 5.70452C8.33913 5.4973 7.68354 5.26245 6.86418 5.26245C5.28501 5.26245 3.68457 6.21746 2.68684 7.7557C2.31763 8.32788 2.05876 9.03467 1.91708 9.85731C1.51851 12.1976 2.19382 14.9862 3.72377 17.3173C4.59139 18.6364 5.68473 19.9868 7.21449 19.9998L7.24572 19.9999C7.88292 19.9999 8.31163 19.8084 8.72619 19.6233C9.16428 19.4276 9.57807 19.2428 10.3276 19.239L10.3523 19.239C11.0877 19.239 11.4883 19.4228 11.9125 19.6174C12.319 19.8039 12.7392 19.9967 13.3748 19.9967L13.4039 19.9965C14.9031 19.9838 16.0384 18.5633 16.9523 17.1742C17.514 16.3137 17.7279 15.874 18.1538 14.9251C18.2081 14.8038 18.21 14.6654 18.159 14.5427ZM16.1461 16.6459C15.4182 17.7525 14.4477 19.0238 13.3951 19.0328L13.3747 19.0329C12.9497 19.0329 12.6693 18.9042 12.3143 18.7414C11.8616 18.5337 11.2981 18.2752 10.3521 18.2752L10.3224 18.2752C9.37021 18.28 8.79507 18.5369 8.33302 18.7433C7.96671 18.907 7.67738 19.0362 7.24565 19.0362L7.22329 19.0361C6.13984 19.0268 5.21427 17.8296 4.52919 16.7881C3.12974 14.6559 2.5084 12.1255 2.86701 10.0201C2.98639 9.32683 3.19823 8.74084 3.49605 8.27924C4.31741 7.01292 5.60801 6.22626 6.86418 6.22626C7.5161 6.22626 8.039 6.41356 8.59261 6.61185C9.12347 6.80204 9.6724 6.99866 10.3083 6.99866C10.9085 6.99866 11.3978 6.81309 11.871 6.63363C12.399 6.43335 12.9451 6.22626 13.741 6.22626C14.6881 6.22626 15.6717 6.68227 16.4532 7.46649C15.7463 7.98181 15.2259 8.67164 14.9333 9.48798C14.1705 11.6094 15.1252 13.9615 17.0752 14.9699C16.7853 15.5985 16.5794 15.9821 16.1461 16.6459Z" fill="#FC5B31"/>
</g>
<defs>
<clipPath id="clip0_219_2555">
<rect width="20" height="20" fill="white"/>
</clipPath>
</defs>
</svg>
