<svg width="20" height="20" viewBox="0 0 20 20" fill="none" xmlns="http://www.w3.org/2000/svg">
<g clip-path="url(#clip0_219_2561)">
<path d="M6.65158 8.47516C6.65158 8.89371 6.67763 9.3889 6.65158 9.79762C6.64496 9.96533 6.61978 10.1312 6.57671 10.2908C6.50422 10.5714 6.35429 10.8134 6.15191 10.9766C5.95242 11.1287 5.71849 11.2015 5.48296 11.1849C5.32554 11.1743 5.17004 11.138 5.02072 11.0769C4.93584 11.0394 4.85624 10.9864 4.78472 10.9197C4.07671 10.2515 3.34266 9.53038 2.60373 8.80922C1.92177 8.13521 1.23492 7.46711 0.468315 6.73415L0.42437 6.6811C0.262669 6.51042 0.138053 6.29453 0.0614144 6.05229C-0.00703314 5.82225 -0.0194592 5.57335 0.0256071 5.33506C0.063896 5.13562 0.136544 4.94815 0.238823 4.78485C0.33287 4.63748 0.442281 4.50539 0.564344 4.39185C1.89898 3.17353 3.2271 1.78623 4.54058 0.514856C4.84036 0.205794 5.21625 0.024822 5.60992 1.99664e-05C5.75978 -0.00100189 5.90804 0.0372111 6.04449 0.112026L6.08192 0.133642C6.20883 0.21329 6.31989 0.325256 6.40744 0.4618C6.60849 0.794372 6.70902 1.20011 6.69227 1.61134V2.71175H10.789C11.0017 2.7143 11.2051 2.81733 11.3557 2.99877C11.5063 3.18021 11.5921 3.42564 11.5946 3.68247V7.50444C11.5921 7.76128 11.5063 8.0067 11.3557 8.18814C11.2051 8.36958 11.0017 8.47261 10.789 8.47516H6.65158ZM13.3459 11.5249C13.3459 11.1063 13.3199 10.6111 13.3459 10.2024C13.3525 10.0347 13.3777 9.86884 13.4208 9.7092C13.4935 9.42883 13.6434 9.18688 13.8456 9.0234L13.8798 8.99786C14.0723 8.86421 14.2929 8.80137 14.5145 8.81708C14.6716 8.82577 14.8268 8.86219 14.9752 8.92515L15.0956 8.98607L15.1998 9.07057C15.9078 9.73867 16.6467 10.4638 17.3824 11.1869C18.066 11.8609 18.761 12.5369 19.5308 13.2659L19.5748 13.3111C19.7376 13.4849 19.8618 13.7051 19.9361 13.9517C20.0049 14.1809 20.0179 14.4291 19.9735 14.6669L19.9589 14.7279C19.9175 14.9044 19.8496 15.0702 19.7587 15.2172C19.6646 15.3645 19.5552 15.4966 19.4332 15.6102C18.0953 16.8245 16.7639 18.2118 15.4618 19.4832C15.1639 19.7937 14.7888 19.9756 14.3957 20C14.2461 20.0007 14.098 19.9632 13.9612 19.89L13.9221 19.8664C13.7956 19.7869 13.6846 19.6757 13.5966 19.5402C13.3969 19.2062 13.2976 18.8 13.315 18.3887V17.2922H9.20855C8.99413 17.2896 8.78922 17.185 8.63836 17.001C8.4875 16.817 8.40288 16.5686 8.40289 16.3097V12.4976C8.40288 12.2387 8.4875 11.9903 8.63836 11.8063C8.78922 11.6223 8.99413 11.5176 9.20855 11.5151L13.3459 11.5249ZM5.76291 9.67579V7.93478C5.76291 7.79199 5.8099 7.65504 5.89353 7.55406C5.97717 7.45309 6.0906 7.39637 6.20888 7.39637H10.6994V3.79055H6.23817C6.17968 3.78978 6.12189 3.77508 6.06812 3.74728C6.01435 3.71948 5.96565 3.67914 5.92482 3.62857C5.88399 3.578 5.85183 3.51819 5.83019 3.45258C5.80856 3.38697 5.79786 3.31685 5.79872 3.24624V1.61134C5.80945 1.44304 5.77827 1.2747 5.7092 1.12794L5.67665 1.09454C5.65507 1.08341 5.63175 1.07805 5.60829 1.07882C5.41651 1.10706 5.23677 1.20664 5.09397 1.36375L1.11773 5.24074C1.05633 5.297 1.00157 5.36311 0.954969 5.43724C0.927892 5.47853 0.907966 5.52598 0.896375 5.57675C0.886513 5.61649 0.886513 5.65885 0.896375 5.69859C0.924079 5.77503 0.966485 5.84239 1.02007 5.89509C1.71343 6.55337 2.4426 7.2706 3.16688 7.97998C3.8635 8.64612 4.55686 9.33584 5.32834 10.0649C5.38875 10.0898 5.45176 10.1043 5.51552 10.1081C5.5655 10.1151 5.61606 10.1035 5.66037 10.0747C5.69499 10.0437 5.71971 9.99932 5.73036 9.94893C5.74765 9.88539 5.75751 9.81925 5.75966 9.75243V9.68169L5.76291 9.67579Z" fill="#FC5B31"/>
</g>
<defs>
<clipPath id="clip0_219_2561">
<rect width="20" height="20" fill="white"/>
</clipPath>
</defs>
</svg>
