<svg width="48" height="48" viewBox="0 0 48 48" fill="none" xmlns="http://www.w3.org/2000/svg">
<path fill-rule="evenodd" clip-rule="evenodd" d="M23.9748 42.3555C25.0907 42.3555 25.9945 43.0547 25.9945 43.918C25.9945 44.7812 25.0907 45.4805 23.9748 45.4805C22.8588 45.4805 21.955 44.7812 21.955 43.918C21.955 43.0547 22.8588 42.3555 23.9748 42.3555ZM10.927 26.3594C10.8967 26.3125 10.8614 26.2695 10.821 26.2266C10.6442 26.0039 10.4675 25.7812 10.2908 25.5273C10.114 25.2539 9.9373 24.9961 9.78077 24.7578C9.62424 24.5 9.47275 24.2266 9.34147 23.9531C9.23038 23.7148 9.0991 23.4414 8.96781 23.1172C8.77088 22.6562 8.21544 22.3672 7.61961 22.3672H3.79718C3.6659 22.3672 3.53461 22.3516 3.44372 22.3164C3.35788 22.2812 3.24679 22.2305 3.18115 22.1641C3.09531 22.0938 3.02462 22.0273 2.98422 21.9609C2.93878 21.8945 2.91858 21.7891 2.91858 21.6875V17.9609C2.91858 17.8594 2.93878 17.7734 2.96402 17.7031C3.00947 17.6328 3.07511 17.5508 3.1862 17.4648C3.27204 17.3984 3.36293 17.3438 3.44877 17.3281C3.53966 17.293 3.67094 17.2773 3.80223 17.2773H7.31159C8.01851 17.2773 8.59415 16.8828 8.72544 16.3711C8.81128 16.082 8.90217 15.8086 8.98801 15.5664C9.0991 15.293 9.21018 15.0352 9.34147 14.7617C9.47275 14.5039 9.60404 14.2305 9.78077 13.9766C9.9373 13.7031 10.114 13.4648 10.2655 13.2266C10.5735 12.7812 10.4624 12.2695 10.0231 11.9297L7.28635 9.79297C7.26615 9.77734 7.26615 9.77734 7.2409 9.77734C7.15506 9.71094 7.08437 9.64062 7.04397 9.57422C6.99853 9.50781 6.99853 9.4375 6.99853 9.33594C6.99853 9.23438 7.01873 9.14844 7.06417 9.07812C7.10962 8.99219 7.17526 8.92578 7.28635 8.83984L10.6644 6.24219C10.7755 6.15625 10.8614 6.10547 10.9724 6.07031C11.0633 6.03516 11.1694 6.01953 11.3057 6.01953C11.437 6.01953 11.5481 6.03516 11.639 6.07031C11.7299 6.10547 11.8359 6.15625 11.9268 6.22266H11.947L14.4414 8.15234C14.9262 8.52734 15.6987 8.57812 16.2542 8.27344C16.542 8.13672 16.8298 8 17.158 7.86328C17.5115 7.72656 17.8447 7.58984 18.1527 7.46875C18.486 7.34766 18.8395 7.23047 19.1929 7.12891C19.5009 7.04297 19.8544 6.94141 20.2735 6.83984C20.8693 6.6875 21.243 6.25781 21.243 5.79688V2.83594C21.243 2.73438 21.2632 2.63281 21.3086 2.5625C21.3541 2.49609 21.4197 2.42578 21.4854 2.35938C21.5763 2.29297 21.6621 2.23828 21.7479 2.22266C21.8338 2.1875 21.9701 2.17188 22.1014 2.17188H25.4946H25.535H25.8834C26.0147 2.17188 26.146 2.1875 26.2369 2.22266C26.3227 2.23828 26.4136 2.29297 26.4995 2.35938C26.5651 2.42578 26.6308 2.49609 26.6762 2.5625C26.7217 2.62891 26.7418 2.73438 26.7418 2.83594V5.79297C26.7418 6.25391 27.1155 6.67969 27.7113 6.83594C28.1304 6.9375 28.4839 7.03906 28.7919 7.125C29.1454 7.22656 29.4988 7.34766 29.8321 7.46484C30.1401 7.58594 30.4734 7.72266 30.8268 7.85938C31.1601 7.99609 31.4429 8.13281 31.7307 8.26953C32.2811 8.57812 33.0536 8.52734 33.5434 8.14844L36.0379 6.21875H36.0581C36.1439 6.15234 36.255 6.09766 36.3459 6.06641C36.4317 6.03125 36.5428 6.01562 36.6791 6.01562C36.8104 6.01562 36.9215 6.03125 37.0124 6.06641C37.1235 6.10156 37.2093 6.15234 37.3204 6.23828L40.6985 8.83594C40.8096 8.92188 40.8752 8.98828 40.9207 9.07422C40.9661 9.14062 40.9863 9.22656 40.9863 9.33203C40.9863 9.43359 40.9863 9.50391 40.9409 9.57031C40.8954 9.64062 40.8298 9.70703 40.744 9.77344C40.7238 9.77344 40.7238 9.77344 40.6985 9.78906L37.9617 11.9258C37.5224 12.2656 37.4113 12.7812 37.7193 13.2227C37.8759 13.4609 38.0526 13.6992 38.2041 13.9727C38.3808 14.2305 38.5121 14.5039 38.6434 14.7578C38.7747 15.0312 38.8858 15.2891 38.9968 15.5625C39.0827 15.8008 39.1736 16.0742 39.2594 16.3672C39.3907 16.8789 39.9663 17.2734 40.6733 17.2734H44.1826C44.3139 17.2734 44.4452 17.2891 44.5361 17.3242C44.6219 17.3398 44.7128 17.3906 44.7987 17.4609C44.9097 17.5469 44.9754 17.6328 45.0208 17.6992C45.041 17.7656 45.0663 17.8516 45.0663 17.957V21.6836C45.0663 21.7852 45.0461 21.8867 45.0006 21.957C44.9552 22.0273 44.8895 22.0938 44.8037 22.1602C44.7381 22.2266 44.627 22.2812 44.5411 22.3125C44.4502 22.3477 44.319 22.3633 44.1877 22.3633H40.3652C39.7694 22.3633 39.219 22.6523 39.017 23.1133C38.8858 23.4375 38.7545 23.7109 38.6434 23.9492C38.5121 24.2227 38.3556 24.4961 38.2041 24.7539C38.0476 24.9922 37.8708 25.25 37.6941 25.5234C37.5174 25.7812 37.3406 26.0039 37.1639 26.2227C37.1235 26.2656 37.0882 26.3086 37.0579 26.3555H40.4006C40.542 26.1367 40.6834 25.9023 40.8298 25.6602C41.0065 25.3516 41.1833 25.0469 41.3398 24.7383C41.36 24.6875 41.4054 24.6172 41.4307 24.5664H44.2584C44.7684 24.5664 45.2531 24.5 45.6924 24.3633C46.1317 24.2266 46.5559 24.0039 46.9093 23.7305C47.2628 23.457 47.5506 23.1484 47.7273 22.7891C47.9041 22.4297 47.9899 22.0703 47.9899 21.6797V17.957C47.9899 17.582 47.8788 17.207 47.7021 16.8633C47.5254 16.5234 47.2628 16.2148 46.9093 15.9414L46.8891 15.9258C46.5357 15.6523 46.1368 15.4297 45.6975 15.293C45.2582 15.1406 44.7684 15.0703 44.2634 15.0703H41.8548C41.8548 15.0195 41.8346 14.9844 41.8094 14.9336C41.6781 14.6094 41.5468 14.2852 41.3903 13.9766C41.2136 13.6523 41.057 13.3437 40.8803 13.0547C40.8601 13.0195 40.8146 12.9688 40.7944 12.918L42.7839 11.3633C43.1576 11.1055 43.4252 10.8008 43.6221 10.457C43.7989 10.1172 43.91 9.73828 43.91 9.34766C43.91 8.95312 43.8241 8.59766 43.6221 8.23828C43.4252 7.89844 43.1576 7.58984 42.8041 7.31641H42.7839L39.4058 4.71875C39.0524 4.44531 38.6535 4.24219 38.1889 4.08594C37.7244 3.93359 37.2598 3.86328 36.7549 3.86328C36.2701 3.86328 35.7854 3.92969 35.3209 4.08594C34.8563 4.22266 34.4574 4.44531 34.1039 4.71875L32.3821 6.03516L32.2508 5.98438C31.8973 5.83203 31.4984 5.69531 31.0793 5.53906C30.6804 5.40234 30.2866 5.26562 29.8876 5.14453C29.822 5.12891 29.7311 5.09375 29.6655 5.07422V2.88672C29.6655 2.49219 29.5796 2.11719 29.4029 1.77734C29.2262 1.43359 28.9384 1.10938 28.5849 0.835938C28.2112 0.5625 27.8123 0.339844 27.368 0.203125C26.9085 0.0664062 26.4439 0 25.9339 0H24.1919H23.8031H22.061C21.551 0 21.0915 0.0664062 20.627 0.203125C20.1877 0.339844 19.7888 0.5625 19.4101 0.835938C19.0566 1.10938 18.7688 1.43359 18.592 1.77734C18.4153 2.11719 18.3295 2.49609 18.3295 2.88672V5.07422C18.2638 5.08984 18.1729 5.125 18.1073 5.14453C17.7084 5.26562 17.3145 5.40234 16.9156 5.53906C16.4965 5.69141 16.0976 5.82812 15.7442 5.98438L15.6129 6.03516L13.891 4.71875C13.5376 4.44531 13.1386 4.22266 12.6741 4.08594C12.2096 3.93359 11.7248 3.86328 11.2401 3.86328C10.7301 3.86328 10.2706 3.92969 9.80602 4.08594C9.34147 4.23828 8.94256 4.44531 8.5891 4.71875L5.21102 7.31641H5.19083C4.83737 7.58984 4.57479 7.89844 4.37282 8.23828C4.17589 8.59375 4.085 8.95312 4.085 9.34375C4.085 9.73828 4.19609 10.1133 4.37282 10.4531C4.56975 10.793 4.83737 11.1016 5.21102 11.3594L7.20051 12.9141C7.18031 12.9648 7.13486 13.0156 7.11466 13.0508C6.93793 13.3398 6.7814 13.6484 6.60467 13.9727C6.44814 14.2812 6.31685 14.6055 6.18557 14.9297C6.16537 14.9805 6.14012 15.0156 6.14012 15.0664H3.73154C3.22154 15.0664 2.7368 15.1367 2.2975 15.2891C1.85819 15.4258 1.45929 15.6484 1.10583 15.9219L1.08563 15.9375C0.732169 16.2109 0.469598 16.5195 0.292868 16.8594C0.111088 17.2031 0 17.582 0 17.957V21.6797C0 22.0742 0.0858405 22.4297 0.262571 22.7891C0.439301 23.1484 0.72712 23.457 1.08058 23.7305C1.43404 24.0039 1.85315 24.2266 2.2975 24.3633C2.7368 24.5 3.22659 24.5664 3.73154 24.5664H6.55923C6.57942 24.6172 6.62487 24.6875 6.65012 24.7383C6.80665 25.0469 6.98338 25.3516 7.16011 25.6602C7.31159 25.9062 7.44793 26.1406 7.58931 26.3555H10.927V26.3594ZM16.3955 22.9023C15.9764 22.9141 15.6533 22.9805 15.4361 23.0977C15.3099 23.1641 15.219 23.2461 15.1635 23.3438C15.0978 23.4531 15.0675 23.5859 15.0726 23.7383C15.0877 24.1836 15.3907 24.7695 15.9764 25.4453L15.9865 25.4531L17.8851 27.793C18.6476 28.7305 19.4454 29.6875 20.4401 30.3867C21.3945 31.0625 22.5508 31.5195 24.0858 31.5234C25.7421 31.5273 26.959 31.0508 27.9436 30.3398C28.9687 29.5977 29.7766 28.582 30.5693 27.5664L32.7103 24.8398C33.1092 24.1367 33.2556 23.6641 33.1647 23.3867C33.1092 23.2227 32.8769 23.1406 32.473 23.125C32.3871 23.1211 32.3013 23.1211 32.2104 23.1211C32.1145 23.125 32.0135 23.1289 31.9125 23.1367C31.8569 23.1406 31.8014 23.1367 31.7458 23.1289C31.554 23.1367 31.357 23.125 31.1601 23.1055L31.8923 20.5938C26.454 21.2578 22.3842 18.1328 16.6329 19.9688L17.0469 22.9258C16.8197 22.9297 16.5975 22.9258 16.3955 22.9023ZM33.2051 22.375C33.7303 22.5 34.0686 22.7578 34.21 23.1758C34.3615 23.6406 34.1948 24.293 33.6899 25.1836C33.6798 25.1992 33.6697 25.2148 33.6596 25.2305L31.4934 27.9883C30.6602 29.0508 29.8119 30.1172 28.6808 30.9375L28.6253 30.9766C28.7313 31.0977 28.8525 31.2305 28.9737 31.3711C29.3474 31.7969 29.7766 32.2852 30.1755 32.6641C32.5285 33.7969 37.7042 34.1016 39.729 34.9727C44.8794 37.1953 43.0011 42.5938 43.3747 46.4766C43.2636 47.3945 42.592 47.9219 41.2691 48H39.8401L41.4105 38.793C41.5317 38.0742 40.8752 37.4883 40.0623 37.4883H29.0191C29.2918 35.9844 29.4887 34.5469 29.5847 33.4609C29.0696 33.0195 28.5193 32.3945 28.0446 31.8555C27.9386 31.7383 27.8376 31.6211 27.7416 31.5156C26.7469 32.0312 25.5653 32.3516 24.0858 32.3477C22.4347 32.3438 21.1471 31.9062 20.0816 31.2383C19.7837 31.9297 19.3444 32.8828 18.9203 33.3398C18.8849 33.3789 18.8395 33.4141 18.789 33.4414C18.9708 34.5625 19.2232 36 19.5211 37.4922H8.21039C7.40248 37.4922 6.74101 38.0781 6.86219 38.7969L8.43257 48.0039H6.99853C5.67557 47.9258 5.004 47.3984 4.89291 46.4805C4.95855 42.3672 2.93878 37.3906 8.53861 34.9766C10.5887 34.0898 15.8754 33.7891 18.183 32.6211C18.5365 32.1094 18.9253 31.1875 19.1626 30.6406C19.1879 30.5781 19.1475 30.6797 19.1879 30.5898C18.3396 29.8867 17.6478 29.0547 16.9813 28.2344L15.0827 25.8984C14.3859 25.0977 14.0274 24.3633 14.0021 23.7617C13.992 23.4805 14.0526 23.2227 14.1889 22.9961C14.3303 22.7617 14.5474 22.5625 14.8403 22.4102C14.9766 22.3398 15.1332 22.2773 15.2998 22.2266C15.1786 20.957 15.1281 19.3594 15.2089 18.0234C15.2493 17.707 15.3301 17.3867 15.4412 17.0703C16.138 15.1484 18.2739 13.7617 20.7128 13.1094C21.8944 12.793 21.4399 12.0391 22.6367 12.0898C25.4744 12.2109 29.8473 13.625 31.5287 15.125C33.8919 17.2227 33.2809 19.8086 33.2051 22.375ZM20.218 35.2305C19.2586 34.3867 19.1778 33.5039 20.218 32.5703C21.4197 32.8047 22.5205 33.207 23.5355 33.75C23.7526 33.6758 24.0101 33.6445 24.2575 33.6602C25.3129 33.082 26.656 32.8477 27.8325 32.4141C29.2363 33.4727 29.0848 34.4453 27.7063 35.3477C26.9337 35.2109 26.2016 35 25.4997 34.7227C25.4795 34.8633 25.434 35.0156 25.3482 35.1797L25.7067 37.4883H22.8437L23.2022 35.1797C22.98 34.8867 22.8942 34.6367 22.8992 34.4297C22.0661 34.8164 21.1622 35.0664 20.218 35.2305Z" fill="#455A64"/>
</svg>
