<svg width="3300" height="2200" viewBox="0 0 3300 2200" fill="none" xmlns="http://www.w3.org/2000/svg">
<g id="check.active.1">
<g id="Notes">
<path id="artboard" d="M3300 0H0V2200H3300V0Z" fill="white"/>
<path id="Vector" d="M263 292H3036" stroke="black" stroke-width="0.5"/>
<text id="Weight/Scale Variations" fill="black" xml:space="preserve" style="white-space: pre" font-family="Roboto" font-size="13" font-weight="bold" letter-spacing="0em"><tspan x="263" y="320.943">Weight/Scale Variations</tspan></text>
<text id="Ultralight" fill="black" xml:space="preserve" style="white-space: pre" font-family="Roboto" font-size="13" letter-spacing="0em"><tspan x="533.211" y="320.943">Ultralight</tspan></text>
<text id="Thin" fill="black" xml:space="preserve" style="white-space: pre" font-family="Roboto" font-size="13" letter-spacing="0em"><tspan x="843.422" y="320.943">Thin</tspan></text>
<text id="Light" fill="black" xml:space="preserve" style="white-space: pre" font-family="Roboto" font-size="13" letter-spacing="0em"><tspan x="1138.63" y="320.943">Light</tspan></text>
<text id="Regular" fill="black" xml:space="preserve" style="white-space: pre" font-family="Roboto" font-size="13" letter-spacing="0em"><tspan x="1427.34" y="320.943">Regular</tspan></text>
<text id="Medium" fill="black" xml:space="preserve" style="white-space: pre" font-family="Roboto" font-size="13" letter-spacing="0em"><tspan x="1722.56" y="320.943">Medium</tspan></text>
<text id="Semibold" fill="black" xml:space="preserve" style="white-space: pre" font-family="Roboto" font-size="13" letter-spacing="0em"><tspan x="2015.77" y="320.943">Semibold</tspan></text>
<text id="Bold" fill="black" xml:space="preserve" style="white-space: pre" font-family="Roboto" font-size="13" letter-spacing="0em"><tspan x="2326.48" y="320.943">Bold</tspan></text>
<text id="Heavy" fill="black" xml:space="preserve" style="white-space: pre" font-family="Roboto" font-size="13" letter-spacing="0em"><tspan x="2618.69" y="320.943">Heavy</tspan></text>
<text id="Black" fill="black" xml:space="preserve" style="white-space: pre" font-family="Roboto" font-size="13" letter-spacing="0em"><tspan x="2917.4" y="320.943">Black</tspan></text>
<path id="Vector_2" d="M263 1903H3036" stroke="black" stroke-width="0.5"/>
<g id="Group">
<path id="Vector_3" d="M272.248 1933.83C273.329 1933.83 274.344 1933.63 275.295 1933.22C276.245 1932.81 277.084 1932.24 277.81 1931.51C278.535 1930.78 279.105 1929.94 279.519 1928.99C279.932 1928.04 280.139 1927.03 280.139 1925.95C280.139 1924.88 279.932 1923.86 279.519 1922.91C279.105 1921.96 278.534 1921.12 277.805 1920.39C277.075 1919.67 276.236 1919.1 275.285 1918.69C274.335 1918.28 273.319 1918.07 272.238 1918.07C271.164 1918.07 270.152 1918.28 269.201 1918.69C268.251 1919.1 267.414 1919.67 266.691 1920.39C265.969 1921.12 265.401 1921.96 264.987 1922.91C264.574 1923.86 264.367 1924.88 264.367 1925.95C264.367 1927.03 264.574 1928.04 264.987 1928.99C265.401 1929.94 265.97 1930.78 266.696 1931.51C267.422 1932.24 268.26 1932.81 269.211 1933.22C270.161 1933.63 271.174 1933.83 272.248 1933.83ZM272.248 1932.35C271.363 1932.35 270.534 1932.18 269.763 1931.85C268.991 1931.53 268.314 1931.07 267.731 1930.48C267.149 1929.9 266.693 1929.22 266.364 1928.44C266.035 1927.67 265.871 1926.84 265.871 1925.95C265.871 1925.07 266.034 1924.24 266.359 1923.46C266.685 1922.69 267.139 1922.01 267.722 1921.42C268.304 1920.83 268.981 1920.38 269.753 1920.05C270.524 1919.72 271.353 1919.55 272.238 1919.55C273.13 1919.55 273.962 1919.72 274.733 1920.05C275.505 1920.38 276.184 1920.83 276.769 1921.42C277.355 1922.01 277.814 1922.69 278.146 1923.46C278.478 1924.24 278.644 1925.07 278.644 1925.95C278.644 1926.84 278.48 1927.67 278.151 1928.44C277.823 1929.22 277.367 1929.9 276.784 1930.48C276.202 1931.07 275.523 1931.53 274.748 1931.85C273.973 1932.18 273.14 1932.35 272.248 1932.35ZM268.654 1925.95C268.654 1926.17 268.723 1926.34 268.859 1926.47C268.996 1926.61 269.178 1926.67 269.406 1926.67H271.516V1928.79C271.516 1929.01 271.581 1929.19 271.711 1929.33C271.841 1929.47 272.017 1929.54 272.238 1929.54C272.453 1929.54 272.631 1929.47 272.771 1929.33C272.91 1929.19 272.98 1929.01 272.98 1928.79V1926.67H275.09C275.311 1926.67 275.49 1926.61 275.627 1926.47C275.764 1926.34 275.832 1926.17 275.832 1925.95C275.832 1925.73 275.764 1925.55 275.627 1925.41C275.49 1925.28 275.311 1925.21 275.09 1925.21H272.98V1923.1C272.98 1922.88 272.91 1922.7 272.771 1922.56C272.631 1922.42 272.453 1922.35 272.238 1922.35C272.017 1922.35 271.841 1922.42 271.711 1922.56C271.581 1922.7 271.516 1922.88 271.516 1923.1V1925.21H269.406C269.178 1925.21 268.996 1925.28 268.859 1925.41C268.723 1925.55 268.654 1925.73 268.654 1925.95Z" fill="black"/>
</g>
<g id="Group_2">
<path id="Vector_4" d="M293.576 1935.91C294.937 1935.91 296.218 1935.65 297.419 1935.13C298.62 1934.61 299.68 1933.89 300.598 1932.97C301.516 1932.05 302.235 1930.99 302.756 1929.79C303.277 1928.59 303.537 1927.31 303.537 1925.95C303.537 1924.59 303.277 1923.31 302.756 1922.11C302.235 1920.91 301.516 1919.85 300.598 1918.93C299.68 1918.01 298.618 1917.29 297.414 1916.77C296.21 1916.25 294.927 1915.99 293.566 1915.99C292.206 1915.99 290.925 1916.25 289.724 1916.77C288.522 1917.29 287.465 1918.01 286.55 1918.93C285.635 1919.85 284.917 1920.91 284.396 1922.11C283.876 1923.31 283.615 1924.59 283.615 1925.95C283.615 1927.31 283.876 1928.59 284.396 1929.79C284.917 1930.99 285.637 1932.05 286.555 1932.97C287.473 1933.89 288.532 1934.61 289.733 1935.13C290.935 1935.65 292.215 1935.91 293.576 1935.91ZM293.576 1934.25C292.424 1934.25 291.346 1934.04 290.344 1933.61C289.341 1933.18 288.461 1932.58 287.702 1931.82C286.944 1931.06 286.351 1930.18 285.925 1929.18C285.498 1928.18 285.285 1927.1 285.285 1925.95C285.285 1924.8 285.498 1923.72 285.925 1922.72C286.351 1921.71 286.942 1920.83 287.697 1920.07C288.452 1919.31 289.331 1918.71 290.334 1918.29C291.337 1917.86 292.414 1917.65 293.566 1917.65C294.719 1917.65 295.796 1917.86 296.799 1918.29C297.801 1918.71 298.684 1919.31 299.445 1920.07C300.207 1920.83 300.803 1921.71 301.232 1922.72C301.662 1923.72 301.877 1924.8 301.877 1925.95C301.877 1927.1 301.664 1928.18 301.237 1929.18C300.811 1930.18 300.218 1931.06 299.46 1931.82C298.702 1932.58 297.819 1933.18 296.813 1933.61C295.808 1934.04 294.729 1934.25 293.576 1934.25ZM289.045 1925.95C289.045 1926.18 289.123 1926.38 289.279 1926.53C289.436 1926.68 289.637 1926.75 289.885 1926.75H292.756V1929.63C292.756 1929.88 292.831 1930.08 292.98 1930.23C293.13 1930.38 293.322 1930.46 293.557 1930.46C293.804 1930.46 294.004 1930.38 294.157 1930.23C294.31 1930.08 294.387 1929.88 294.387 1929.63V1926.75H297.268C297.515 1926.75 297.715 1926.68 297.868 1926.53C298.021 1926.38 298.098 1926.18 298.098 1925.95C298.098 1925.7 298.021 1925.5 297.868 1925.35C297.715 1925.2 297.515 1925.12 297.268 1925.12H294.387V1922.25C294.387 1921.99 294.31 1921.79 294.157 1921.64C294.004 1921.48 293.804 1921.41 293.557 1921.41C293.322 1921.41 293.13 1921.49 292.98 1921.64C292.831 1921.8 292.756 1922 292.756 1922.25V1925.12H289.885C289.631 1925.12 289.427 1925.2 289.274 1925.35C289.121 1925.5 289.045 1925.7 289.045 1925.95Z" fill="black"/>
</g>
<g id="Group_3">
<path id="Vector_5" d="M320.617 1938.67C322.01 1938.67 323.34 1938.45 324.606 1938.02C325.873 1937.58 327.036 1936.98 328.098 1936.2C329.159 1935.41 330.082 1934.49 330.866 1933.43C331.651 1932.37 332.259 1931.21 332.692 1929.94C333.125 1928.67 333.342 1927.34 333.342 1925.95C333.342 1924.56 333.125 1923.23 332.692 1921.96C332.259 1920.7 331.651 1919.53 330.866 1918.47C330.082 1917.41 329.159 1916.49 328.098 1915.7C327.036 1914.92 325.871 1914.31 324.602 1913.88C323.332 1913.44 322.001 1913.23 320.607 1913.23C319.214 1913.23 317.884 1913.44 316.618 1913.88C315.352 1914.31 314.19 1914.92 313.132 1915.7C312.074 1916.49 311.153 1917.41 310.368 1918.47C309.584 1919.53 308.977 1920.7 308.547 1921.96C308.117 1923.23 307.902 1924.56 307.902 1925.95C307.902 1927.34 308.119 1928.67 308.552 1929.94C308.985 1931.21 309.592 1932.37 310.373 1933.43C311.154 1934.49 312.076 1935.41 313.137 1936.2C314.198 1936.98 315.362 1937.58 316.628 1938.02C317.894 1938.45 319.224 1938.67 320.617 1938.67ZM320.617 1936.85C319.413 1936.85 318.265 1936.67 317.175 1936.3C316.084 1935.93 315.087 1935.41 314.182 1934.75C313.277 1934.09 312.491 1933.3 311.823 1932.39C311.156 1931.48 310.64 1930.48 310.275 1929.39C309.911 1928.3 309.729 1927.16 309.729 1925.95C309.729 1924.74 309.911 1923.59 310.275 1922.5C310.64 1921.41 311.154 1920.41 311.818 1919.5C312.482 1918.59 313.267 1917.81 314.172 1917.14C315.077 1916.48 316.075 1915.96 317.165 1915.6C318.256 1915.24 319.403 1915.05 320.607 1915.05C321.818 1915.05 322.969 1915.24 324.06 1915.6C325.15 1915.96 326.149 1916.48 327.058 1917.14C327.966 1917.81 328.752 1918.59 329.416 1919.5C330.08 1920.41 330.596 1921.41 330.964 1922.5C331.332 1923.59 331.516 1924.74 331.516 1925.95C331.522 1927.16 331.343 1928.3 330.978 1929.39C330.614 1930.48 330.098 1931.48 329.431 1932.39C328.763 1933.3 327.976 1934.09 327.067 1934.75C326.159 1935.41 325.16 1935.93 324.069 1936.3C322.979 1936.67 321.828 1936.85 320.617 1936.85ZM314.846 1925.95C314.846 1926.21 314.932 1926.42 315.104 1926.58C315.277 1926.75 315.497 1926.83 315.764 1926.83H319.709V1930.79C319.709 1931.05 319.792 1931.27 319.958 1931.44C320.124 1931.62 320.337 1931.7 320.598 1931.7C320.865 1931.7 321.084 1931.62 321.257 1931.45C321.429 1931.28 321.516 1931.06 321.516 1930.79V1926.83H325.471C325.738 1926.83 325.956 1926.75 326.125 1926.58C326.294 1926.42 326.379 1926.21 326.379 1925.95C326.379 1925.68 326.294 1925.46 326.125 1925.29C325.956 1925.12 325.738 1925.03 325.471 1925.03H321.516V1921.09C321.516 1920.81 321.429 1920.59 321.257 1920.42C321.084 1920.25 320.865 1920.16 320.598 1920.16C320.337 1920.16 320.124 1920.25 319.958 1920.42C319.792 1920.59 319.709 1920.81 319.709 1921.09V1925.03H315.764C315.49 1925.03 315.269 1925.12 315.1 1925.29C314.93 1925.46 314.846 1925.68 314.846 1925.95Z" fill="black"/>
</g>
<text id="Design Variations" fill="black" xml:space="preserve" style="white-space: pre" font-family="Roboto" font-size="13" font-weight="bold" letter-spacing="0em"><tspan x="263" y="1951.94">Design Variations</tspan></text>
<text id="Symbols are supported in up to nine weights and three scales." fill="black" xml:space="preserve" style="white-space: pre" font-family="Roboto" font-size="13" letter-spacing="0em"><tspan x="263" y="1969.94">Symbols are supported in up to nine weights and three scales.</tspan></text>
<text id="For optimal layout with text and other symbols, vertically align" fill="black" xml:space="preserve" style="white-space: pre" font-family="Roboto" font-size="13" letter-spacing="0em"><tspan x="263" y="1987.94">For optimal layout with text and other symbols, vertically align</tspan></text>
<text id="symbols with the adjacent text." fill="black" xml:space="preserve" style="white-space: pre" font-family="Roboto" font-size="13" letter-spacing="0em"><tspan x="263" y="2005.94">symbols with the adjacent text.</tspan></text>
<path id="Vector_6" d="M776 1919V1933" stroke="#00AEEF" stroke-width="0.5"/>
<g id="Group_4">
<path id="Vector_7" d="M779.311 1933.16C779.571 1933.16 779.773 1933.1 779.916 1932.99C780.059 1932.88 780.176 1932.69 780.268 1932.42L781.527 1928.97H787.289L788.549 1932.42C788.64 1932.69 788.757 1932.88 788.9 1932.99C789.044 1933.1 789.242 1933.16 789.496 1933.16C789.757 1933.16 789.963 1933.09 790.116 1932.94C790.269 1932.8 790.346 1932.6 790.346 1932.36C790.346 1932.21 790.31 1932.03 790.238 1931.83L785.658 1919.63C785.541 1919.33 785.382 1919.11 785.18 1918.96C784.978 1918.81 784.721 1918.73 784.408 1918.73C783.803 1918.73 783.393 1919.03 783.178 1919.62L778.598 1931.84C778.526 1932.04 778.49 1932.22 778.49 1932.37C778.49 1932.61 778.563 1932.81 778.71 1932.95C778.856 1933.09 779.057 1933.16 779.311 1933.16ZM782.006 1927.48L784.379 1920.91H784.428L786.801 1927.48H782.006Z" fill="black"/>
</g>
<path id="Vector_8" d="M793.197 1919V1933" stroke="#00AEEF" stroke-width="0.5"/>
<text id="Margins" fill="black" xml:space="preserve" style="white-space: pre" font-family="Roboto" font-size="13" font-weight="bold" letter-spacing="0em"><tspan x="776" y="1951.94">Margins</tspan></text>
<text id="Leading and trailing margins on the left and right side of each symbol" fill="black" xml:space="preserve" style="white-space: pre" font-family="Roboto" font-size="13" letter-spacing="0em"><tspan x="776" y="1969.94">Leading and trailing margins on the left and right side of each symbol</tspan></text>
<text id="can be adjusted by modifying the x-location of the margin guidelines." fill="black" xml:space="preserve" style="white-space: pre" font-family="Roboto" font-size="13" letter-spacing="0em"><tspan x="776" y="1987.94">can be adjusted by modifying the x-location of the margin guidelines.</tspan></text>
<text id="Modifications are automatically applied proportionally to all" fill="black" xml:space="preserve" style="white-space: pre" font-family="Roboto" font-size="13" letter-spacing="0em"><tspan x="776" y="2005.94">Modifications are automatically applied proportionally to all</tspan></text>
<text id="scales and weights." fill="black" xml:space="preserve" style="white-space: pre" font-family="Roboto" font-size="13" letter-spacing="0em"><tspan x="776" y="2023.94">scales and weights.</tspan></text>
<g id="Group_5">
<path id="Vector_9" d="M1291.84 1934.86L1293.54 1936.57C1293.97 1937.01 1294.43 1937.21 1294.9 1937.18C1295.38 1937.15 1295.85 1936.87 1296.31 1936.36L1307.01 1924.57L1306.04 1923.59L1295.43 1935.27C1295.25 1935.48 1295.07 1935.59 1294.89 1935.62C1294.71 1935.64 1294.51 1935.54 1294.27 1935.3L1293.1 1934.14C1292.87 1933.91 1292.76 1933.7 1292.79 1933.52C1292.82 1933.34 1292.94 1933.16 1293.14 1932.98L1304.62 1922.18L1303.64 1921.21L1292.05 1932.1C1291.55 1932.56 1291.29 1933.02 1291.25 1933.5C1291.22 1933.97 1291.41 1934.43 1291.84 1934.86ZM1298.26 1916.67C1298.05 1916.87 1297.93 1917.1 1297.91 1917.36C1297.88 1917.62 1297.93 1917.85 1298.04 1918.05C1298.16 1918.23 1298.33 1918.37 1298.56 1918.46C1298.78 1918.55 1299.06 1918.55 1299.38 1918.48C1300.11 1918.31 1300.85 1918.24 1301.6 1918.27C1302.35 1918.3 1303.08 1918.54 1303.8 1919.01L1303.21 1920.47C1303.04 1920.89 1302.99 1921.25 1303.07 1921.56C1303.14 1921.87 1303.31 1922.16 1303.58 1922.43L1305.88 1924.75C1306.12 1924.99 1306.35 1925.14 1306.58 1925.18C1306.81 1925.21 1307.06 1925.21 1307.34 1925.16L1308.4 1924.96L1309.07 1925.63L1309.03 1926.19C1309.01 1926.44 1309.04 1926.67 1309.12 1926.88C1309.2 1927.08 1309.36 1927.31 1309.61 1927.55L1310.37 1928.29C1310.61 1928.53 1310.87 1928.66 1311.15 1928.67C1311.44 1928.68 1311.7 1928.56 1311.93 1928.33L1314.84 1925.41C1315.07 1925.18 1315.19 1924.92 1315.18 1924.64C1315.18 1924.37 1315.05 1924.11 1314.81 1923.87L1314.04 1923.11C1313.8 1922.86 1313.59 1922.7 1313.38 1922.61C1313.18 1922.52 1312.95 1922.49 1312.71 1922.51L1312.14 1922.56L1311.49 1921.92L1311.73 1920.8C1311.8 1920.52 1311.79 1920.26 1311.7 1920.01C1311.6 1919.77 1311.41 1919.5 1311.12 1919.21L1308.92 1917.02C1308.09 1916.19 1307.2 1915.57 1306.26 1915.16C1305.32 1914.75 1304.37 1914.53 1303.42 1914.52C1302.47 1914.5 1301.55 1914.67 1300.67 1915.04C1299.78 1915.4 1298.98 1915.95 1298.26 1916.67ZM1299.75 1917.04C1300.36 1916.6 1301.01 1916.28 1301.7 1916.09C1302.39 1915.9 1303.1 1915.84 1303.8 1915.91C1304.51 1915.98 1305.2 1916.17 1305.87 1916.48C1306.54 1916.8 1307.15 1917.23 1307.7 1917.79L1310.13 1920.21C1310.25 1920.32 1310.32 1920.44 1310.35 1920.55C1310.38 1920.66 1310.38 1920.8 1310.34 1920.97L1310.02 1922.45L1311.52 1923.94L1312.51 1923.88C1312.63 1923.87 1312.72 1923.88 1312.79 1923.9C1312.85 1923.92 1312.94 1923.98 1313.03 1924.08L1313.61 1924.66L1311.17 1927.1L1310.59 1926.52C1310.49 1926.43 1310.43 1926.34 1310.41 1926.28C1310.38 1926.21 1310.37 1926.12 1310.38 1925.99L1310.45 1925.01L1308.95 1923.53L1307.43 1923.78C1307.27 1923.81 1307.14 1923.82 1307.04 1923.79C1306.95 1923.77 1306.84 1923.7 1306.72 1923.58L1304.71 1921.58C1304.58 1921.46 1304.51 1921.35 1304.49 1921.25C1304.48 1921.14 1304.51 1920.99 1304.59 1920.81L1305.47 1918.72C1304.68 1917.99 1303.8 1917.49 1302.83 1917.21C1301.85 1916.93 1300.86 1916.94 1299.84 1917.24C1299.76 1917.26 1299.71 1917.24 1299.69 1917.19C1299.67 1917.14 1299.69 1917.09 1299.75 1917.04Z" fill="black"/>
</g>
<text id="Exporting" fill="black" xml:space="preserve" style="white-space: pre" font-family="Roboto" font-size="13" font-weight="bold" letter-spacing="0em"><tspan x="1289" y="1951.94">Exporting</tspan></text>
<text id="Symbols should be outlined when exporting to ensure the" fill="black" xml:space="preserve" style="white-space: pre" font-family="Roboto" font-size="13" letter-spacing="0em"><tspan x="1289" y="1969.94">Symbols should be outlined when exporting to ensure the</tspan></text>
<text id="design is preserved when submitting to Xcode." fill="black" xml:space="preserve" style="white-space: pre" font-family="Roboto" font-size="13" letter-spacing="0em"><tspan x="1289" y="1987.94">design is preserved when submitting to Xcode.</tspan></text>
<text id="template-version" fill="black" xml:space="preserve" style="white-space: pre" font-family="Roboto" font-size="13" letter-spacing="0em"><tspan x="2951" y="1931.94">Template v.3.0</tspan></text>
<text id="Requires Xcode 13 or greater" fill="black" xml:space="preserve" style="white-space: pre" font-family="Roboto" font-size="13" letter-spacing="0em"><tspan x="2868" y="1949.94">Requires Xcode 13 or greater</tspan></text>
<text id="descriptive-name" fill="black" xml:space="preserve" style="white-space: pre" font-family="Roboto" font-size="13" letter-spacing="0em"><tspan x="2911" y="1967.94">Generated from circle</tspan></text>
<text id="Typeset at 100 points" fill="black" xml:space="preserve" style="white-space: pre" font-family="Roboto" font-size="13" letter-spacing="0em"><tspan x="2911" y="1985.94">Typeset at 100 points</tspan></text>
<text id="Small" fill="black" xml:space="preserve" style="white-space: pre" font-family="Roboto" font-size="13" letter-spacing="0em"><tspan x="263" y="724.943">Small</tspan></text>
<text id="Medium_2" fill="black" xml:space="preserve" style="white-space: pre" font-family="Roboto" font-size="13" letter-spacing="0em"><tspan x="263" y="1154.94">Medium</tspan></text>
<text id="Large" fill="black" xml:space="preserve" style="white-space: pre" font-family="Roboto" font-size="13" letter-spacing="0em"><tspan x="263" y="1584.94">Large</tspan></text>
</g>
<g id="Guides">
<g id="H-reference">
<path id="Vector_10" d="M339.993 696.002H342.638L368.328 628.869H369.03V625.543H367.123L339.993 696.002ZM350.688 671.522H385.982L385.231 669.273H351.438L350.688 671.522ZM394.119 696.002H396.764L369.638 625.543H368.433V628.869L394.119 696.002Z" fill="#27AAE1"/>
</g>
<path id="Baseline-S" d="M263 696H3036" stroke="#27AAE1" stroke-width="0.5"/>
<path id="Capline-S" d="M263 625.543H3036" stroke="#27AAE1" stroke-width="0.5"/>
<g id="H-reference_2">
<path id="Vector_11" d="M339.993 1126H342.638L368.328 1058.87H369.03V1055.54H367.123L339.993 1126ZM350.688 1101.52H385.982L385.231 1099.27H351.438L350.688 1101.52ZM394.119 1126H396.764L369.638 1055.54H368.433V1058.87L394.119 1126Z" fill="#27AAE1"/>
</g>
<path id="Baseline-M" d="M263 1126H3036" stroke="#27AAE1" stroke-width="0.5"/>
<path id="Capline-M" d="M263 1055.54H3036" stroke="#27AAE1" stroke-width="0.5"/>
<g id="H-reference_3">
<path id="Vector_12" d="M339.993 1556H342.638L368.328 1488.87H369.03V1485.54H367.123L339.993 1556ZM350.688 1531.52H385.982L385.231 1529.27H351.438L350.688 1531.52ZM394.119 1556H396.764L369.638 1485.54H368.433V1488.87L394.119 1556Z" fill="#27AAE1"/>
</g>
<path id="Baseline-L" d="M263 1556H3036" stroke="#27AAE1" stroke-width="0.5"/>
<path id="Capline-L" d="M263 1485.54H3036" stroke="#27AAE1" stroke-width="0.5"/>
<path id="left-margin-Ultralight-S" d="M515.649 600.785V720.121" stroke="#00AEEF" stroke-width="0.5"/>
<path id="right-margin-Ultralight-S" d="M603.773 600.785V720.121" stroke="#00AEEF" stroke-width="0.5"/>
<path id="left-margin-Thin-S" d="M811.863 600.785V720.121" stroke="#00AEEF" stroke-width="0.5"/>
<path id="right-margin-Thin-S" d="M900.982 600.785V720.121" stroke="#00AEEF" stroke-width="0.5"/>
<path id="left-margin-Light-S" d="M1107.6 600.785V720.121" stroke="#00AEEF" stroke-width="0.5"/>
<path id="right-margin-Light-S" d="M1198.66 600.785V720.121" stroke="#00AEEF" stroke-width="0.5"/>
<path id="left-margin-Regular-S" d="M1403.58 600.785V720.121" stroke="#00AEEF" stroke-width="0.5"/>
<path id="right-margin-Regular-S" d="M1496.11 600.785V720.121" stroke="#00AEEF" stroke-width="0.5"/>
<path id="left-margin-Medium-S" d="M1699.83 600.785V720.121" stroke="#00AEEF" stroke-width="0.5"/>
<path id="right-margin-Medium-S" d="M1793.28 600.785V720.121" stroke="#00AEEF" stroke-width="0.5"/>
<path id="left-margin-Semibold-S" d="M1996.19 600.785V720.121" stroke="#00AEEF" stroke-width="0.5"/>
<path id="right-margin-Semibold-S" d="M2090.35 600.785V720.121" stroke="#00AEEF" stroke-width="0.5"/>
<path id="left-margin-Bold-S" d="M2292.43 600.785V720.121" stroke="#00AEEF" stroke-width="0.5"/>
<path id="right-margin-Bold-S" d="M2387.52 600.785V720.121" stroke="#00AEEF" stroke-width="0.5"/>
<path id="left-margin-Heavy-S" d="M2588.47 600.785V720.121" stroke="#00AEEF" stroke-width="0.5"/>
<path id="right-margin-Heavy-S" d="M2684.91 600.785V720.121" stroke="#00AEEF" stroke-width="0.5"/>
<path id="left-margin-Black-S" d="M2884.57 600.785V720.121" stroke="#00AEEF" stroke-width="0.5"/>
<path id="right-margin-Black-S" d="M2982.23 600.785V720.121" stroke="#00AEEF" stroke-width="0.5"/>
<path id="left-margin-Ultralight-M" d="M503.641 1030.79V1150.12" stroke="#00AEEF" stroke-width="0.5"/>
<path id="right-margin-Ultralight-M" d="M615.781 1030.79V1150.12" stroke="#00AEEF" stroke-width="0.5"/>
<path id="left-margin-Thin-M" d="M799.793 1030.79V1150.12" stroke="#00AEEF" stroke-width="0.5"/>
<path id="right-margin-Thin-M" d="M913.051 1030.79V1150.12" stroke="#00AEEF" stroke-width="0.5"/>
<path id="left-margin-Light-M" d="M1095.41 1030.79V1150.12" stroke="#00AEEF" stroke-width="0.5"/>
<path id="right-margin-Light-M" d="M1210.85 1030.79V1150.12" stroke="#00AEEF" stroke-width="0.5"/>
<path id="left-margin-Regular-M" d="M1391.3 1030.79V1150.12" stroke="#00AEEF" stroke-width="0.5"/>
<path id="right-margin-Regular-M" d="M1508.39 1030.79V1150.12" stroke="#00AEEF" stroke-width="0.5"/>
<path id="left-margin-Medium-M" d="M1687.37 1030.79V1150.12" stroke="#00AEEF" stroke-width="0.5"/>
<path id="right-margin-Medium-M" d="M1805.74 1030.79V1150.12" stroke="#00AEEF" stroke-width="0.5"/>
<path id="left-margin-Semibold-M" d="M1983.6 1030.79V1150.12" stroke="#00AEEF" stroke-width="0.5"/>
<path id="right-margin-Semibold-M" d="M2102.94 1030.79V1150.12" stroke="#00AEEF" stroke-width="0.5"/>
<path id="left-margin-Bold-M" d="M2279.66 1030.79V1150.12" stroke="#00AEEF" stroke-width="0.5"/>
<path id="right-margin-Bold-M" d="M2400.29 1030.79V1150.12" stroke="#00AEEF" stroke-width="0.5"/>
<path id="left-margin-Heavy-M" d="M2575.44 1030.79V1150.12" stroke="#00AEEF" stroke-width="0.5"/>
<path id="right-margin-Heavy-M" d="M2697.94 1030.79V1150.12" stroke="#00AEEF" stroke-width="0.5"/>
<path id="left-margin-Black-M" d="M2871.32 1030.79V1150.12" stroke="#00AEEF" stroke-width="0.5"/>
<path id="right-margin-Black-M" d="M2995.48 1030.79V1150.12" stroke="#00AEEF" stroke-width="0.5"/>
<path id="left-margin-Ultralight-L" d="M487.603 1460.79V1580.12" stroke="#00AEEF" stroke-width="0.5"/>
<path id="right-margin-Ultralight-L" d="M631.819 1460.79V1580.12" stroke="#00AEEF" stroke-width="0.5"/>
<path id="left-margin-Thin-L" d="M783.689 1460.79V1580.12" stroke="#00AEEF" stroke-width="0.5"/>
<path id="right-margin-Thin-L" d="M929.156 1460.79V1580.12" stroke="#00AEEF" stroke-width="0.5"/>
<path id="left-margin-Light-L" d="M1079.18 1460.79V1580.12" stroke="#00AEEF" stroke-width="0.5"/>
<path id="right-margin-Light-L" d="M1227.09 1460.79V1580.12" stroke="#00AEEF" stroke-width="0.5"/>
<path id="left-margin-Regular-L" d="M1374.97 1460.79V1580.12" stroke="#00AEEF" stroke-width="0.5"/>
<path id="right-margin-Regular-L" d="M1524.72 1460.79V1580.12" stroke="#00AEEF" stroke-width="0.5"/>
<path id="left-margin-Medium-L" d="M1670.87 1460.79V1580.12" stroke="#00AEEF" stroke-width="0.5"/>
<path id="right-margin-Medium-L" d="M1822.24 1460.79V1580.12" stroke="#00AEEF" stroke-width="0.5"/>
<path id="left-margin-Semibold-L" d="M1966.97 1460.79V1580.12" stroke="#00AEEF" stroke-width="0.5"/>
<path id="right-margin-Semibold-L" d="M2119.57 1460.79V1580.12" stroke="#00AEEF" stroke-width="0.5"/>
<path id="left-margin-Bold-L" d="M2262.87 1460.79V1580.12" stroke="#00AEEF" stroke-width="0.5"/>
<path id="right-margin-Bold-L" d="M2417.09 1460.79V1580.12" stroke="#00AEEF" stroke-width="0.5"/>
<path id="left-margin-Heavy-L" d="M2558.4 1460.79V1580.12" stroke="#00AEEF" stroke-width="0.5"/>
<path id="right-margin-Heavy-L" d="M2714.98 1460.79V1580.12" stroke="#00AEEF" stroke-width="0.5"/>
<path id="left-margin-Black-L" d="M2854.05 1460.79V1580.12" stroke="#00AEEF" stroke-width="0.5"/>
<path id="right-margin-Black-L" d="M3012.75 1460.79V1580.12" stroke="#00AEEF" stroke-width="0.5"/>
</g>
<g id="Symbols">
<g id="Black-L">
<path id="check.active.1_2" fill-rule="evenodd" clip-rule="evenodd" d="M2892.56 1452.73C2877.52 1452.73 2865.33 1464.92 2865.33 1479.95V1561.63C2865.33 1576.67 2877.52 1588.86 2892.56 1588.86H2974.24C2989.27 1588.86 3001.46 1576.67 3001.46 1561.63V1479.95C3001.46 1464.92 2989.27 1452.73 2974.24 1452.73H2892.56ZM2911.67 1518.7L2924.31 1536.08L2954.95 1489.81C2957.02 1486.67 2961.24 1485.82 2964.38 1487.89C2967.51 1489.97 2968.37 1494.19 2966.3 1497.32L2930.25 1551.78C2927.63 1555.74 2921.86 1555.86 2919.07 1552.02L2900.66 1526.7C2898.45 1523.66 2899.13 1519.41 2902.17 1517.19C2905.21 1514.98 2909.46 1515.66 2911.67 1518.7Z" fill="black"/>
</g>
<g id="Heavy-L">
<path id="check.active.1_3" fill-rule="evenodd" clip-rule="evenodd" d="M2596.48 1453.76C2581.68 1453.76 2569.68 1465.76 2569.68 1480.57V1560.98C2569.68 1575.79 2581.68 1587.79 2596.48 1587.79H2676.9C2691.7 1587.79 2703.7 1575.79 2703.7 1560.98V1480.57C2703.7 1465.76 2691.7 1453.76 2676.9 1453.76H2596.48ZM2615.31 1518.71L2627.75 1535.83L2657.91 1490.27C2659.95 1487.18 2664.11 1486.34 2667.19 1488.38C2670.28 1490.42 2671.13 1494.58 2669.08 1497.67L2633.6 1551.28C2631.02 1555.18 2625.34 1555.3 2622.59 1551.52L2604.47 1526.59C2602.29 1523.6 2602.95 1519.41 2605.95 1517.23C2608.94 1515.06 2613.13 1515.72 2615.31 1518.71Z" fill="black"/>
</g>
<g id="Bold-L">
<path id="check.active.1_4" fill-rule="evenodd" clip-rule="evenodd" d="M2300.48 1454.93C2285.94 1454.93 2274.15 1466.72 2274.15 1481.26V1560.26C2274.15 1574.8 2285.94 1586.59 2300.48 1586.59H2379.48C2394.02 1586.59 2405.81 1574.8 2405.81 1560.26V1481.26C2405.81 1466.72 2394.02 1454.93 2379.48 1454.93H2300.48ZM2318.97 1518.73L2331.2 1535.55L2360.82 1490.79C2362.83 1487.76 2366.92 1486.93 2369.95 1488.94C2372.98 1490.94 2373.81 1495.03 2371.8 1498.06L2336.94 1550.72C2334.41 1554.55 2328.83 1554.68 2326.13 1550.96L2308.32 1526.47C2306.19 1523.53 2306.84 1519.42 2309.78 1517.28C2312.72 1515.14 2316.83 1515.79 2318.97 1518.73Z" fill="black"/>
</g>
<g id="Semibold-L">
<path id="check.active.1_5" fill-rule="evenodd" clip-rule="evenodd" d="M2004.26 1455.72C1989.89 1455.72 1978.25 1467.37 1978.25 1481.73V1559.75C1978.25 1574.12 1989.89 1585.76 2004.26 1585.76H2082.28C2096.64 1585.76 2108.29 1574.12 2108.29 1559.75V1481.73C2108.29 1467.37 2096.64 1455.72 2082.28 1455.72H2004.26ZM2022.52 1518.74L2034.59 1535.35L2063.85 1491.15C2065.84 1488.15 2069.87 1487.33 2072.87 1489.31C2075.86 1491.29 2076.68 1495.33 2074.7 1498.32L2040.27 1550.34C2037.76 1554.12 2032.25 1554.24 2029.59 1550.57L2012 1526.39C2009.89 1523.48 2010.53 1519.42 2013.44 1517.31C2016.34 1515.19 2020.41 1515.84 2022.52 1518.74Z" fill="black"/>
</g>
<g id="Medium-L">
<path id="check.active.1_6" fill-rule="evenodd" clip-rule="evenodd" d="M1707.91 1456.33C1693.68 1456.33 1682.15 1467.86 1682.15 1482.09V1559.37C1682.15 1573.6 1693.68 1585.13 1707.91 1585.13H1785.19C1799.42 1585.13 1810.95 1573.6 1810.95 1559.37V1482.09C1810.95 1467.86 1799.42 1456.33 1785.19 1456.33H1707.91ZM1726 1518.75L1737.96 1535.2L1766.94 1491.41C1768.91 1488.45 1772.9 1487.64 1775.87 1489.6C1778.83 1491.56 1779.65 1495.56 1777.68 1498.52L1743.58 1550.05C1741.1 1553.79 1735.64 1553.91 1733 1550.28L1715.58 1526.32C1713.49 1523.45 1714.13 1519.42 1717 1517.33C1719.88 1515.23 1723.91 1515.87 1726 1518.75Z" fill="black"/>
</g>
<g id="Regular-L">
<path id="check.active.1_7" fill-rule="evenodd" clip-rule="evenodd" d="M1411.69 1457.12C1397.64 1457.12 1386.25 1468.51 1386.25 1482.56V1558.88C1386.25 1572.93 1397.64 1584.32 1411.69 1584.32H1488.01C1502.06 1584.32 1513.45 1572.93 1513.45 1558.88V1482.56C1513.45 1468.51 1502.06 1457.12 1488.01 1457.12H1411.69ZM1429.55 1518.76L1441.36 1535.01L1469.98 1491.77C1471.92 1488.84 1475.87 1488.04 1478.8 1489.98C1481.73 1491.92 1482.53 1495.86 1480.59 1498.79L1446.91 1549.67C1444.46 1553.37 1439.07 1553.49 1436.46 1549.9L1419.26 1526.24C1417.2 1523.4 1417.83 1519.42 1420.67 1517.36C1423.51 1515.29 1427.49 1515.92 1429.55 1518.76Z" fill="black"/>
</g>
<g id="Light-L">
<path id="check.active.1_8" fill-rule="evenodd" clip-rule="evenodd" d="M1115.53 1458.04C1101.68 1458.04 1090.46 1469.27 1090.46 1483.11V1558.32C1090.46 1572.17 1101.68 1583.39 1115.53 1583.39H1190.74C1204.59 1583.39 1215.81 1572.17 1215.81 1558.32V1483.11C1215.81 1469.27 1204.59 1458.04 1190.74 1458.04H1115.53ZM1133.13 1518.79L1144.77 1534.8L1172.98 1492.19C1174.89 1489.3 1178.78 1488.51 1181.66 1490.42C1184.55 1492.33 1185.34 1496.22 1183.43 1499.11L1150.24 1549.25C1147.83 1552.89 1142.52 1553.01 1139.94 1549.47L1122.99 1526.16C1120.96 1523.36 1121.58 1519.44 1124.38 1517.41C1127.18 1515.37 1131.1 1515.99 1133.13 1518.79Z" fill="black"/>
</g>
<g id="Thin-L">
<path id="check.active.1_9" fill-rule="evenodd" clip-rule="evenodd" d="M819.549 1459.27C805.973 1459.27 794.968 1470.27 794.968 1483.85V1557.59C794.968 1571.17 805.973 1582.17 819.549 1582.17H893.294C906.87 1582.17 917.875 1571.17 917.875 1557.59V1483.85C917.875 1470.27 906.87 1459.27 893.294 1459.27H819.549ZM836.811 1518.83L848.223 1534.53L875.879 1492.75C877.752 1489.92 881.565 1489.14 884.395 1491.01C887.225 1492.89 888.001 1496.7 886.128 1499.53L853.584 1548.69C851.218 1552.27 846.01 1552.38 843.489 1548.92L826.87 1526.06C824.874 1523.31 825.481 1519.47 828.226 1517.47C830.971 1515.48 834.815 1516.08 836.811 1518.83Z" fill="black"/>
</g>
<g id="Ultralight-L">
<path id="check.active.1_10" fill-rule="evenodd" clip-rule="evenodd" d="M523.213 1459.89C509.775 1459.89 498.882 1470.78 498.882 1484.22V1557.22C498.882 1570.65 509.775 1581.55 523.213 1581.55H596.208C609.646 1581.55 620.54 1570.65 620.54 1557.22V1484.22C620.54 1470.78 609.646 1459.89 596.208 1459.89H523.213ZM540.299 1518.85L551.595 1534.38L578.97 1493.03C580.824 1490.23 584.598 1489.46 587.4 1491.32C590.201 1493.17 590.969 1496.94 589.115 1499.75L556.902 1548.41C554.56 1551.95 549.405 1552.06 546.91 1548.63L530.459 1526C528.484 1523.28 529.085 1519.48 531.802 1517.5C534.519 1515.53 538.324 1516.13 540.299 1518.85Z" fill="black"/>
</g>
<g id="Black-M">
<path id="check.active.1_11" fill-rule="evenodd" clip-rule="evenodd" d="M2901.4 1037.47C2889.61 1037.47 2880.06 1047.02 2880.06 1058.8V1122.79C2880.06 1134.56 2889.61 1144.11 2901.4 1144.11H2965.41C2977.2 1144.11 2986.75 1134.56 2986.75 1122.79V1058.8C2986.75 1047.02 2977.2 1037.47 2965.41 1037.47H2901.4ZM2916.38 1089.15L2926.29 1102.77L2950.29 1066.52C2951.92 1064.07 2955.23 1063.39 2957.69 1065.02C2960.14 1066.64 2960.82 1069.95 2959.19 1072.41L2930.94 1115.06C2928.89 1118.17 2924.37 1118.27 2922.18 1115.26L2907.75 1095.42C2906.02 1093.04 2906.55 1089.71 2908.93 1087.97C2911.31 1086.24 2914.65 1086.77 2916.38 1089.15Z" fill="black"/>
</g>
<g id="Heavy-M">
<path id="check.active.1_12" fill-rule="evenodd" clip-rule="evenodd" d="M2605.18 1038.29C2593.58 1038.29 2584.18 1047.69 2584.18 1059.29V1122.27C2584.18 1133.87 2593.58 1143.27 2605.18 1143.27H2668.19C2679.79 1143.27 2689.2 1133.87 2689.2 1122.27V1059.29C2689.2 1047.69 2679.79 1038.29 2668.19 1038.29H2605.18ZM2619.93 1089.16L2629.68 1102.57L2653.31 1066.89C2654.92 1064.47 2658.17 1063.81 2660.59 1065.41C2663.01 1067.01 2663.67 1070.26 2662.07 1072.68L2634.26 1114.67C2632.24 1117.73 2627.79 1117.82 2625.64 1114.86L2611.44 1095.34C2609.73 1092.99 2610.25 1089.71 2612.6 1088.01C2614.94 1086.3 2618.23 1086.82 2619.93 1089.16Z" fill="black"/>
</g>
<g id="Bold-M">
<path id="check.active.1_13" fill-rule="evenodd" clip-rule="evenodd" d="M2309.03 1039.21C2297.64 1039.21 2288.4 1048.44 2288.4 1059.83V1121.71C2288.4 1133.1 2297.64 1142.33 2309.03 1142.33H2370.92C2382.31 1142.33 2391.55 1133.1 2391.55 1121.71V1059.83C2391.55 1048.44 2382.31 1039.21 2370.92 1039.21H2309.03ZM2323.52 1089.18L2333.09 1102.35L2356.3 1067.3C2357.88 1064.92 2361.08 1064.27 2363.45 1065.84C2365.83 1067.42 2366.48 1070.62 2364.9 1072.99L2337.59 1114.24C2335.61 1117.24 2331.24 1117.34 2329.12 1114.43L2315.17 1095.25C2313.5 1092.94 2314.01 1089.72 2316.31 1088.04C2318.62 1086.37 2321.84 1086.88 2323.52 1089.18Z" fill="black"/>
</g>
<g id="Semibold-M">
<path id="check.active.1_14" fill-rule="evenodd" clip-rule="evenodd" d="M2012.71 1039.84C2001.46 1039.84 1992.34 1048.96 1992.34 1060.21V1121.31C1992.34 1132.56 2001.46 1141.68 2012.71 1141.68H2073.83C2085.08 1141.68 2094.2 1132.56 2094.2 1121.31V1060.21C2094.2 1048.96 2085.08 1039.84 2073.83 1039.84H2012.71ZM2027.02 1089.19L2036.48 1102.2L2059.4 1067.58C2060.95 1065.23 2064.11 1064.59 2066.45 1066.14C2068.8 1067.7 2069.44 1070.86 2067.89 1073.2L2040.92 1113.94C2038.96 1116.9 2034.64 1117 2032.55 1114.12L2018.78 1095.18C2017.12 1092.91 2017.63 1089.72 2019.9 1088.07C2022.18 1086.41 2025.36 1086.92 2027.02 1089.19Z" fill="black"/>
</g>
<g id="Medium-M">
<path id="check.active.1_15" fill-rule="evenodd" clip-rule="evenodd" d="M1716.29 1040.32C1705.14 1040.32 1696.11 1049.35 1696.11 1060.49V1121.02C1696.11 1132.16 1705.14 1141.19 1716.29 1141.19H1776.82C1787.96 1141.19 1796.99 1132.16 1796.99 1121.02V1060.49C1796.99 1049.35 1787.96 1040.32 1776.82 1040.32H1716.29ZM1730.45 1089.2L1739.82 1102.08L1762.52 1067.79C1764.06 1065.47 1767.19 1064.84 1769.51 1066.37C1771.84 1067.91 1772.47 1071.04 1770.93 1073.36L1744.22 1113.71C1742.28 1116.65 1738.01 1116.74 1735.94 1113.89L1722.29 1095.13C1720.66 1092.88 1721.16 1089.73 1723.41 1088.09C1725.66 1086.45 1728.82 1086.95 1730.45 1089.2Z" fill="black"/>
</g>
<g id="Regular-M">
<path id="check.active.1_16" fill-rule="evenodd" clip-rule="evenodd" d="M1419.96 1040.94C1408.96 1040.94 1400.04 1049.86 1400.04 1060.86V1120.63C1400.04 1131.63 1408.96 1140.55 1419.96 1140.55H1479.73C1490.73 1140.55 1499.65 1131.63 1499.65 1120.63V1060.86C1499.65 1049.86 1490.73 1040.94 1479.73 1040.94H1419.96ZM1433.95 1089.21L1443.2 1101.93L1465.61 1068.08C1467.13 1065.78 1470.22 1065.15 1472.52 1066.67C1474.81 1068.19 1475.44 1071.28 1473.92 1073.57L1447.55 1113.42C1445.63 1116.31 1441.41 1116.41 1439.36 1113.6L1425.89 1095.07C1424.28 1092.85 1424.77 1089.73 1426.99 1088.11C1429.22 1086.5 1432.33 1086.99 1433.95 1089.21Z" fill="black"/>
</g>
<g id="Light-M">
<path id="check.active.1_17" fill-rule="evenodd" clip-rule="evenodd" d="M1123.74 1041.77C1112.92 1041.77 1104.15 1050.54 1104.15 1061.36V1120.13C1104.15 1130.95 1112.92 1139.72 1123.74 1139.72H1182.52C1193.34 1139.72 1202.11 1130.95 1202.11 1120.13V1061.36C1202.11 1050.54 1193.34 1041.77 1182.52 1041.77H1123.74ZM1137.5 1089.24L1146.59 1101.75L1168.64 1068.45C1170.13 1066.2 1173.17 1065.58 1175.42 1067.07C1177.68 1068.57 1178.3 1071.6 1176.8 1073.86L1150.87 1113.04C1148.98 1115.89 1144.83 1115.98 1142.82 1113.21L1129.58 1095C1127.98 1092.81 1128.47 1089.75 1130.66 1088.16C1132.84 1086.57 1135.91 1087.05 1137.5 1089.24Z" fill="black"/>
</g>
<g id="Thin-M">
<path id="check.active.1_18" fill-rule="evenodd" clip-rule="evenodd" d="M827.689 1042.87C817.109 1042.87 808.533 1051.44 808.533 1062.02V1119.47C808.533 1130.04 817.109 1138.61 827.689 1138.61H885.155C895.734 1138.61 904.31 1130.04 904.31 1119.47V1062.02C904.31 1051.44 895.734 1042.87 885.155 1042.87H827.689ZM841.14 1089.27L850.033 1101.5L871.584 1068.95C873.044 1066.75 876.015 1066.14 878.22 1067.6C880.426 1069.06 881.03 1072.03 879.57 1074.24L854.21 1112.53C852.366 1115.32 848.308 1115.41 846.344 1112.71L833.393 1094.9C831.838 1092.76 832.311 1089.77 834.45 1088.21C836.589 1086.66 839.584 1087.13 841.14 1089.27Z" fill="black"/>
</g>
<g id="Ultralight-M">
<path id="check.active.1_19" fill-rule="evenodd" clip-rule="evenodd" d="M531.313 1043.44C520.857 1043.44 512.381 1051.91 512.381 1062.36V1119.13C512.381 1129.58 520.857 1138.05 531.313 1138.05H588.109C598.565 1138.05 607.041 1129.58 607.041 1119.13V1062.36C607.041 1051.91 598.565 1043.44 588.109 1043.44H531.313ZM544.607 1089.29L553.396 1101.37L574.696 1069.21C576.139 1067.03 579.076 1066.43 581.255 1067.88C583.435 1069.32 584.032 1072.25 582.589 1074.43L557.525 1112.28C555.703 1115.03 551.692 1115.12 549.751 1112.45L536.951 1094.85C535.413 1092.74 535.881 1089.78 537.996 1088.24C540.11 1086.71 543.07 1087.17 544.607 1089.29Z" fill="black"/>
</g>
<g id="Black-S">
<path id="check.active.1_20" fill-rule="evenodd" clip-rule="evenodd" d="M2908.2 618.801C2898.93 618.801 2891.41 626.321 2891.41 635.598V685.988C2891.41 695.265 2898.93 702.785 2908.2 702.785H2958.59C2967.87 702.785 2975.39 695.265 2975.39 685.988V635.598C2975.39 626.321 2967.87 618.801 2958.59 618.801H2908.2ZM2920 659.5L2927.8 670.226L2946.69 641.678C2947.97 639.744 2950.58 639.214 2952.51 640.495C2954.45 641.775 2954.98 644.38 2953.7 646.314L2931.46 679.908C2929.84 682.351 2926.28 682.429 2924.56 680.059L2913.2 664.439C2911.84 662.563 2912.26 659.937 2914.13 658.573C2916.01 657.21 2918.63 657.625 2920 659.5Z" fill="black"/>
</g>
<g id="Heavy-S">
<path id="check.active.1_21" fill-rule="evenodd" clip-rule="evenodd" d="M2611.86 619.398C2602.72 619.398 2595.31 626.809 2595.31 635.951V685.609C2595.31 694.751 2602.72 702.161 2611.86 702.161H2661.53C2670.67 702.161 2678.08 694.751 2678.08 685.609V635.951C2678.08 626.809 2670.67 619.398 2661.53 619.398H2611.86ZM2623.49 659.506L2631.17 670.076L2649.8 641.943C2651.06 640.037 2653.63 639.515 2655.53 640.777C2657.44 642.038 2657.96 644.606 2656.7 646.511L2634.78 679.617C2633.19 682.024 2629.68 682.101 2627.98 679.766L2616.79 664.373C2615.45 662.524 2615.86 659.936 2617.7 658.593C2619.55 657.249 2622.14 657.658 2623.49 659.506Z" fill="black"/>
</g>
<g id="Bold-S">
<path id="check.active.1_22" fill-rule="evenodd" clip-rule="evenodd" d="M2315.55 620.07C2306.56 620.07 2299.27 627.359 2299.27 636.35V685.187C2299.27 694.178 2306.56 701.467 2315.55 701.467H2364.4C2373.4 701.467 2380.69 694.178 2380.69 685.187V636.35C2380.69 627.359 2373.4 620.07 2364.4 620.07H2315.55ZM2326.98 659.516L2334.54 669.911L2352.87 642.243C2354.11 640.369 2356.63 639.855 2358.51 641.096C2360.38 642.336 2360.9 644.861 2359.65 646.736L2338.1 679.294C2336.53 681.662 2333.08 681.738 2331.41 679.441L2320.4 664.302C2319.08 662.484 2319.48 659.939 2321.3 658.617C2323.12 657.296 2325.66 657.698 2326.98 659.516Z" fill="black"/>
</g>
<g id="Semibold-S">
<path id="check.active.1_23" fill-rule="evenodd" clip-rule="evenodd" d="M2019.12 620.531C2010.23 620.531 2003.03 627.735 2003.03 636.622V684.895C2003.03 693.781 2010.23 700.986 2019.12 700.986H2067.42C2076.31 700.986 2083.51 693.781 2083.51 684.895V636.622C2083.51 627.735 2076.31 620.531 2067.42 620.531H2019.12ZM2030.43 659.52L2037.9 669.795L2056.01 642.447C2057.24 640.595 2059.73 640.087 2061.59 641.313C2063.44 642.539 2063.95 645.035 2062.72 646.888L2041.41 679.07C2039.86 681.41 2036.45 681.485 2034.8 679.215L2023.92 664.251C2022.61 662.454 2023.01 659.938 2024.81 658.632C2026.6 657.326 2029.12 657.723 2030.43 659.52Z" fill="black"/>
</g>
<g id="Medium-S">
<path id="check.active.1_24" fill-rule="evenodd" clip-rule="evenodd" d="M1722.62 620.883C1713.81 620.883 1706.67 628.023 1706.67 636.831V684.675C1706.67 693.483 1713.81 700.623 1722.62 700.623H1770.49C1779.3 700.623 1786.45 693.483 1786.45 684.675V636.831C1786.45 628.023 1779.3 620.883 1770.49 620.883H1722.62ZM1733.83 659.526L1741.23 669.71L1759.19 642.604C1760.4 640.768 1762.88 640.265 1764.71 641.48C1766.55 642.696 1767.05 645.169 1765.84 647.006L1744.71 678.902C1743.18 681.221 1739.8 681.295 1738.16 679.045L1727.37 664.215C1726.08 662.434 1726.47 659.94 1728.25 658.645C1730.04 657.351 1732.53 657.745 1733.83 659.526Z" fill="black"/>
</g>
<g id="Regular-S">
<path id="check.active.1_25" fill-rule="evenodd" clip-rule="evenodd" d="M1426.19 621.34C1417.48 621.34 1410.42 628.397 1410.42 637.102V684.387C1410.42 693.092 1417.48 700.148 1426.19 700.148H1473.5C1482.21 700.148 1489.27 693.092 1489.27 684.387V637.102C1489.27 628.397 1482.21 621.34 1473.5 621.34H1426.19ZM1437.26 659.531L1444.58 669.596L1462.33 642.807C1463.53 640.993 1465.98 640.495 1467.79 641.697C1469.61 642.898 1470.11 645.343 1468.9 647.157L1448.02 678.681C1446.5 680.973 1443.16 681.046 1441.55 678.823L1430.88 664.166C1429.6 662.405 1429.99 659.941 1431.75 658.661C1433.51 657.382 1435.98 657.771 1437.26 659.531Z" fill="black"/>
</g>
<g id="Light-S">
<path id="check.active.1_26" fill-rule="evenodd" clip-rule="evenodd" d="M1129.91 622.066C1121.37 622.066 1114.44 628.993 1114.44 637.538V683.951C1114.44 692.496 1121.37 699.422 1129.91 699.422H1176.35C1184.9 699.422 1191.83 692.496 1191.83 683.951V637.538C1191.83 628.993 1184.9 622.066 1176.35 622.066H1129.91ZM1140.78 659.554L1147.97 669.433L1165.38 643.138C1166.56 641.357 1168.96 640.869 1170.74 642.048C1172.53 643.227 1173.01 645.627 1171.83 647.408L1151.34 678.351C1149.85 680.601 1146.57 680.672 1144.99 678.49L1134.52 664.103C1133.27 662.375 1133.65 659.956 1135.38 658.7C1137.11 657.444 1139.53 657.826 1140.78 659.554Z" fill="black"/>
</g>
<g id="Thin-S">
<path id="check.active.1_27" fill-rule="evenodd" clip-rule="evenodd" d="M833.788 623.027C825.454 623.027 818.698 629.782 818.698 638.114V683.374C818.698 691.706 825.454 698.461 833.788 698.461H879.056C887.39 698.461 894.145 691.706 894.145 683.374V638.114C894.145 629.782 887.39 623.027 879.056 623.027H833.788ZM844.384 659.583L851.389 669.217L868.366 643.575C869.516 641.839 871.856 641.363 873.593 642.512C875.331 643.662 875.807 646.002 874.657 647.739L854.68 677.913C853.227 680.107 850.031 680.177 848.483 678.049L838.281 664.019C837.056 662.334 837.429 659.975 839.114 658.75C840.799 657.525 843.158 657.898 844.384 659.583Z" fill="black"/>
</g>
<g id="Ultralight-S">
<path id="check.active.1_28" fill-rule="evenodd" clip-rule="evenodd" d="M537.375 623.52C529.151 623.52 522.484 630.186 522.484 638.409V683.079C522.484 691.302 529.151 697.969 537.375 697.969H582.047C590.271 697.969 596.937 691.302 596.937 683.079V638.409C596.937 630.186 590.271 623.52 582.047 623.52H537.375ZM547.831 659.598L554.744 669.107L571.497 643.8C572.632 642.085 574.942 641.615 576.656 642.75C578.371 643.885 578.84 646.195 577.706 647.909L557.992 677.689C556.558 679.854 553.404 679.923 551.877 677.823L541.809 663.976C540.6 662.313 540.968 659.985 542.631 658.776C544.294 657.568 546.622 657.935 547.831 659.598Z" fill="black"/>
</g>
</g>
</g>
</svg>
