<svg width="48" height="48" viewBox="0 0 48 48" fill="none" xmlns="http://www.w3.org/2000/svg">
<g clip-path="url(#clip0_323_635)">
<path fill-rule="evenodd" clip-rule="evenodd" d="M33.2305 39.6072L34.1993 35.5433L33.7266 34.9141C33.5118 34.5356 33.4649 34.2044 33.586 33.9206C33.8438 33.3056 34.3751 33.4191 34.8711 33.4191C35.3907 33.4191 36.0313 33.3008 36.1954 34.0862C36.2501 34.3511 36.1797 34.6255 36.0274 34.9093L35.5547 35.5386L36.5235 39.6024L34.879 41.1731L33.2305 39.6072ZM13.2579 30.7414C12.4454 29.6202 12.3751 28.4469 13.2579 27.2074C14.2774 27.5196 15.211 28.0542 16.0704 28.7781C16.2579 28.6787 16.4727 28.6409 16.6836 28.6551C17.5782 27.8886 18.7188 27.5764 19.7149 26.9992C20.9063 28.4043 20.7774 29.6959 19.6055 30.8975C18.9532 30.7177 18.3282 30.4339 17.7344 30.0696C17.7188 30.2541 17.6797 30.4575 17.6055 30.6799L17.9102 33.7455H15.4805L15.7852 30.6799C15.5938 30.292 15.5235 29.9608 15.5313 29.6817C14.8282 30.1926 14.0586 30.5238 13.2579 30.7414ZM10.0157 14.3677C9.66021 14.3866 9.38677 14.4765 9.20318 14.6231C9.09771 14.7083 9.01959 14.8171 8.96881 14.9496C8.91412 15.0962 8.88677 15.2713 8.89068 15.4747C8.90631 16.0708 9.16021 16.8467 9.66021 17.7408L9.66802 17.755L11.2813 20.8585C11.9297 22.1027 12.6055 23.3706 13.4493 24.3073C14.2579 25.2062 15.2422 25.8118 16.5391 25.8165C17.9454 25.8212 18.9766 25.192 19.8126 24.2411C20.6797 23.2571 21.3672 21.904 22.043 20.5604L23.8594 16.9365C24.1993 15.9998 24.3204 15.3753 24.2422 15.0063C24.1954 14.7887 23.9961 14.6799 23.6563 14.661C23.586 14.6562 23.5118 14.6562 23.4336 14.6562C23.3516 14.661 23.2696 14.6657 23.1797 14.6752C23.1329 14.6799 23.086 14.6752 23.0391 14.6657C22.879 14.6752 22.711 14.661 22.5391 14.6326L23.1602 11.2973C18.5469 12.1772 15.0938 8.02821 10.2149 10.4694L10.5665 14.4008C10.3751 14.4055 10.1876 14.4008 10.0157 14.3677ZM12.1563 28.2293C12.1251 28.2813 12.086 28.3286 12.043 28.3665C12.1954 29.8567 12.4102 31.768 12.6641 33.7455H3.07037C2.38287 33.7455 1.82427 34.5261 1.92974 35.4771L3.26177 47.7065H2.04302C0.92193 47.6024 0.351618 46.9022 0.253962 45.6817C0.308649 40.2174 -1.4062 33.6083 3.34771 30.4008C5.08599 29.2228 9.57427 28.8254 11.5313 27.2736C11.8165 26.6208 12.1329 25.4806 12.3321 24.7426C12.3165 24.7946 12.3711 24.5959 12.3594 24.6432L12.379 24.5723C11.6602 23.6355 11.0704 22.5332 10.5079 21.4451L8.89459 18.3416C8.30474 17.2772 8.00006 16.3026 7.98052 15.5031C7.97271 15.1293 8.02349 14.784 8.14068 14.4859C8.26177 14.1737 8.44537 13.9088 8.69537 13.7053C8.81256 13.6107 8.94146 13.5303 9.08599 13.464C8.98052 11.7798 8.94146 9.65565 9.01177 7.88155C9.04693 7.4605 9.11334 7.03945 9.21099 6.61839C9.80084 4.06369 11.6133 2.22336 13.6836 1.3576C14.6876 0.936549 14.3008 -0.0664083 15.3165 0.00455562C17.7227 0.165407 21.4376 2.04359 22.8633 4.03531C24.8633 6.82655 24.3477 10.2659 24.2813 13.6722C24.7266 13.8378 25.0157 14.1784 25.1329 14.7367C25.2618 15.3517 25.1211 16.2222 24.6915 17.4049C24.6836 17.4286 24.6758 17.4475 24.6641 17.4664L22.8282 21.1329C22.1211 22.5474 21.4024 23.962 20.4415 25.0501L20.3946 25.1021C20.4844 25.263 20.586 25.438 20.6915 25.6225C21.0118 26.1902 21.3751 26.8337 21.711 27.3399C23.7071 28.8443 28.1016 29.2464 29.8165 30.4102C30.2266 30.6894 30.586 31.0016 30.8985 31.347C31.1641 31.0631 31.418 30.7887 31.6211 30.5616C31.5274 30.4339 31.4336 30.3014 31.3399 30.1737L30.4571 28.9295L29.8008 28.9484L28.5508 28.9862C27.4766 27.4913 27.543 24.2742 27.6485 22.4197C28.1485 18.6917 29.3399 16.0046 31.2774 14.4528C32.5899 13.4025 33.3751 13.341 34.9102 13.341C36.2501 13.341 37.0704 13.3032 38.2149 14.2163C41.9376 17.1873 43.0938 24.1938 41.2735 28.9153H39.9727L39.8907 29.0335L39.7735 29.1991L39.2071 30.0223C38.9805 30.3487 38.754 30.6799 38.5079 30.9874C38.8204 31.3564 39.2422 31.8059 39.629 32.2174C39.8126 32.4114 39.9883 32.5959 40.1446 32.7662C45.9688 35.5764 47.2501 37.2133 47.961 46.3109C48.0938 47.9904 48.0782 47.9147 46.7501 47.9478C41.8321 48.0661 35.5626 47.9478 29.8907 47.9194L29.9141 47.7065L31.2461 35.4771C31.3516 34.5261 30.793 33.7455 30.1055 33.7455H29.6055H27.6368H20.7266C20.9571 31.7444 21.1251 29.8378 21.2071 28.3949C20.7696 27.8082 20.3008 26.9756 19.9024 26.2612C19.8126 26.1051 19.7266 25.949 19.6446 25.807C18.8008 26.493 17.7969 26.9141 16.5391 26.9141C15.1368 26.9093 14.0469 26.3274 13.1407 25.438C12.8868 26.3606 12.5157 27.6237 12.1563 28.2293ZM31.2852 31.8295C33.2579 34.5498 32.9493 38.8408 32.8711 42.7201L34.8751 46.7509L39.7579 36.9389L41.879 37.0004C41.3868 35.7988 40.8008 34.7248 40.1446 33.7172C39.9688 33.4995 39.6211 33.1305 39.2461 32.7331C38.8438 32.3073 38.4102 31.8437 38.086 31.4605C37.9532 31.5977 37.8165 31.7302 37.668 31.8484C37.0352 32.3736 36.2501 32.7237 35.1836 32.7189C34.1836 32.7189 33.4336 32.3783 32.8165 31.8816C32.5118 31.6355 32.2422 31.3517 31.9961 31.0536C31.7852 31.2902 31.5391 31.5551 31.2852 31.8295ZM16.4493 40.208C17.3985 40.208 18.1641 41.14 18.1641 42.2849C18.1641 43.4345 17.3946 44.3617 16.4493 44.3617C15.5001 44.3617 14.7344 43.4297 14.7344 42.2849C14.7344 41.14 15.5001 40.208 16.4493 40.208ZM30.6915 28.3712C29.6524 24.0613 30.1407 20.1015 32.9415 16.7142C33.4376 18.6539 34.5469 20.2529 36.4336 21.4357C37.336 22.2494 38.2071 23.2287 39.0547 24.3546C39.2032 23.6072 38.6329 22.6988 37.9415 21.7621C38.5821 22.1453 39.1719 22.6799 39.5899 23.716C40.0743 24.9129 40.0665 25.9253 39.9063 27.2263C39.8555 27.6284 39.7852 28.0069 39.6954 28.3712C39.668 28.3901 39.6407 28.4138 39.6211 28.4422C39.543 28.5557 39.4688 28.6645 39.3985 28.7639C39.3711 28.8017 39.3477 28.8348 39.2813 28.9342L38.711 29.7574C38.2774 30.3866 37.8399 31.0205 37.2813 31.4794C36.7461 31.9241 36.086 32.2174 35.1797 32.2174C34.3477 32.2174 33.7149 31.9289 33.1954 31.5125C32.6563 31.0773 32.2227 30.4812 31.8086 29.8993L30.7774 28.4469C30.754 28.4185 30.7227 28.3901 30.6915 28.3712Z" fill="#455A64"/>
</g>
<defs>
<clipPath id="clip0_323_635">
<rect width="48" height="48" fill="white"/>
</clipPath>
</defs>
</svg>
