<svg width="3300" height="2200" viewBox="0 0 3300 2200" fill="none" xmlns="http://www.w3.org/2000/svg">
<g id="check.all.1">
<g id="Notes">
<path id="artboard" d="M3300 0H0V2200H3300V0Z" fill="white"/>
<path id="Vector" d="M263 292H3036" stroke="black" stroke-width="0.5"/>
<text id="Weight/Scale Variations" fill="black" xml:space="preserve" style="white-space: pre" font-family="Roboto" font-size="13" font-weight="bold" letter-spacing="0em"><tspan x="263" y="320.943">Weight/Scale Variations</tspan></text>
<text id="Ultralight" fill="black" xml:space="preserve" style="white-space: pre" font-family="Roboto" font-size="13" letter-spacing="0em"><tspan x="533.211" y="320.943">Ultralight</tspan></text>
<text id="Thin" fill="black" xml:space="preserve" style="white-space: pre" font-family="Roboto" font-size="13" letter-spacing="0em"><tspan x="843.422" y="320.943">Thin</tspan></text>
<text id="Light" fill="black" xml:space="preserve" style="white-space: pre" font-family="Roboto" font-size="13" letter-spacing="0em"><tspan x="1138.63" y="320.943">Light</tspan></text>
<text id="Regular" fill="black" xml:space="preserve" style="white-space: pre" font-family="Roboto" font-size="13" letter-spacing="0em"><tspan x="1427.34" y="320.943">Regular</tspan></text>
<text id="Medium" fill="black" xml:space="preserve" style="white-space: pre" font-family="Roboto" font-size="13" letter-spacing="0em"><tspan x="1722.56" y="320.943">Medium</tspan></text>
<text id="Semibold" fill="black" xml:space="preserve" style="white-space: pre" font-family="Roboto" font-size="13" letter-spacing="0em"><tspan x="2015.77" y="320.943">Semibold</tspan></text>
<text id="Bold" fill="black" xml:space="preserve" style="white-space: pre" font-family="Roboto" font-size="13" letter-spacing="0em"><tspan x="2326.48" y="320.943">Bold</tspan></text>
<text id="Heavy" fill="black" xml:space="preserve" style="white-space: pre" font-family="Roboto" font-size="13" letter-spacing="0em"><tspan x="2618.69" y="320.943">Heavy</tspan></text>
<text id="Black" fill="black" xml:space="preserve" style="white-space: pre" font-family="Roboto" font-size="13" letter-spacing="0em"><tspan x="2917.4" y="320.943">Black</tspan></text>
<path id="Vector_2" d="M263 1903H3036" stroke="black" stroke-width="0.5"/>
<g id="Group">
<path id="Vector_3" d="M272.248 1933.83C273.329 1933.83 274.344 1933.63 275.295 1933.22C276.245 1932.81 277.084 1932.24 277.81 1931.51C278.535 1930.78 279.105 1929.94 279.519 1928.99C279.932 1928.04 280.139 1927.03 280.139 1925.95C280.139 1924.88 279.932 1923.86 279.519 1922.91C279.105 1921.96 278.534 1921.12 277.805 1920.39C277.075 1919.67 276.236 1919.1 275.285 1918.69C274.335 1918.28 273.319 1918.07 272.238 1918.07C271.164 1918.07 270.152 1918.28 269.201 1918.69C268.251 1919.1 267.414 1919.67 266.691 1920.39C265.969 1921.12 265.401 1921.96 264.987 1922.91C264.574 1923.86 264.367 1924.88 264.367 1925.95C264.367 1927.03 264.574 1928.04 264.987 1928.99C265.401 1929.94 265.97 1930.78 266.696 1931.51C267.422 1932.24 268.26 1932.81 269.211 1933.22C270.161 1933.63 271.174 1933.83 272.248 1933.83ZM272.248 1932.35C271.363 1932.35 270.534 1932.18 269.763 1931.85C268.991 1931.53 268.314 1931.07 267.731 1930.48C267.149 1929.9 266.693 1929.22 266.364 1928.44C266.035 1927.67 265.871 1926.84 265.871 1925.95C265.871 1925.07 266.034 1924.24 266.359 1923.46C266.685 1922.69 267.139 1922.01 267.722 1921.42C268.304 1920.83 268.981 1920.38 269.753 1920.05C270.524 1919.72 271.353 1919.55 272.238 1919.55C273.13 1919.55 273.962 1919.72 274.733 1920.05C275.505 1920.38 276.184 1920.83 276.769 1921.42C277.355 1922.01 277.814 1922.69 278.146 1923.46C278.478 1924.24 278.644 1925.07 278.644 1925.95C278.644 1926.84 278.48 1927.67 278.151 1928.44C277.823 1929.22 277.367 1929.9 276.784 1930.48C276.202 1931.07 275.523 1931.53 274.748 1931.85C273.973 1932.18 273.14 1932.35 272.248 1932.35ZM268.654 1925.95C268.654 1926.17 268.723 1926.34 268.859 1926.47C268.996 1926.61 269.178 1926.67 269.406 1926.67H271.516V1928.79C271.516 1929.01 271.581 1929.19 271.711 1929.33C271.841 1929.47 272.017 1929.54 272.238 1929.54C272.453 1929.54 272.631 1929.47 272.771 1929.33C272.91 1929.19 272.98 1929.01 272.98 1928.79V1926.67H275.09C275.311 1926.67 275.49 1926.61 275.627 1926.47C275.764 1926.34 275.832 1926.17 275.832 1925.95C275.832 1925.73 275.764 1925.55 275.627 1925.41C275.49 1925.28 275.311 1925.21 275.09 1925.21H272.98V1923.1C272.98 1922.88 272.91 1922.7 272.771 1922.56C272.631 1922.42 272.453 1922.35 272.238 1922.35C272.017 1922.35 271.841 1922.42 271.711 1922.56C271.581 1922.7 271.516 1922.88 271.516 1923.1V1925.21H269.406C269.178 1925.21 268.996 1925.28 268.859 1925.41C268.723 1925.55 268.654 1925.73 268.654 1925.95Z" fill="black"/>
</g>
<g id="Group_2">
<path id="Vector_4" d="M293.576 1935.91C294.937 1935.91 296.218 1935.65 297.419 1935.13C298.62 1934.61 299.68 1933.89 300.598 1932.97C301.516 1932.05 302.235 1930.99 302.756 1929.79C303.277 1928.59 303.537 1927.31 303.537 1925.95C303.537 1924.59 303.277 1923.31 302.756 1922.11C302.235 1920.91 301.516 1919.85 300.598 1918.93C299.68 1918.01 298.618 1917.29 297.414 1916.77C296.21 1916.25 294.927 1915.99 293.566 1915.99C292.206 1915.99 290.925 1916.25 289.724 1916.77C288.522 1917.29 287.465 1918.01 286.55 1918.93C285.635 1919.85 284.917 1920.91 284.396 1922.11C283.876 1923.31 283.615 1924.59 283.615 1925.95C283.615 1927.31 283.876 1928.59 284.396 1929.79C284.917 1930.99 285.637 1932.05 286.555 1932.97C287.473 1933.89 288.532 1934.61 289.733 1935.13C290.935 1935.65 292.215 1935.91 293.576 1935.91ZM293.576 1934.25C292.424 1934.25 291.346 1934.04 290.344 1933.61C289.341 1933.18 288.461 1932.58 287.702 1931.82C286.944 1931.06 286.351 1930.18 285.925 1929.18C285.498 1928.18 285.285 1927.1 285.285 1925.95C285.285 1924.8 285.498 1923.72 285.925 1922.72C286.351 1921.71 286.942 1920.83 287.697 1920.07C288.452 1919.31 289.331 1918.71 290.334 1918.29C291.337 1917.86 292.414 1917.65 293.566 1917.65C294.719 1917.65 295.796 1917.86 296.799 1918.29C297.801 1918.71 298.684 1919.31 299.445 1920.07C300.207 1920.83 300.803 1921.71 301.232 1922.72C301.662 1923.72 301.877 1924.8 301.877 1925.95C301.877 1927.1 301.664 1928.18 301.237 1929.18C300.811 1930.18 300.218 1931.06 299.46 1931.82C298.702 1932.58 297.819 1933.18 296.813 1933.61C295.808 1934.04 294.729 1934.25 293.576 1934.25ZM289.045 1925.95C289.045 1926.18 289.123 1926.38 289.279 1926.53C289.436 1926.68 289.637 1926.75 289.885 1926.75H292.756V1929.63C292.756 1929.88 292.831 1930.08 292.98 1930.23C293.13 1930.38 293.322 1930.46 293.557 1930.46C293.804 1930.46 294.004 1930.38 294.157 1930.23C294.31 1930.08 294.387 1929.88 294.387 1929.63V1926.75H297.268C297.515 1926.75 297.715 1926.68 297.868 1926.53C298.021 1926.38 298.098 1926.18 298.098 1925.95C298.098 1925.7 298.021 1925.5 297.868 1925.35C297.715 1925.2 297.515 1925.12 297.268 1925.12H294.387V1922.25C294.387 1921.99 294.31 1921.79 294.157 1921.64C294.004 1921.48 293.804 1921.41 293.557 1921.41C293.322 1921.41 293.13 1921.49 292.98 1921.64C292.831 1921.8 292.756 1922 292.756 1922.25V1925.12H289.885C289.631 1925.12 289.427 1925.2 289.274 1925.35C289.121 1925.5 289.045 1925.7 289.045 1925.95Z" fill="black"/>
</g>
<g id="Group_3">
<path id="Vector_5" d="M320.617 1938.67C322.01 1938.67 323.34 1938.45 324.606 1938.02C325.872 1937.58 327.036 1936.98 328.097 1936.2C329.158 1935.41 330.081 1934.49 330.866 1933.43C331.65 1932.37 332.259 1931.21 332.692 1929.94C333.125 1928.67 333.341 1927.34 333.341 1925.95C333.341 1924.56 333.125 1923.23 332.692 1921.96C332.259 1920.7 331.65 1919.53 330.866 1918.47C330.081 1917.41 329.158 1916.49 328.097 1915.7C327.036 1914.92 325.871 1914.31 324.601 1913.88C323.332 1913.44 322 1913.23 320.607 1913.23C319.214 1913.23 317.884 1913.44 316.618 1913.88C315.351 1914.31 314.189 1914.92 313.131 1915.7C312.073 1916.49 311.152 1917.41 310.368 1918.47C309.583 1919.53 308.976 1920.7 308.546 1921.96C308.117 1923.23 307.902 1924.56 307.902 1925.95C307.902 1927.34 308.118 1928.67 308.551 1929.94C308.984 1931.21 309.591 1932.37 310.373 1933.43C311.154 1934.49 312.075 1935.41 313.136 1936.2C314.197 1936.98 315.361 1937.58 316.627 1938.02C317.894 1938.45 319.223 1938.67 320.617 1938.67ZM320.617 1936.85C319.412 1936.85 318.265 1936.67 317.174 1936.3C316.084 1935.93 315.086 1935.41 314.181 1934.75C313.276 1934.09 312.49 1933.3 311.823 1932.39C311.155 1931.48 310.639 1930.48 310.275 1929.39C309.91 1928.3 309.728 1927.16 309.728 1925.95C309.728 1924.74 309.91 1923.59 310.275 1922.5C310.639 1921.41 311.154 1920.41 311.818 1919.5C312.482 1918.59 313.266 1917.81 314.171 1917.14C315.076 1916.48 316.074 1915.96 317.165 1915.6C318.255 1915.24 319.402 1915.05 320.607 1915.05C321.818 1915.05 322.969 1915.24 324.059 1915.6C325.15 1915.96 326.149 1916.48 327.057 1917.14C327.965 1917.81 328.751 1918.59 329.415 1919.5C330.08 1920.41 330.596 1921.41 330.963 1922.5C331.331 1923.59 331.515 1924.74 331.515 1925.95C331.522 1927.16 331.343 1928.3 330.978 1929.39C330.613 1930.48 330.098 1931.48 329.43 1932.39C328.763 1933.3 327.975 1934.09 327.067 1934.75C326.159 1935.41 325.159 1935.93 324.069 1936.3C322.978 1936.67 321.828 1936.85 320.617 1936.85ZM314.845 1925.95C314.845 1926.21 314.931 1926.42 315.104 1926.58C315.277 1926.75 315.496 1926.83 315.763 1926.83H319.708V1930.79C319.708 1931.05 319.791 1931.27 319.957 1931.44C320.123 1931.62 320.337 1931.7 320.597 1931.7C320.864 1931.7 321.084 1931.62 321.256 1931.45C321.429 1931.28 321.515 1931.06 321.515 1930.79V1926.83H325.47C325.737 1926.83 325.955 1926.75 326.124 1926.58C326.294 1926.42 326.378 1926.21 326.378 1925.95C326.378 1925.68 326.294 1925.46 326.124 1925.29C325.955 1925.12 325.737 1925.03 325.47 1925.03H321.515V1921.09C321.515 1920.81 321.429 1920.59 321.256 1920.42C321.084 1920.25 320.864 1920.16 320.597 1920.16C320.337 1920.16 320.123 1920.25 319.957 1920.42C319.791 1920.59 319.708 1920.81 319.708 1921.09V1925.03H315.763C315.49 1925.03 315.268 1925.12 315.099 1925.29C314.93 1925.46 314.845 1925.68 314.845 1925.95Z" fill="black"/>
</g>
<text id="Design Variations" fill="black" xml:space="preserve" style="white-space: pre" font-family="Roboto" font-size="13" font-weight="bold" letter-spacing="0em"><tspan x="263" y="1951.94">Design Variations</tspan></text>
<text id="Symbols are supported in up to nine weights and three scales." fill="black" xml:space="preserve" style="white-space: pre" font-family="Roboto" font-size="13" letter-spacing="0em"><tspan x="263" y="1969.94">Symbols are supported in up to nine weights and three scales.</tspan></text>
<text id="For optimal layout with text and other symbols, vertically align" fill="black" xml:space="preserve" style="white-space: pre" font-family="Roboto" font-size="13" letter-spacing="0em"><tspan x="263" y="1987.94">For optimal layout with text and other symbols, vertically align</tspan></text>
<text id="symbols with the adjacent text." fill="black" xml:space="preserve" style="white-space: pre" font-family="Roboto" font-size="13" letter-spacing="0em"><tspan x="263" y="2005.94">symbols with the adjacent text.</tspan></text>
<path id="Vector_6" d="M776 1919V1933" stroke="#00AEEF" stroke-width="0.5"/>
<g id="Group_4">
<path id="Vector_7" d="M779.311 1933.16C779.571 1933.16 779.773 1933.1 779.916 1932.99C780.059 1932.88 780.176 1932.69 780.268 1932.42L781.527 1928.97H787.289L788.549 1932.42C788.64 1932.69 788.757 1932.88 788.9 1932.99C789.044 1933.1 789.242 1933.16 789.496 1933.16C789.757 1933.16 789.963 1933.09 790.116 1932.94C790.269 1932.8 790.346 1932.6 790.346 1932.36C790.346 1932.21 790.31 1932.03 790.238 1931.83L785.658 1919.63C785.541 1919.33 785.382 1919.11 785.18 1918.96C784.978 1918.81 784.721 1918.73 784.408 1918.73C783.803 1918.73 783.393 1919.03 783.178 1919.62L778.598 1931.84C778.526 1932.04 778.49 1932.22 778.49 1932.37C778.49 1932.61 778.563 1932.81 778.71 1932.95C778.856 1933.09 779.057 1933.16 779.311 1933.16ZM782.006 1927.48L784.379 1920.91H784.428L786.801 1927.48H782.006Z" fill="black"/>
</g>
<path id="Vector_8" d="M793.197 1919V1933" stroke="#00AEEF" stroke-width="0.5"/>
<text id="Margins" fill="black" xml:space="preserve" style="white-space: pre" font-family="Roboto" font-size="13" font-weight="bold" letter-spacing="0em"><tspan x="776" y="1951.94">Margins</tspan></text>
<text id="Leading and trailing margins on the left and right side of each symbol" fill="black" xml:space="preserve" style="white-space: pre" font-family="Roboto" font-size="13" letter-spacing="0em"><tspan x="776" y="1969.94">Leading and trailing margins on the left and right side of each symbol</tspan></text>
<text id="can be adjusted by modifying the x-location of the margin guidelines." fill="black" xml:space="preserve" style="white-space: pre" font-family="Roboto" font-size="13" letter-spacing="0em"><tspan x="776" y="1987.94">can be adjusted by modifying the x-location of the margin guidelines.</tspan></text>
<text id="Modifications are automatically applied proportionally to all" fill="black" xml:space="preserve" style="white-space: pre" font-family="Roboto" font-size="13" letter-spacing="0em"><tspan x="776" y="2005.94">Modifications are automatically applied proportionally to all</tspan></text>
<text id="scales and weights." fill="black" xml:space="preserve" style="white-space: pre" font-family="Roboto" font-size="13" letter-spacing="0em"><tspan x="776" y="2023.94">scales and weights.</tspan></text>
<g id="Group_5">
<path id="Vector_9" d="M1291.84 1934.86L1293.54 1936.57C1293.97 1937.01 1294.43 1937.21 1294.9 1937.18C1295.38 1937.15 1295.85 1936.87 1296.31 1936.36L1307.01 1924.57L1306.04 1923.59L1295.43 1935.27C1295.25 1935.48 1295.07 1935.59 1294.89 1935.62C1294.71 1935.64 1294.51 1935.54 1294.27 1935.3L1293.1 1934.14C1292.87 1933.91 1292.76 1933.7 1292.79 1933.52C1292.82 1933.34 1292.94 1933.16 1293.14 1932.98L1304.62 1922.18L1303.64 1921.21L1292.05 1932.1C1291.55 1932.56 1291.29 1933.02 1291.25 1933.5C1291.22 1933.97 1291.41 1934.43 1291.84 1934.86ZM1298.26 1916.67C1298.05 1916.87 1297.93 1917.1 1297.91 1917.36C1297.88 1917.62 1297.93 1917.85 1298.04 1918.05C1298.16 1918.23 1298.33 1918.37 1298.56 1918.46C1298.78 1918.55 1299.06 1918.55 1299.38 1918.48C1300.11 1918.31 1300.85 1918.24 1301.6 1918.27C1302.35 1918.3 1303.08 1918.54 1303.8 1919.01L1303.21 1920.47C1303.04 1920.89 1302.99 1921.25 1303.07 1921.56C1303.14 1921.87 1303.31 1922.16 1303.58 1922.43L1305.88 1924.75C1306.12 1924.99 1306.35 1925.14 1306.58 1925.18C1306.81 1925.21 1307.06 1925.21 1307.34 1925.16L1308.4 1924.96L1309.07 1925.63L1309.03 1926.19C1309.01 1926.44 1309.04 1926.67 1309.12 1926.88C1309.2 1927.08 1309.36 1927.31 1309.61 1927.55L1310.37 1928.29C1310.61 1928.53 1310.87 1928.66 1311.15 1928.67C1311.44 1928.68 1311.7 1928.56 1311.93 1928.33L1314.84 1925.41C1315.07 1925.18 1315.19 1924.92 1315.18 1924.64C1315.18 1924.37 1315.05 1924.11 1314.81 1923.87L1314.04 1923.11C1313.8 1922.86 1313.59 1922.7 1313.38 1922.61C1313.18 1922.52 1312.95 1922.49 1312.71 1922.51L1312.14 1922.56L1311.49 1921.92L1311.73 1920.8C1311.8 1920.52 1311.79 1920.26 1311.7 1920.01C1311.6 1919.77 1311.41 1919.5 1311.12 1919.21L1308.92 1917.02C1308.09 1916.19 1307.2 1915.57 1306.26 1915.16C1305.32 1914.75 1304.37 1914.53 1303.42 1914.52C1302.47 1914.5 1301.55 1914.67 1300.67 1915.04C1299.78 1915.4 1298.98 1915.95 1298.26 1916.67ZM1299.75 1917.04C1300.36 1916.6 1301.01 1916.28 1301.7 1916.09C1302.39 1915.9 1303.1 1915.84 1303.8 1915.91C1304.51 1915.98 1305.2 1916.17 1305.87 1916.48C1306.54 1916.8 1307.15 1917.23 1307.7 1917.79L1310.13 1920.21C1310.25 1920.32 1310.32 1920.44 1310.35 1920.55C1310.38 1920.66 1310.38 1920.8 1310.34 1920.97L1310.02 1922.45L1311.52 1923.94L1312.51 1923.88C1312.63 1923.87 1312.72 1923.88 1312.79 1923.9C1312.85 1923.92 1312.94 1923.98 1313.03 1924.08L1313.61 1924.66L1311.17 1927.1L1310.59 1926.52C1310.49 1926.43 1310.43 1926.34 1310.41 1926.28C1310.38 1926.21 1310.37 1926.12 1310.38 1925.99L1310.45 1925.01L1308.95 1923.53L1307.43 1923.78C1307.27 1923.81 1307.14 1923.82 1307.04 1923.79C1306.95 1923.77 1306.84 1923.7 1306.72 1923.58L1304.71 1921.58C1304.58 1921.46 1304.51 1921.35 1304.49 1921.25C1304.48 1921.14 1304.51 1920.99 1304.59 1920.81L1305.47 1918.72C1304.68 1917.99 1303.8 1917.49 1302.83 1917.21C1301.85 1916.93 1300.86 1916.94 1299.84 1917.24C1299.76 1917.26 1299.71 1917.24 1299.69 1917.19C1299.67 1917.14 1299.69 1917.09 1299.75 1917.04Z" fill="black"/>
</g>
<text id="Exporting" fill="black" xml:space="preserve" style="white-space: pre" font-family="Roboto" font-size="13" font-weight="bold" letter-spacing="0em"><tspan x="1289" y="1951.94">Exporting</tspan></text>
<text id="Symbols should be outlined when exporting to ensure the" fill="black" xml:space="preserve" style="white-space: pre" font-family="Roboto" font-size="13" letter-spacing="0em"><tspan x="1289" y="1969.94">Symbols should be outlined when exporting to ensure the</tspan></text>
<text id="design is preserved when submitting to Xcode." fill="black" xml:space="preserve" style="white-space: pre" font-family="Roboto" font-size="13" letter-spacing="0em"><tspan x="1289" y="1987.94">design is preserved when submitting to Xcode.</tspan></text>
<text id="template-version" fill="black" xml:space="preserve" style="white-space: pre" font-family="Roboto" font-size="13" letter-spacing="0em"><tspan x="2951" y="1931.94">Template v.3.0</tspan></text>
<text id="Requires Xcode 13 or greater" fill="black" xml:space="preserve" style="white-space: pre" font-family="Roboto" font-size="13" letter-spacing="0em"><tspan x="2868" y="1949.94">Requires Xcode 13 or greater</tspan></text>
<text id="descriptive-name" fill="black" xml:space="preserve" style="white-space: pre" font-family="Roboto" font-size="13" letter-spacing="0em"><tspan x="2911" y="1967.94">Generated from circle</tspan></text>
<text id="Typeset at 100 points" fill="black" xml:space="preserve" style="white-space: pre" font-family="Roboto" font-size="13" letter-spacing="0em"><tspan x="2911" y="1985.94">Typeset at 100 points</tspan></text>
<text id="Small" fill="black" xml:space="preserve" style="white-space: pre" font-family="Roboto" font-size="13" letter-spacing="0em"><tspan x="263" y="724.943">Small</tspan></text>
<text id="Medium_2" fill="black" xml:space="preserve" style="white-space: pre" font-family="Roboto" font-size="13" letter-spacing="0em"><tspan x="263" y="1154.94">Medium</tspan></text>
<text id="Large" fill="black" xml:space="preserve" style="white-space: pre" font-family="Roboto" font-size="13" letter-spacing="0em"><tspan x="263" y="1584.94">Large</tspan></text>
</g>
<g id="Guides">
<g id="H-reference">
<path id="Vector_10" d="M339.993 696.002H342.638L368.328 628.869H369.03V625.543H367.123L339.993 696.002ZM350.688 671.522H385.982L385.231 669.273H351.438L350.688 671.522ZM394.119 696.002H396.764L369.638 625.543H368.433V628.869L394.119 696.002Z" fill="#27AAE1"/>
</g>
<path id="Baseline-S" d="M263 696H3036" stroke="#27AAE1" stroke-width="0.5"/>
<path id="Capline-S" d="M263 625.543H3036" stroke="#27AAE1" stroke-width="0.5"/>
<g id="H-reference_2">
<path id="Vector_11" d="M339.993 1126H342.638L368.328 1058.87H369.03V1055.54H367.123L339.993 1126ZM350.688 1101.52H385.982L385.231 1099.27H351.438L350.688 1101.52ZM394.119 1126H396.764L369.638 1055.54H368.433V1058.87L394.119 1126Z" fill="#27AAE1"/>
</g>
<path id="Baseline-M" d="M263 1126H3036" stroke="#27AAE1" stroke-width="0.5"/>
<path id="Capline-M" d="M263 1055.54H3036" stroke="#27AAE1" stroke-width="0.5"/>
<g id="H-reference_3">
<path id="Vector_12" d="M339.993 1556H342.638L368.328 1488.87H369.03V1485.54H367.123L339.993 1556ZM350.688 1531.52H385.982L385.231 1529.27H351.438L350.688 1531.52ZM394.119 1556H396.764L369.638 1485.54H368.433V1488.87L394.119 1556Z" fill="#27AAE1"/>
</g>
<path id="Baseline-L" d="M263 1556H3036" stroke="#27AAE1" stroke-width="0.5"/>
<path id="Capline-L" d="M263 1485.54H3036" stroke="#27AAE1" stroke-width="0.5"/>
<path id="left-margin-Ultralight-S" d="M515.649 600.785V720.121" stroke="#00AEEF" stroke-width="0.5"/>
<path id="right-margin-Ultralight-S" d="M603.773 600.785V720.121" stroke="#00AEEF" stroke-width="0.5"/>
<path id="left-margin-Thin-S" d="M811.863 600.785V720.121" stroke="#00AEEF" stroke-width="0.5"/>
<path id="right-margin-Thin-S" d="M900.982 600.785V720.121" stroke="#00AEEF" stroke-width="0.5"/>
<path id="left-margin-Light-S" d="M1107.6 600.785V720.121" stroke="#00AEEF" stroke-width="0.5"/>
<path id="right-margin-Light-S" d="M1198.66 600.785V720.121" stroke="#00AEEF" stroke-width="0.5"/>
<path id="left-margin-Regular-S" d="M1403.58 600.785V720.121" stroke="#00AEEF" stroke-width="0.5"/>
<path id="right-margin-Regular-S" d="M1496.11 600.785V720.121" stroke="#00AEEF" stroke-width="0.5"/>
<path id="left-margin-Medium-S" d="M1699.83 600.785V720.121" stroke="#00AEEF" stroke-width="0.5"/>
<path id="right-margin-Medium-S" d="M1793.28 600.785V720.121" stroke="#00AEEF" stroke-width="0.5"/>
<path id="left-margin-Semibold-S" d="M1996.19 600.785V720.121" stroke="#00AEEF" stroke-width="0.5"/>
<path id="right-margin-Semibold-S" d="M2090.35 600.785V720.121" stroke="#00AEEF" stroke-width="0.5"/>
<path id="left-margin-Bold-S" d="M2292.43 600.785V720.121" stroke="#00AEEF" stroke-width="0.5"/>
<path id="right-margin-Bold-S" d="M2387.52 600.785V720.121" stroke="#00AEEF" stroke-width="0.5"/>
<path id="left-margin-Heavy-S" d="M2588.47 600.785V720.121" stroke="#00AEEF" stroke-width="0.5"/>
<path id="right-margin-Heavy-S" d="M2684.91 600.785V720.121" stroke="#00AEEF" stroke-width="0.5"/>
<path id="left-margin-Black-S" d="M2884.57 600.785V720.121" stroke="#00AEEF" stroke-width="0.5"/>
<path id="right-margin-Black-S" d="M2982.23 600.785V720.121" stroke="#00AEEF" stroke-width="0.5"/>
<path id="left-margin-Ultralight-M" d="M503.641 1030.79V1150.12" stroke="#00AEEF" stroke-width="0.5"/>
<path id="right-margin-Ultralight-M" d="M615.781 1030.79V1150.12" stroke="#00AEEF" stroke-width="0.5"/>
<path id="left-margin-Thin-M" d="M799.793 1030.79V1150.12" stroke="#00AEEF" stroke-width="0.5"/>
<path id="right-margin-Thin-M" d="M913.051 1030.79V1150.12" stroke="#00AEEF" stroke-width="0.5"/>
<path id="left-margin-Light-M" d="M1095.41 1030.79V1150.12" stroke="#00AEEF" stroke-width="0.5"/>
<path id="right-margin-Light-M" d="M1210.85 1030.79V1150.12" stroke="#00AEEF" stroke-width="0.5"/>
<path id="left-margin-Regular-M" d="M1391.3 1030.79V1150.12" stroke="#00AEEF" stroke-width="0.5"/>
<path id="right-margin-Regular-M" d="M1508.39 1030.79V1150.12" stroke="#00AEEF" stroke-width="0.5"/>
<path id="left-margin-Medium-M" d="M1687.37 1030.79V1150.12" stroke="#00AEEF" stroke-width="0.5"/>
<path id="right-margin-Medium-M" d="M1805.74 1030.79V1150.12" stroke="#00AEEF" stroke-width="0.5"/>
<path id="left-margin-Semibold-M" d="M1983.6 1030.79V1150.12" stroke="#00AEEF" stroke-width="0.5"/>
<path id="right-margin-Semibold-M" d="M2102.94 1030.79V1150.12" stroke="#00AEEF" stroke-width="0.5"/>
<path id="left-margin-Bold-M" d="M2279.66 1030.79V1150.12" stroke="#00AEEF" stroke-width="0.5"/>
<path id="right-margin-Bold-M" d="M2400.29 1030.79V1150.12" stroke="#00AEEF" stroke-width="0.5"/>
<path id="left-margin-Heavy-M" d="M2575.44 1030.79V1150.12" stroke="#00AEEF" stroke-width="0.5"/>
<path id="right-margin-Heavy-M" d="M2697.94 1030.79V1150.12" stroke="#00AEEF" stroke-width="0.5"/>
<path id="left-margin-Black-M" d="M2871.32 1030.79V1150.12" stroke="#00AEEF" stroke-width="0.5"/>
<path id="right-margin-Black-M" d="M2995.48 1030.79V1150.12" stroke="#00AEEF" stroke-width="0.5"/>
<path id="left-margin-Ultralight-L" d="M487.603 1460.79V1580.12" stroke="#00AEEF" stroke-width="0.5"/>
<path id="right-margin-Ultralight-L" d="M631.819 1460.79V1580.12" stroke="#00AEEF" stroke-width="0.5"/>
<path id="left-margin-Thin-L" d="M783.689 1460.79V1580.12" stroke="#00AEEF" stroke-width="0.5"/>
<path id="right-margin-Thin-L" d="M929.156 1460.79V1580.12" stroke="#00AEEF" stroke-width="0.5"/>
<path id="left-margin-Light-L" d="M1079.18 1460.79V1580.12" stroke="#00AEEF" stroke-width="0.5"/>
<path id="right-margin-Light-L" d="M1227.09 1460.79V1580.12" stroke="#00AEEF" stroke-width="0.5"/>
<path id="left-margin-Regular-L" d="M1374.97 1460.79V1580.12" stroke="#00AEEF" stroke-width="0.5"/>
<path id="right-margin-Regular-L" d="M1524.72 1460.79V1580.12" stroke="#00AEEF" stroke-width="0.5"/>
<path id="left-margin-Medium-L" d="M1670.87 1460.79V1580.12" stroke="#00AEEF" stroke-width="0.5"/>
<path id="right-margin-Medium-L" d="M1822.24 1460.79V1580.12" stroke="#00AEEF" stroke-width="0.5"/>
<path id="left-margin-Semibold-L" d="M1966.97 1460.79V1580.12" stroke="#00AEEF" stroke-width="0.5"/>
<path id="right-margin-Semibold-L" d="M2119.57 1460.79V1580.12" stroke="#00AEEF" stroke-width="0.5"/>
<path id="left-margin-Bold-L" d="M2262.87 1460.79V1580.12" stroke="#00AEEF" stroke-width="0.5"/>
<path id="right-margin-Bold-L" d="M2417.09 1460.79V1580.12" stroke="#00AEEF" stroke-width="0.5"/>
<path id="left-margin-Heavy-L" d="M2558.4 1460.79V1580.12" stroke="#00AEEF" stroke-width="0.5"/>
<path id="right-margin-Heavy-L" d="M2714.98 1460.79V1580.12" stroke="#00AEEF" stroke-width="0.5"/>
<path id="left-margin-Black-L" d="M2854.05 1460.79V1580.12" stroke="#00AEEF" stroke-width="0.5"/>
<path id="right-margin-Black-L" d="M3012.75 1460.79V1580.12" stroke="#00AEEF" stroke-width="0.5"/>
</g>
<g id="Symbols">
<g id="Black-L">
<g id="check.all.1_2">
<path fill-rule="evenodd" clip-rule="evenodd" d="M2908.94 1504.58C2911.97 1502.36 2916.23 1503 2918.46 1506.03L2933.51 1526.48L2985.22 1459.05C2987.51 1456.07 2991.78 1455.5 2994.76 1457.79C2997.75 1460.08 2998.31 1464.35 2996.02 1467.33L2938.8 1541.95C2937.49 1543.65 2935.47 1544.64 2933.33 1544.62C2931.19 1544.59 2929.18 1543.57 2927.91 1541.84L2907.49 1514.1C2905.27 1511.07 2905.91 1506.81 2908.94 1504.58Z" fill="black"/>
<path fill-rule="evenodd" clip-rule="evenodd" d="M2892.56 1466.34C2885.04 1466.34 2878.94 1472.43 2878.94 1479.95V1561.63C2878.94 1569.15 2885.04 1575.25 2892.56 1575.25H2974.24C2981.75 1575.25 2987.85 1569.15 2987.85 1561.63V1520.79C2987.85 1517.03 2990.9 1513.99 2994.66 1513.99C2998.41 1513.99 3001.46 1517.03 3001.46 1520.79V1561.63C3001.46 1576.67 2989.27 1588.86 2974.24 1588.86H2892.56C2877.52 1588.86 2865.33 1576.67 2865.33 1561.63V1479.95C2865.33 1464.92 2877.52 1452.73 2892.56 1452.73H2933.4C2937.15 1452.73 2940.2 1455.77 2940.2 1459.53C2940.2 1463.29 2937.15 1466.34 2933.4 1466.34H2892.56Z" fill="black"/>
</g>
</g>
<g id="Heavy-L">
<g id="check.all.1_3">
<path fill-rule="evenodd" clip-rule="evenodd" d="M2612.62 1504.82C2615.6 1502.62 2619.79 1503.26 2621.98 1506.24L2636.8 1526.37L2687.71 1459.99C2689.97 1457.05 2694.17 1456.5 2697.11 1458.75C2700.05 1461 2700.6 1465.21 2698.35 1468.14L2642.01 1541.61C2640.73 1543.28 2638.73 1544.25 2636.63 1544.23C2634.52 1544.21 2632.54 1543.2 2631.29 1541.5L2611.19 1514.19C2609 1511.21 2609.64 1507.01 2612.62 1504.82Z" fill="black"/>
<path fill-rule="evenodd" clip-rule="evenodd" d="M2596.48 1467.16C2589.08 1467.16 2583.08 1473.16 2583.08 1480.57V1560.98C2583.08 1568.38 2589.08 1574.38 2596.48 1574.38H2676.9C2684.3 1574.38 2690.3 1568.38 2690.3 1560.98V1520.77C2690.3 1517.07 2693.3 1514.07 2697 1514.07C2700.7 1514.07 2703.7 1517.07 2703.7 1520.77V1560.98C2703.7 1575.79 2691.7 1587.79 2676.9 1587.79H2596.48C2581.68 1587.79 2569.68 1575.79 2569.68 1560.98V1480.57C2569.68 1465.76 2581.68 1453.76 2596.48 1453.76H2636.69C2640.39 1453.76 2643.39 1456.76 2643.39 1460.46C2643.39 1464.16 2640.39 1467.16 2636.69 1467.16H2596.48Z" fill="black"/>
</g>
</g>
<g id="Bold-L">
<g id="check.all.1_4">
<path fill-rule="evenodd" clip-rule="evenodd" d="M2316.33 1505.08C2319.26 1502.93 2323.38 1503.55 2325.53 1506.48L2340.09 1526.26L2390.11 1461.04C2392.32 1458.16 2396.45 1457.61 2399.34 1459.82C2402.22 1462.04 2402.77 1466.17 2400.55 1469.05L2345.21 1541.22C2343.95 1542.87 2341.99 1543.82 2339.92 1543.8C2337.85 1543.78 2335.91 1542.79 2334.68 1541.12L2314.93 1514.29C2312.77 1511.36 2313.4 1507.24 2316.33 1505.08Z" fill="black"/>
<path fill-rule="evenodd" clip-rule="evenodd" d="M2300.48 1468.09C2293.21 1468.09 2287.32 1473.99 2287.32 1481.26V1560.26C2287.32 1567.53 2293.21 1573.42 2300.48 1573.42H2379.48C2386.75 1573.42 2392.65 1567.53 2392.65 1560.26V1520.76C2392.65 1517.12 2395.6 1514.17 2399.23 1514.17C2402.87 1514.17 2405.81 1517.12 2405.81 1520.76V1560.26C2405.81 1574.8 2394.02 1586.59 2379.48 1586.59H2300.48C2285.94 1586.59 2274.15 1574.8 2274.15 1560.26V1481.26C2274.15 1466.72 2285.94 1454.93 2300.48 1454.93H2339.98C2343.62 1454.93 2346.57 1457.87 2346.57 1461.51C2346.57 1465.14 2343.62 1468.09 2339.98 1468.09H2300.48Z" fill="black"/>
</g>
</g>
<g id="Semibold-L">
<g id="check.all.1_5">
<path fill-rule="evenodd" clip-rule="evenodd" d="M2019.91 1505.26C2022.8 1503.13 2026.87 1503.75 2029 1506.64L2043.38 1526.17L2092.77 1461.76C2094.96 1458.91 2099.04 1458.38 2101.89 1460.56C2104.74 1462.75 2105.28 1466.83 2103.09 1469.68L2048.43 1540.95C2047.18 1542.58 2045.25 1543.52 2043.2 1543.5C2041.16 1543.48 2039.24 1542.5 2038.03 1540.85L2018.53 1514.35C2016.4 1511.46 2017.02 1507.39 2019.91 1505.26Z" fill="black"/>
<path fill-rule="evenodd" clip-rule="evenodd" d="M2004.26 1468.73C1997.07 1468.73 1991.25 1474.55 1991.25 1481.73V1559.75C1991.25 1566.94 1997.07 1572.76 2004.26 1572.76H2082.28C2089.46 1572.76 2095.28 1566.94 2095.28 1559.75V1520.74C2095.28 1517.15 2098.19 1514.24 2101.79 1514.24C2105.38 1514.24 2108.29 1517.15 2108.29 1520.74V1559.75C2108.29 1574.12 2096.64 1585.76 2082.28 1585.76H2004.26C1989.89 1585.76 1978.25 1574.12 1978.25 1559.75V1481.73C1978.25 1467.37 1989.89 1455.72 2004.26 1455.72H2043.27C2046.86 1455.72 2049.77 1458.63 2049.77 1462.22C2049.77 1465.82 2046.86 1468.73 2043.27 1468.73H2004.26Z" fill="black"/>
</g>
</g>
<g id="Medium-L">
<g id="check.all.1_6">
<path fill-rule="evenodd" clip-rule="evenodd" d="M1723.41 1505.4C1726.28 1503.29 1730.31 1503.9 1732.42 1506.76L1746.66 1526.11L1795.59 1462.31C1797.75 1459.49 1801.8 1458.96 1804.62 1461.12C1807.44 1463.28 1807.97 1467.33 1805.81 1470.15L1751.66 1540.75C1750.43 1542.36 1748.51 1543.29 1746.49 1543.27C1744.46 1543.25 1742.57 1542.28 1741.37 1540.65L1722.04 1514.4C1719.94 1511.53 1720.55 1507.5 1723.41 1505.4Z" fill="black"/>
<path fill-rule="evenodd" clip-rule="evenodd" d="M1707.91 1469.21C1700.8 1469.21 1695.03 1474.98 1695.03 1482.09V1559.37C1695.03 1566.49 1700.8 1572.25 1707.91 1572.25H1785.19C1792.31 1572.25 1798.07 1566.49 1798.07 1559.37V1520.73C1798.07 1517.17 1800.96 1514.29 1804.51 1514.29C1808.07 1514.29 1810.96 1517.17 1810.96 1520.73V1559.37C1810.96 1573.6 1799.42 1585.13 1785.19 1585.13H1707.91C1693.68 1585.13 1682.15 1573.6 1682.15 1559.37V1482.09C1682.15 1467.86 1693.68 1456.33 1707.91 1456.33H1746.55C1750.11 1456.33 1752.99 1459.21 1752.99 1462.77C1752.99 1466.33 1750.11 1469.21 1746.55 1469.21H1707.91Z" fill="black"/>
</g>
</g>
<g id="Regular-L">
<g id="check.all.1_7">
<path fill-rule="evenodd" clip-rule="evenodd" d="M1427 1505.58C1429.83 1503.49 1433.81 1504.1 1435.89 1506.93L1449.95 1526.03L1498.27 1463.03C1500.41 1460.24 1504.4 1459.72 1507.19 1461.85C1509.98 1463.99 1510.5 1467.98 1508.36 1470.77L1454.89 1540.49C1453.68 1542.08 1451.78 1543 1449.79 1542.98C1447.79 1542.96 1445.91 1542 1444.73 1540.39L1425.65 1514.47C1423.56 1511.64 1424.17 1507.66 1427 1505.58Z" fill="black"/>
<path fill-rule="evenodd" clip-rule="evenodd" d="M1411.69 1469.84C1404.66 1469.84 1398.97 1475.54 1398.97 1482.56V1558.88C1398.97 1565.9 1404.66 1571.6 1411.69 1571.6H1488.01C1495.03 1571.6 1500.73 1565.9 1500.73 1558.88V1520.72C1500.73 1517.21 1503.57 1514.36 1507.09 1514.36C1510.6 1514.36 1513.45 1517.21 1513.45 1520.72V1558.88C1513.45 1572.93 1502.06 1584.32 1488.01 1584.32H1411.69C1397.64 1584.32 1386.25 1572.93 1386.25 1558.88V1482.56C1386.25 1468.51 1397.64 1457.12 1411.69 1457.12H1449.85C1453.36 1457.12 1456.21 1459.97 1456.21 1463.48C1456.21 1466.99 1453.36 1469.84 1449.85 1469.84H1411.69Z" fill="black"/>
</g>
</g>
<g id="Light-L">
<g id="check.all.1_8">
<path fill-rule="evenodd" clip-rule="evenodd" d="M1130.62 1505.79C1133.4 1503.74 1137.33 1504.34 1139.38 1507.13L1153.24 1525.95L1200.86 1463.87C1202.96 1461.12 1206.9 1460.6 1209.64 1462.71C1212.39 1464.81 1212.91 1468.75 1210.8 1471.49L1158.11 1540.2C1156.91 1541.77 1155.04 1542.67 1153.07 1542.65C1151.1 1542.64 1149.26 1541.69 1148.09 1540.1L1129.28 1514.56C1127.23 1511.77 1127.83 1507.85 1130.62 1505.79Z" fill="black"/>
<path fill-rule="evenodd" clip-rule="evenodd" d="M1115.53 1470.58C1108.61 1470.58 1102.99 1476.19 1102.99 1483.11V1558.32C1102.99 1565.25 1108.61 1570.86 1115.53 1570.86H1190.74C1197.66 1570.86 1203.28 1565.25 1203.28 1558.32V1520.72C1203.28 1517.26 1206.08 1514.45 1209.54 1514.45C1213 1514.45 1215.81 1517.26 1215.81 1520.72V1558.32C1215.81 1572.17 1204.59 1583.39 1190.74 1583.39H1115.53C1101.68 1583.39 1090.46 1572.17 1090.46 1558.32V1483.11C1090.46 1469.27 1101.68 1458.04 1115.53 1458.04H1153.13C1156.6 1458.04 1159.4 1460.85 1159.4 1464.31C1159.4 1467.77 1156.6 1470.58 1153.13 1470.58H1115.53Z" fill="black"/>
</g>
</g>
<g id="Thin-L">
<g id="check.all.1_9">
<path fill-rule="evenodd" clip-rule="evenodd" d="M834.343 1506.09C837.076 1504.07 840.923 1504.66 842.935 1507.39L856.523 1525.85L903.213 1464.97C905.278 1462.28 909.136 1461.77 911.829 1463.84C914.522 1465.9 915.031 1469.76 912.966 1472.45L861.298 1539.82C860.123 1541.36 858.294 1542.25 856.361 1542.23C854.429 1542.21 852.618 1541.28 851.473 1539.73L833.037 1514.68C831.025 1511.94 831.61 1508.1 834.343 1506.09Z" fill="black"/>
<path fill-rule="evenodd" clip-rule="evenodd" d="M819.55 1471.56C812.762 1471.56 807.259 1477.06 807.259 1483.85V1557.59C807.259 1564.38 812.762 1569.88 819.55 1569.88H893.294C900.082 1569.88 905.585 1564.38 905.585 1557.59V1520.72C905.585 1517.33 908.337 1514.57 911.731 1514.57C915.125 1514.57 917.876 1517.33 917.876 1520.72V1557.59C917.876 1571.17 906.87 1582.17 893.294 1582.17H819.55C805.974 1582.17 794.968 1571.17 794.968 1557.59V1483.85C794.968 1470.27 805.974 1459.27 819.55 1459.27H856.422C859.816 1459.27 862.567 1462.02 862.567 1465.41C862.567 1468.81 859.816 1471.56 856.422 1471.56H819.55Z" fill="black"/>
</g>
</g>
<g id="Ultralight-L">
<g id="check.all.1_10">
<path fill-rule="evenodd" clip-rule="evenodd" d="M537.857 1506.23C540.562 1504.24 544.37 1504.82 546.361 1507.53L559.811 1525.8L606.026 1465.54C608.07 1462.88 611.889 1462.37 614.555 1464.42C617.22 1466.46 617.724 1470.28 615.68 1472.95L564.538 1539.63C563.374 1541.15 561.564 1542.03 559.651 1542.01C557.738 1541.99 555.946 1541.07 554.812 1539.53L536.564 1514.74C534.572 1512.03 535.151 1508.23 537.857 1506.23Z" fill="black"/>
<path fill-rule="evenodd" clip-rule="evenodd" d="M523.214 1472.06C516.495 1472.06 511.048 1477.5 511.048 1484.22V1557.22C511.048 1563.93 516.495 1569.38 523.214 1569.38H596.208C602.927 1569.38 608.374 1563.93 608.374 1557.22V1520.72C608.374 1517.36 611.098 1514.64 614.457 1514.64C617.817 1514.64 620.54 1517.36 620.54 1520.72V1557.22C620.54 1570.65 609.646 1581.55 596.208 1581.55H523.214C509.776 1581.55 498.882 1570.65 498.882 1557.22V1484.22C498.882 1470.78 509.776 1459.89 523.214 1459.89H559.711C563.071 1459.89 565.794 1462.61 565.794 1465.97C565.794 1469.33 563.071 1472.06 559.711 1472.06H523.214Z" fill="black"/>
</g>
</g>
<g id="Black-M">
<g id="check.all.1_11">
<path fill-rule="evenodd" clip-rule="evenodd" d="M2914.24 1078.1C2916.61 1076.35 2919.95 1076.86 2921.7 1079.23L2933.49 1095.25L2974.02 1042.43C2975.81 1040.09 2979.16 1039.65 2981.5 1041.44C2983.84 1043.23 2984.28 1046.58 2982.49 1048.92L2937.64 1107.37C2936.62 1108.7 2935.03 1109.47 2933.35 1109.45C2931.68 1109.44 2930.1 1108.63 2929.11 1107.28L2913.11 1085.55C2911.36 1083.18 2911.87 1079.84 2914.24 1078.1Z" fill="black"/>
<path fill-rule="evenodd" clip-rule="evenodd" d="M2901.4 1048.14C2895.51 1048.14 2890.73 1052.91 2890.73 1058.8V1122.79C2890.73 1128.67 2895.51 1133.45 2901.4 1133.45H2965.41C2971.3 1133.45 2976.08 1128.67 2976.08 1122.79V1090.79C2976.08 1087.85 2978.47 1085.46 2981.42 1085.46C2984.36 1085.46 2986.75 1087.85 2986.75 1090.79V1122.79C2986.75 1134.56 2977.2 1144.11 2965.41 1144.11H2901.4C2889.61 1144.11 2880.06 1134.56 2880.06 1122.79V1058.8C2880.06 1047.02 2889.61 1037.47 2901.4 1037.47H2933.41C2936.35 1037.47 2938.74 1039.86 2938.74 1042.8C2938.74 1045.75 2936.35 1048.14 2933.41 1048.14H2901.4Z" fill="black"/>
</g>
</g>
<g id="Heavy-M">
<g id="check.all.1_12">
<path fill-rule="evenodd" clip-rule="evenodd" d="M2617.82 1078.28C2620.16 1076.56 2623.45 1077.06 2625.17 1079.4L2636.78 1095.16L2676.67 1043.17C2678.43 1040.87 2681.73 1040.43 2684.03 1042.19C2686.33 1043.96 2686.77 1047.25 2685 1049.55L2640.86 1107.1C2639.85 1108.41 2638.29 1109.17 2636.64 1109.15C2634.99 1109.13 2633.44 1108.34 2632.46 1107.01L2616.71 1085.62C2614.99 1083.28 2615.49 1080 2617.82 1078.28Z" fill="black"/>
<path fill-rule="evenodd" clip-rule="evenodd" d="M2605.18 1048.79C2599.38 1048.79 2594.68 1053.49 2594.68 1059.29V1122.27C2594.68 1128.07 2599.38 1132.77 2605.18 1132.77H2668.19C2673.99 1132.77 2678.7 1128.07 2678.7 1122.27V1090.78C2678.7 1087.88 2681.05 1085.53 2683.95 1085.53C2686.85 1085.53 2689.2 1087.88 2689.2 1090.78V1122.27C2689.2 1133.87 2679.79 1143.27 2668.19 1143.27H2605.18C2593.58 1143.27 2584.18 1133.87 2584.18 1122.27V1059.29C2584.18 1047.69 2593.58 1038.29 2605.18 1038.29H2636.69C2639.59 1038.29 2641.94 1040.64 2641.94 1043.54C2641.94 1046.44 2639.59 1048.79 2636.69 1048.79H2605.18Z" fill="black"/>
</g>
</g>
<g id="Bold-M">
<g id="check.all.1_13">
<path fill-rule="evenodd" clip-rule="evenodd" d="M2321.45 1078.49C2323.74 1076.8 2326.97 1077.29 2328.66 1079.59L2340.06 1095.08L2379.24 1044C2380.98 1041.74 2384.22 1041.31 2386.48 1043.04C2388.74 1044.78 2389.16 1048.01 2387.43 1050.27L2344.07 1106.8C2343.08 1108.08 2341.55 1108.83 2339.92 1108.82C2338.3 1108.8 2336.78 1108.02 2335.82 1106.72L2320.35 1085.7C2318.66 1083.41 2319.15 1080.18 2321.45 1078.49Z" fill="black"/>
<path fill-rule="evenodd" clip-rule="evenodd" d="M2309.03 1049.52C2303.33 1049.52 2298.72 1054.14 2298.72 1059.83V1121.71C2298.72 1127.4 2303.33 1132.02 2309.03 1132.02H2370.92C2376.62 1132.02 2381.24 1127.4 2381.24 1121.71V1090.77C2381.24 1087.92 2383.54 1085.61 2386.39 1085.61C2389.24 1085.61 2391.55 1087.92 2391.55 1090.77V1121.71C2391.55 1133.1 2382.31 1142.33 2370.92 1142.33H2309.03C2297.64 1142.33 2288.4 1133.1 2288.4 1121.71V1059.83C2288.4 1048.44 2297.64 1039.21 2309.03 1039.21H2339.98C2342.82 1039.21 2345.13 1041.52 2345.13 1044.36C2345.13 1047.21 2342.82 1049.52 2339.98 1049.52H2309.03Z" fill="black"/>
</g>
</g>
<g id="Semibold-M">
<g id="check.all.1_14">
<path fill-rule="evenodd" clip-rule="evenodd" d="M2024.97 1078.63C2027.24 1076.97 2030.43 1077.45 2032.09 1079.72L2043.35 1095.01L2082.05 1044.57C2083.76 1042.33 2086.96 1041.91 2089.19 1043.62C2091.42 1045.34 2091.84 1048.53 2090.13 1050.76L2047.31 1106.59C2046.34 1107.86 2044.82 1108.6 2043.22 1108.58C2041.62 1108.57 2040.12 1107.8 2039.17 1106.51L2023.89 1085.75C2022.22 1083.49 2022.71 1080.3 2024.97 1078.63Z" fill="black"/>
<path fill-rule="evenodd" clip-rule="evenodd" d="M2012.71 1050.02C2007.09 1050.02 2002.53 1054.58 2002.53 1060.21V1121.31C2002.53 1126.94 2007.09 1131.5 2012.71 1131.5H2073.83C2079.45 1131.5 2084.01 1126.94 2084.01 1121.31V1090.76C2084.01 1087.95 2086.29 1085.67 2089.11 1085.67C2091.92 1085.67 2094.2 1087.95 2094.2 1090.76V1121.31C2094.2 1132.56 2085.08 1141.68 2073.83 1141.68H2012.71C2001.46 1141.68 1992.34 1132.56 1992.34 1121.31V1060.21C1992.34 1048.96 2001.46 1039.84 2012.71 1039.84H2043.27C2046.08 1039.84 2048.36 1042.12 2048.36 1044.93C2048.36 1047.74 2046.08 1050.02 2043.27 1050.02H2012.71Z" fill="black"/>
</g>
</g>
<g id="Medium-M">
<g id="check.all.1_15">
<path fill-rule="evenodd" clip-rule="evenodd" d="M1728.43 1078.74C1730.67 1077.09 1733.83 1077.57 1735.48 1079.82L1746.64 1094.97L1784.96 1045C1786.65 1042.79 1789.82 1042.37 1792.03 1044.07C1794.24 1045.76 1794.66 1048.93 1792.96 1051.14L1750.55 1106.43C1749.59 1107.69 1748.09 1108.42 1746.5 1108.41C1744.92 1108.39 1743.43 1107.63 1742.49 1106.35L1727.36 1085.8C1725.71 1083.55 1726.19 1080.39 1728.43 1078.74Z" fill="black"/>
<path fill-rule="evenodd" clip-rule="evenodd" d="M1716.29 1050.4C1710.72 1050.4 1706.2 1054.92 1706.2 1060.49V1121.02C1706.2 1126.59 1710.72 1131.1 1716.29 1131.1H1776.82C1782.39 1131.1 1786.91 1126.59 1786.91 1121.02V1090.75C1786.91 1087.97 1789.16 1085.71 1791.95 1085.71C1794.74 1085.71 1796.99 1087.97 1796.99 1090.75V1121.02C1796.99 1132.16 1787.96 1141.19 1776.82 1141.19H1716.29C1705.14 1141.19 1696.11 1132.16 1696.11 1121.02V1060.49C1696.11 1049.35 1705.14 1040.32 1716.29 1040.32H1746.55C1749.34 1040.32 1751.6 1042.57 1751.6 1045.36C1751.6 1048.15 1749.34 1050.4 1746.55 1050.4H1716.29Z" fill="black"/>
</g>
</g>
<g id="Regular-M">
<g id="check.all.1_16">
<path fill-rule="evenodd" clip-rule="evenodd" d="M1431.95 1078.89C1434.17 1077.26 1437.28 1077.73 1438.91 1079.95L1449.93 1094.91L1487.77 1045.57C1489.44 1043.39 1492.57 1042.97 1494.75 1044.65C1496.93 1046.32 1497.34 1049.45 1495.67 1051.63L1453.8 1106.23C1452.84 1107.47 1451.36 1108.19 1449.8 1108.18C1448.23 1108.16 1446.76 1107.41 1445.83 1106.15L1430.89 1085.85C1429.26 1083.63 1429.74 1080.52 1431.95 1078.89Z" fill="black"/>
<path fill-rule="evenodd" clip-rule="evenodd" d="M1419.96 1050.9C1414.46 1050.9 1410 1055.36 1410 1060.86V1120.63C1410 1126.13 1414.46 1130.59 1419.96 1130.59H1479.73C1485.23 1130.59 1489.69 1126.13 1489.69 1120.63V1090.75C1489.69 1088 1491.92 1085.77 1494.67 1085.77C1497.42 1085.77 1499.65 1088 1499.65 1090.75V1120.63C1499.65 1131.63 1490.73 1140.55 1479.73 1140.55H1419.96C1408.96 1140.55 1400.04 1131.63 1400.04 1120.63V1060.86C1400.04 1049.86 1408.96 1040.94 1419.96 1040.94H1449.84C1452.6 1040.94 1454.83 1043.17 1454.83 1045.92C1454.83 1048.67 1452.6 1050.9 1449.84 1050.9H1419.96Z" fill="black"/>
</g>
</g>
<g id="Light-M">
<g id="check.all.1_17">
<path fill-rule="evenodd" clip-rule="evenodd" d="M1135.53 1079.08C1137.71 1077.48 1140.78 1077.95 1142.38 1080.13L1153.21 1094.84L1190.42 1046.32C1192.07 1044.18 1195.14 1043.77 1197.29 1045.42C1199.44 1047.06 1199.84 1050.14 1198.2 1052.28L1157.02 1105.97C1156.08 1107.19 1154.62 1107.9 1153.08 1107.89C1151.54 1107.87 1150.1 1107.13 1149.19 1105.89L1134.49 1085.93C1132.89 1083.75 1133.35 1080.69 1135.53 1079.08Z" fill="black"/>
<path fill-rule="evenodd" clip-rule="evenodd" d="M1123.74 1051.57C1118.33 1051.57 1113.95 1055.95 1113.95 1061.36V1120.13C1113.95 1125.54 1118.33 1129.92 1123.74 1129.92H1182.52C1187.93 1129.92 1192.31 1125.54 1192.31 1120.13V1090.75C1192.31 1088.04 1194.51 1085.85 1197.21 1085.85C1199.92 1085.85 1202.11 1088.04 1202.11 1090.75V1120.13C1202.11 1130.95 1193.34 1139.72 1182.52 1139.72H1123.74C1112.92 1139.72 1104.15 1130.95 1104.15 1120.13V1061.36C1104.15 1050.54 1112.92 1041.77 1123.74 1041.77H1153.13C1155.83 1041.77 1158.03 1043.97 1158.03 1046.67C1158.03 1049.38 1155.83 1051.57 1153.13 1051.57H1123.74Z" fill="black"/>
</g>
</g>
<g id="Thin-M">
<g id="check.all.1_18">
<path fill-rule="evenodd" clip-rule="evenodd" d="M839.216 1079.34C841.346 1077.78 844.344 1078.23 845.912 1080.36L856.5 1094.74L892.884 1047.32C894.493 1045.22 897.499 1044.82 899.598 1046.43C901.696 1048.04 902.093 1051.05 900.483 1053.14L860.222 1105.62C859.305 1106.82 857.88 1107.51 856.374 1107.5C854.869 1107.48 853.457 1106.76 852.565 1105.55L838.198 1086.04C836.631 1083.91 837.086 1080.91 839.216 1079.34Z" fill="black"/>
<path fill-rule="evenodd" clip-rule="evenodd" d="M827.689 1052.45C822.399 1052.45 818.111 1056.73 818.111 1062.02V1119.47C818.111 1124.75 822.399 1129.04 827.689 1129.04H885.155C890.444 1129.04 894.732 1124.75 894.732 1119.47V1090.74C894.732 1088.1 896.876 1085.96 899.521 1085.96C902.166 1085.96 904.31 1088.1 904.31 1090.74V1119.47C904.31 1130.04 895.734 1138.61 885.155 1138.61H827.689C817.109 1138.61 808.533 1130.04 808.533 1119.47V1062.02C808.533 1051.44 817.109 1042.87 827.689 1042.87H856.422C859.066 1042.87 861.21 1045.01 861.21 1047.66C861.21 1050.3 859.066 1052.45 856.422 1052.45H827.689Z" fill="black"/>
</g>
</g>
<g id="Ultralight-M">
<g id="check.all.1_19">
<path fill-rule="evenodd" clip-rule="evenodd" d="M542.707 1079.48C544.812 1077.93 547.775 1078.38 549.324 1080.49L559.789 1094.7L595.748 1047.83C597.339 1045.76 600.31 1045.37 602.384 1046.96C604.458 1048.55 604.85 1051.52 603.259 1053.59L563.467 1105.45C562.561 1106.63 561.153 1107.32 559.665 1107.3C558.176 1107.29 556.782 1106.57 555.899 1105.38L541.7 1086.09C540.151 1083.99 540.601 1081.03 542.707 1079.48Z" fill="black"/>
<path fill-rule="evenodd" clip-rule="evenodd" d="M531.313 1052.9C526.085 1052.9 521.847 1057.13 521.847 1062.36V1119.13C521.847 1124.35 526.085 1128.59 531.313 1128.59H588.109C593.337 1128.59 597.575 1124.35 597.575 1119.13V1090.74C597.575 1088.13 599.694 1086.01 602.308 1086.01C604.922 1086.01 607.041 1088.13 607.041 1090.74V1119.13C607.041 1129.58 598.565 1138.05 588.109 1138.05H531.313C520.857 1138.05 512.381 1129.58 512.381 1119.13V1062.36C512.381 1051.91 520.857 1043.44 531.313 1043.44H559.711C562.325 1043.44 564.444 1045.56 564.444 1048.17C564.444 1050.78 562.325 1052.9 559.711 1052.9H531.313Z" fill="black"/>
</g>
</g>
<g id="Black-S">
<g id="check.all.1_20">
<path fill-rule="evenodd" clip-rule="evenodd" d="M2918.31 650.794C2920.18 649.419 2922.81 649.819 2924.18 651.686L2933.47 664.301L2965.37 622.702C2966.78 620.862 2969.42 620.514 2971.26 621.925C2973.1 623.337 2973.45 625.973 2972.04 627.813L2936.73 673.847C2935.93 674.894 2934.68 675.503 2933.36 675.49C2932.04 675.477 2930.8 674.844 2930.02 673.78L2917.42 656.665C2916.04 654.797 2916.44 652.168 2918.31 650.794Z" fill="black"/>
<path fill-rule="evenodd" clip-rule="evenodd" d="M2908.2 627.199C2903.56 627.199 2899.8 630.959 2899.8 635.598V685.988C2899.8 690.627 2903.56 694.387 2908.2 694.387H2958.59C2963.23 694.387 2966.99 690.627 2966.99 685.988V660.793C2966.99 658.474 2968.87 656.594 2971.19 656.594C2973.51 656.594 2975.39 658.474 2975.39 660.793V685.988C2975.39 695.265 2967.87 702.785 2958.59 702.785H2908.2C2898.93 702.785 2891.41 695.265 2891.41 685.988V635.598C2891.41 626.321 2898.93 618.801 2908.2 618.801H2933.4C2935.72 618.801 2937.6 620.681 2937.6 623C2937.6 625.319 2935.72 627.199 2933.4 627.199H2908.2Z" fill="black"/>
</g>
</g>
<g id="Heavy-S">
<g id="check.all.1_21">
<path fill-rule="evenodd" clip-rule="evenodd" d="M2621.82 650.926C2623.66 649.571 2626.25 649.965 2627.61 651.806L2636.76 664.237L2668.2 623.243C2669.6 621.429 2672.19 621.087 2674.01 622.477C2675.82 623.868 2676.16 626.466 2674.77 628.279L2639.98 673.644C2639.18 674.676 2637.95 675.276 2636.65 675.263C2635.35 675.25 2634.13 674.626 2633.36 673.578L2620.94 656.712C2619.59 654.871 2619.98 652.281 2621.82 650.926Z" fill="black"/>
<path fill-rule="evenodd" clip-rule="evenodd" d="M2611.86 627.675C2607.29 627.675 2603.58 631.38 2603.58 635.951V685.609C2603.58 690.18 2607.29 693.885 2611.86 693.885H2661.53C2666.1 693.885 2669.8 690.18 2669.8 685.609V660.78C2669.8 658.494 2671.66 656.642 2673.94 656.642C2676.23 656.642 2678.08 658.494 2678.08 660.78V685.609C2678.08 694.751 2670.67 702.161 2661.53 702.161H2611.86C2602.72 702.161 2595.31 694.751 2595.31 685.609V635.951C2595.31 626.809 2602.72 619.398 2611.86 619.398H2636.69C2638.98 619.398 2640.83 621.251 2640.83 623.537C2640.83 625.822 2638.98 627.675 2636.69 627.675H2611.86Z" fill="black"/>
</g>
</g>
<g id="Bold-S">
<g id="check.all.1_22">
<path fill-rule="evenodd" clip-rule="evenodd" d="M2325.35 651.077C2327.16 649.745 2329.71 650.132 2331.04 651.943L2340.04 664.168L2370.97 623.851C2372.34 622.068 2374.9 621.731 2376.68 623.098C2378.46 624.466 2378.8 627.021 2377.43 628.805L2343.21 673.42C2342.43 674.435 2341.22 675.025 2339.94 675.013C2338.66 675 2337.46 674.386 2336.7 673.356L2324.48 656.768C2323.15 654.957 2323.54 652.41 2325.35 651.077Z" fill="black"/>
<path fill-rule="evenodd" clip-rule="evenodd" d="M2315.55 628.21C2311.05 628.21 2307.41 631.854 2307.41 636.35V685.187C2307.41 689.683 2311.05 693.327 2315.55 693.327H2364.4C2368.9 693.327 2372.54 689.683 2372.54 685.187V660.769C2372.54 658.521 2374.37 656.699 2376.62 656.699C2378.86 656.699 2380.69 658.521 2380.69 660.769V685.187C2380.69 694.178 2373.4 701.467 2364.4 701.467H2315.55C2306.56 701.467 2299.27 694.178 2299.27 685.187V636.35C2299.27 627.359 2306.56 620.07 2315.55 620.07H2339.98C2342.22 620.07 2344.05 621.892 2344.05 624.14C2344.05 626.388 2342.22 628.21 2339.98 628.21H2315.55Z" fill="black"/>
</g>
</g>
<g id="Semibold-S">
<g id="check.all.1_23">
<path fill-rule="evenodd" clip-rule="evenodd" d="M2028.81 651.179C2030.6 649.862 2033.12 650.245 2034.44 652.035L2043.34 664.119L2073.91 624.268C2075.26 622.505 2077.79 622.172 2079.55 623.524C2081.32 624.876 2081.65 627.402 2080.3 629.164L2046.46 673.263C2045.69 674.267 2044.49 674.85 2043.23 674.838C2041.96 674.825 2040.78 674.218 2040.03 673.2L2027.96 656.804C2026.64 655.014 2027.02 652.496 2028.81 651.179Z" fill="black"/>
<path fill-rule="evenodd" clip-rule="evenodd" d="M2019.12 628.577C2014.68 628.577 2011.07 632.179 2011.07 636.622V684.895C2011.07 689.338 2014.68 692.94 2019.12 692.94H2067.42C2071.86 692.94 2075.46 689.338 2075.46 684.895V660.758C2075.46 658.537 2077.27 656.736 2079.49 656.736C2081.71 656.736 2083.51 658.537 2083.51 660.758V684.895C2083.51 693.781 2076.31 700.986 2067.42 700.986H2019.12C2010.23 700.986 2003.03 693.781 2003.03 684.895V636.622C2003.03 627.735 2010.23 620.531 2019.12 620.531H2043.27C2045.49 620.531 2047.29 622.332 2047.29 624.554C2047.29 626.776 2045.49 628.577 2043.27 628.577H2019.12Z" fill="black"/>
</g>
</g>
<g id="Medium-S">
<g id="check.all.1_24">
<path fill-rule="evenodd" clip-rule="evenodd" d="M1732.22 651.259C1734 649.954 1736.5 650.333 1737.8 652.106L1746.62 664.083L1776.93 624.587C1778.27 622.839 1780.77 622.509 1782.52 623.849C1784.27 625.189 1784.6 627.692 1783.26 629.439L1749.72 673.147C1748.96 674.142 1747.77 674.72 1746.52 674.707C1745.26 674.695 1744.09 674.094 1743.34 673.084L1731.38 656.833C1730.07 655.06 1730.45 652.564 1732.22 651.259Z" fill="black"/>
<path fill-rule="evenodd" clip-rule="evenodd" d="M1722.62 628.857C1718.22 628.857 1714.64 632.427 1714.64 636.831V684.675C1714.64 689.079 1718.22 692.649 1722.62 692.649H1770.49C1774.9 692.649 1778.47 689.079 1778.47 684.675V660.753C1778.47 658.551 1780.25 656.766 1782.46 656.766C1784.66 656.766 1786.45 658.551 1786.45 660.753V684.675C1786.45 693.483 1779.3 700.623 1770.49 700.623H1722.62C1713.81 700.623 1706.67 693.483 1706.67 684.675V636.831C1706.67 628.023 1713.81 620.883 1722.62 620.883H1746.56C1748.76 620.883 1750.55 622.668 1750.55 624.87C1750.55 627.072 1748.76 628.857 1746.56 628.857H1722.62Z" fill="black"/>
</g>
</g>
<g id="Regular-S">
<g id="check.all.1_25">
<path fill-rule="evenodd" clip-rule="evenodd" d="M1435.68 651.361C1437.43 650.071 1439.9 650.446 1441.19 652.199L1449.91 664.036L1479.87 625C1481.19 623.274 1483.67 622.947 1485.39 624.272C1487.12 625.596 1487.45 628.07 1486.12 629.796L1452.97 672.993C1452.22 673.976 1451.05 674.548 1449.81 674.535C1448.57 674.523 1447.4 673.929 1446.67 672.931L1434.84 656.87C1433.55 655.118 1433.93 652.651 1435.68 651.361Z" fill="black"/>
<path fill-rule="evenodd" clip-rule="evenodd" d="M1426.19 629.221C1421.83 629.221 1418.3 632.749 1418.3 637.102V684.387C1418.3 688.739 1421.83 692.268 1426.19 692.268H1473.5C1477.86 692.268 1481.39 688.739 1481.39 684.387V660.744C1481.39 658.568 1483.15 656.804 1485.33 656.804C1487.51 656.804 1489.27 658.568 1489.27 660.744V684.387C1489.27 693.092 1482.21 700.148 1473.5 700.148H1426.19C1417.48 700.148 1410.42 693.092 1410.42 684.387V637.102C1410.42 628.397 1417.48 621.34 1426.19 621.34H1449.84C1452.02 621.34 1453.79 623.104 1453.79 625.28C1453.79 627.457 1452.02 629.221 1449.84 629.221H1426.19Z" fill="black"/>
</g>
</g>
<g id="Light-S">
<g id="check.all.1_26">
<path fill-rule="evenodd" clip-rule="evenodd" d="M1139.23 651.534C1140.95 650.268 1143.37 650.636 1144.64 652.357L1153.19 663.975L1182.59 625.66C1183.89 623.965 1186.32 623.644 1188.02 624.944C1189.71 626.244 1190.03 628.672 1188.73 630.367L1156.2 672.768C1155.46 673.733 1154.31 674.294 1153.09 674.281C1151.88 674.269 1150.74 673.686 1150.01 672.707L1138.41 656.942C1137.14 655.222 1137.51 652.801 1139.23 651.534Z" fill="black"/>
<path fill-rule="evenodd" clip-rule="evenodd" d="M1129.91 629.802C1125.64 629.802 1122.17 633.265 1122.17 637.538V683.951C1122.17 688.223 1125.64 691.687 1129.91 691.687H1176.35C1180.62 691.687 1184.09 688.223 1184.09 683.951V660.744C1184.09 658.608 1185.82 656.877 1187.96 656.877C1190.09 656.877 1191.83 658.608 1191.83 660.744V683.951C1191.83 692.496 1184.9 699.422 1176.35 699.422H1129.91C1121.37 699.422 1114.44 692.496 1114.44 683.951V637.538C1114.44 628.993 1121.37 622.066 1129.91 622.066H1153.13C1155.27 622.066 1157 623.798 1157 625.934C1157 628.07 1155.27 629.802 1153.13 629.802H1129.91Z" fill="black"/>
</g>
</g>
<g id="Thin-S">
<g id="check.all.1_27">
<path fill-rule="evenodd" clip-rule="evenodd" d="M842.87 651.763C844.547 650.528 846.909 650.887 848.144 652.565L856.485 663.895L885.145 626.531C886.413 624.878 888.781 624.566 890.434 625.834C892.088 627.101 892.4 629.469 891.132 631.122L859.416 672.468C858.694 673.41 857.572 673.956 856.386 673.945C855.199 673.933 854.088 673.364 853.385 672.409L842.068 657.036C840.833 655.359 841.192 652.998 842.87 651.763Z" fill="black"/>
<path fill-rule="evenodd" clip-rule="evenodd" d="M833.789 630.571C829.622 630.571 826.244 633.948 826.244 638.114V683.374C826.244 687.54 829.622 690.917 833.789 690.917H879.057C883.224 690.917 886.602 687.54 886.602 683.374V660.744C886.602 658.661 888.291 656.972 890.374 656.972C892.457 656.972 894.146 658.661 894.146 660.744V683.374C894.146 691.706 887.391 698.461 879.057 698.461H833.789C825.455 698.461 818.699 691.706 818.699 683.374V638.114C818.699 629.782 825.455 623.027 833.789 623.027H856.423C858.506 623.027 860.195 624.716 860.195 626.799C860.195 628.882 858.506 630.571 856.423 630.571H833.789Z" fill="black"/>
</g>
</g>
<g id="Ultralight-S">
<g id="check.all.1_28">
<path fill-rule="evenodd" clip-rule="evenodd" d="M546.337 651.88C547.992 650.661 550.323 651.016 551.541 652.671L559.773 663.854L588.055 626.978C589.307 625.346 591.643 625.038 593.275 626.289C594.906 627.54 595.214 629.877 593.963 631.508L562.665 672.316C561.953 673.244 560.845 673.784 559.675 673.773C558.504 673.761 557.407 673.2 556.713 672.257L545.545 657.085C544.327 655.429 544.681 653.099 546.337 651.88Z" fill="black"/>
<path fill-rule="evenodd" clip-rule="evenodd" d="M537.375 630.964C533.264 630.964 529.93 634.298 529.93 638.409V683.079C529.93 687.191 533.264 690.524 537.375 690.524H582.047C586.159 690.524 589.493 687.191 589.493 683.079V660.744C589.493 658.688 591.159 657.022 593.215 657.022C595.271 657.022 596.938 658.688 596.938 660.744V683.079C596.938 691.302 590.271 697.969 582.047 697.969H537.375C529.152 697.969 522.485 691.302 522.485 683.079V638.409C522.485 630.186 529.152 623.52 537.375 623.52H559.711C561.767 623.52 563.434 625.186 563.434 627.242C563.434 629.298 561.767 630.964 559.711 630.964H537.375Z" fill="black"/>
</g>
</g>
</g>
</g>
</svg>
