<svg width="3300" height="2200" viewBox="0 0 3300 2200" fill="none" xmlns="http://www.w3.org/2000/svg">
<g id="circle.fill.1">
<g id="Notes">
<path id="artboard" d="M3300 0H0V2200H3300V0Z" fill="white"/>
<path id="Vector" d="M263 292H3036" stroke="black" stroke-width="0.5"/>
<text id="Weight/Scale Variations" fill="black" xml:space="preserve" style="white-space: pre" font-family="Roboto" font-size="13" font-weight="bold" letter-spacing="0em"><tspan x="263" y="320.943">Weight/Scale Variations</tspan></text>
<text id="Ultralight" fill="black" xml:space="preserve" style="white-space: pre" font-family="Roboto" font-size="13" letter-spacing="0em"><tspan x="533.211" y="320.943">Ultralight</tspan></text>
<text id="Thin" fill="black" xml:space="preserve" style="white-space: pre" font-family="Roboto" font-size="13" letter-spacing="0em"><tspan x="843.422" y="320.943">Thin</tspan></text>
<text id="Light" fill="black" xml:space="preserve" style="white-space: pre" font-family="Roboto" font-size="13" letter-spacing="0em"><tspan x="1138.63" y="320.943">Light</tspan></text>
<text id="Regular" fill="black" xml:space="preserve" style="white-space: pre" font-family="Roboto" font-size="13" letter-spacing="0em"><tspan x="1427.34" y="320.943">Regular</tspan></text>
<text id="Medium" fill="black" xml:space="preserve" style="white-space: pre" font-family="Roboto" font-size="13" letter-spacing="0em"><tspan x="1722.56" y="320.943">Medium</tspan></text>
<text id="Semibold" fill="black" xml:space="preserve" style="white-space: pre" font-family="Roboto" font-size="13" letter-spacing="0em"><tspan x="2015.77" y="320.943">Semibold</tspan></text>
<text id="Bold" fill="black" xml:space="preserve" style="white-space: pre" font-family="Roboto" font-size="13" letter-spacing="0em"><tspan x="2326.48" y="320.943">Bold</tspan></text>
<text id="Heavy" fill="black" xml:space="preserve" style="white-space: pre" font-family="Roboto" font-size="13" letter-spacing="0em"><tspan x="2618.69" y="320.943">Heavy</tspan></text>
<text id="Black" fill="black" xml:space="preserve" style="white-space: pre" font-family="Roboto" font-size="13" letter-spacing="0em"><tspan x="2917.4" y="320.943">Black</tspan></text>
<path id="Vector_2" d="M263 1903H3036" stroke="black" stroke-width="0.5"/>
<g id="Group">
<path id="Vector_3" d="M272.248 1933.83C273.329 1933.83 274.344 1933.63 275.295 1933.22C276.245 1932.81 277.084 1932.24 277.81 1931.51C278.535 1930.78 279.105 1929.94 279.519 1928.99C279.932 1928.04 280.139 1927.03 280.139 1925.95C280.139 1924.88 279.932 1923.86 279.519 1922.91C279.105 1921.96 278.534 1921.12 277.805 1920.39C277.075 1919.67 276.236 1919.1 275.285 1918.69C274.335 1918.28 273.319 1918.07 272.238 1918.07C271.164 1918.07 270.152 1918.28 269.201 1918.69C268.251 1919.1 267.414 1919.67 266.691 1920.39C265.969 1921.12 265.401 1921.96 264.987 1922.91C264.574 1923.86 264.367 1924.88 264.367 1925.95C264.367 1927.03 264.574 1928.04 264.987 1928.99C265.401 1929.94 265.97 1930.78 266.696 1931.51C267.422 1932.24 268.26 1932.81 269.211 1933.22C270.161 1933.63 271.174 1933.83 272.248 1933.83ZM272.248 1932.35C271.363 1932.35 270.534 1932.18 269.763 1931.85C268.991 1931.53 268.314 1931.07 267.731 1930.48C267.149 1929.9 266.693 1929.22 266.364 1928.44C266.035 1927.67 265.871 1926.84 265.871 1925.95C265.871 1925.07 266.034 1924.24 266.359 1923.46C266.685 1922.69 267.139 1922.01 267.722 1921.42C268.304 1920.83 268.981 1920.38 269.753 1920.05C270.524 1919.72 271.353 1919.55 272.238 1919.55C273.13 1919.55 273.962 1919.72 274.733 1920.05C275.505 1920.38 276.184 1920.83 276.769 1921.42C277.355 1922.01 277.814 1922.69 278.146 1923.46C278.478 1924.24 278.644 1925.07 278.644 1925.95C278.644 1926.84 278.48 1927.67 278.151 1928.44C277.823 1929.22 277.367 1929.9 276.784 1930.48C276.202 1931.07 275.523 1931.53 274.748 1931.85C273.973 1932.18 273.14 1932.35 272.248 1932.35ZM268.654 1925.95C268.654 1926.17 268.723 1926.34 268.859 1926.47C268.996 1926.61 269.178 1926.67 269.406 1926.67H271.516V1928.79C271.516 1929.01 271.581 1929.19 271.711 1929.33C271.841 1929.47 272.017 1929.54 272.238 1929.54C272.453 1929.54 272.631 1929.47 272.771 1929.33C272.91 1929.19 272.98 1929.01 272.98 1928.79V1926.67H275.09C275.311 1926.67 275.49 1926.61 275.627 1926.47C275.764 1926.34 275.832 1926.17 275.832 1925.95C275.832 1925.73 275.764 1925.55 275.627 1925.41C275.49 1925.28 275.311 1925.21 275.09 1925.21H272.98V1923.1C272.98 1922.88 272.91 1922.7 272.771 1922.56C272.631 1922.42 272.453 1922.35 272.238 1922.35C272.017 1922.35 271.841 1922.42 271.711 1922.56C271.581 1922.7 271.516 1922.88 271.516 1923.1V1925.21H269.406C269.178 1925.21 268.996 1925.28 268.859 1925.41C268.723 1925.55 268.654 1925.73 268.654 1925.95Z" fill="black"/>
</g>
<g id="Group_2">
<path id="Vector_4" d="M293.576 1935.91C294.937 1935.91 296.218 1935.65 297.419 1935.13C298.62 1934.61 299.68 1933.89 300.598 1932.97C301.516 1932.05 302.235 1930.99 302.756 1929.79C303.277 1928.59 303.537 1927.31 303.537 1925.95C303.537 1924.59 303.277 1923.31 302.756 1922.11C302.235 1920.91 301.516 1919.85 300.598 1918.93C299.68 1918.01 298.618 1917.29 297.414 1916.77C296.21 1916.25 294.927 1915.99 293.566 1915.99C292.206 1915.99 290.925 1916.25 289.724 1916.77C288.522 1917.29 287.465 1918.01 286.55 1918.93C285.635 1919.85 284.917 1920.91 284.396 1922.11C283.876 1923.31 283.615 1924.59 283.615 1925.95C283.615 1927.31 283.876 1928.59 284.396 1929.79C284.917 1930.99 285.637 1932.05 286.555 1932.97C287.473 1933.89 288.532 1934.61 289.733 1935.13C290.935 1935.65 292.215 1935.91 293.576 1935.91ZM293.576 1934.25C292.424 1934.25 291.346 1934.04 290.344 1933.61C289.341 1933.18 288.461 1932.58 287.702 1931.82C286.944 1931.06 286.351 1930.18 285.925 1929.18C285.498 1928.18 285.285 1927.1 285.285 1925.95C285.285 1924.8 285.498 1923.72 285.925 1922.72C286.351 1921.71 286.942 1920.83 287.697 1920.07C288.452 1919.31 289.331 1918.71 290.334 1918.29C291.337 1917.86 292.414 1917.65 293.566 1917.65C294.719 1917.65 295.796 1917.86 296.799 1918.29C297.801 1918.71 298.684 1919.31 299.445 1920.07C300.207 1920.83 300.803 1921.71 301.232 1922.72C301.662 1923.72 301.877 1924.8 301.877 1925.95C301.877 1927.1 301.664 1928.18 301.237 1929.18C300.811 1930.18 300.218 1931.06 299.46 1931.82C298.702 1932.58 297.819 1933.18 296.813 1933.61C295.808 1934.04 294.729 1934.25 293.576 1934.25ZM289.045 1925.95C289.045 1926.18 289.123 1926.38 289.279 1926.53C289.436 1926.68 289.637 1926.75 289.885 1926.75H292.756V1929.63C292.756 1929.88 292.831 1930.08 292.98 1930.23C293.13 1930.38 293.322 1930.46 293.557 1930.46C293.804 1930.46 294.004 1930.38 294.157 1930.23C294.31 1930.08 294.387 1929.88 294.387 1929.63V1926.75H297.268C297.515 1926.75 297.715 1926.68 297.868 1926.53C298.021 1926.38 298.098 1926.18 298.098 1925.95C298.098 1925.7 298.021 1925.5 297.868 1925.35C297.715 1925.2 297.515 1925.12 297.268 1925.12H294.387V1922.25C294.387 1921.99 294.31 1921.79 294.157 1921.64C294.004 1921.48 293.804 1921.41 293.557 1921.41C293.322 1921.41 293.13 1921.49 292.98 1921.64C292.831 1921.8 292.756 1922 292.756 1922.25V1925.12H289.885C289.631 1925.12 289.427 1925.2 289.274 1925.35C289.121 1925.5 289.045 1925.7 289.045 1925.95Z" fill="black"/>
</g>
<g id="Group_3">
<path id="Vector_5" d="M320.617 1938.67C322.01 1938.67 323.34 1938.45 324.606 1938.02C325.873 1937.58 327.036 1936.98 328.098 1936.2C329.159 1935.41 330.082 1934.49 330.866 1933.43C331.651 1932.37 332.259 1931.21 332.692 1929.94C333.125 1928.67 333.342 1927.34 333.342 1925.95C333.342 1924.56 333.125 1923.23 332.692 1921.96C332.259 1920.7 331.651 1919.53 330.866 1918.47C330.082 1917.41 329.159 1916.49 328.098 1915.7C327.036 1914.92 325.871 1914.31 324.602 1913.88C323.332 1913.44 322.001 1913.23 320.607 1913.23C319.214 1913.23 317.884 1913.44 316.618 1913.88C315.352 1914.31 314.19 1914.92 313.132 1915.7C312.074 1916.49 311.153 1917.41 310.368 1918.47C309.584 1919.53 308.977 1920.7 308.547 1921.96C308.117 1923.23 307.902 1924.56 307.902 1925.95C307.902 1927.34 308.119 1928.67 308.552 1929.94C308.985 1931.21 309.592 1932.37 310.373 1933.43C311.154 1934.49 312.076 1935.41 313.137 1936.2C314.198 1936.98 315.362 1937.58 316.628 1938.02C317.894 1938.45 319.224 1938.67 320.617 1938.67ZM320.617 1936.85C319.413 1936.85 318.265 1936.67 317.175 1936.3C316.084 1935.93 315.087 1935.41 314.182 1934.75C313.277 1934.09 312.491 1933.3 311.823 1932.39C311.156 1931.48 310.64 1930.48 310.275 1929.39C309.911 1928.3 309.729 1927.16 309.729 1925.95C309.729 1924.74 309.911 1923.59 310.275 1922.5C310.64 1921.41 311.154 1920.41 311.818 1919.5C312.482 1918.59 313.267 1917.81 314.172 1917.14C315.077 1916.48 316.075 1915.96 317.165 1915.6C318.256 1915.24 319.403 1915.05 320.607 1915.05C321.818 1915.05 322.969 1915.24 324.06 1915.6C325.15 1915.96 326.149 1916.48 327.058 1917.14C327.966 1917.81 328.752 1918.59 329.416 1919.5C330.08 1920.41 330.596 1921.41 330.964 1922.5C331.332 1923.59 331.516 1924.74 331.516 1925.95C331.522 1927.16 331.343 1928.3 330.978 1929.39C330.614 1930.48 330.098 1931.48 329.431 1932.39C328.763 1933.3 327.976 1934.09 327.067 1934.75C326.159 1935.41 325.16 1935.93 324.069 1936.3C322.979 1936.67 321.828 1936.85 320.617 1936.85ZM314.846 1925.95C314.846 1926.21 314.932 1926.42 315.104 1926.58C315.277 1926.75 315.497 1926.83 315.764 1926.83H319.709V1930.79C319.709 1931.05 319.792 1931.27 319.958 1931.44C320.124 1931.62 320.337 1931.7 320.598 1931.7C320.865 1931.7 321.084 1931.62 321.257 1931.45C321.429 1931.28 321.516 1931.06 321.516 1930.79V1926.83H325.471C325.738 1926.83 325.956 1926.75 326.125 1926.58C326.294 1926.42 326.379 1926.21 326.379 1925.95C326.379 1925.68 326.294 1925.46 326.125 1925.29C325.956 1925.12 325.738 1925.03 325.471 1925.03H321.516V1921.09C321.516 1920.81 321.429 1920.59 321.257 1920.42C321.084 1920.25 320.865 1920.16 320.598 1920.16C320.337 1920.16 320.124 1920.25 319.958 1920.42C319.792 1920.59 319.709 1920.81 319.709 1921.09V1925.03H315.764C315.49 1925.03 315.269 1925.12 315.1 1925.29C314.93 1925.46 314.846 1925.68 314.846 1925.95Z" fill="black"/>
</g>
<text id="Design Variations" fill="black" xml:space="preserve" style="white-space: pre" font-family="Roboto" font-size="13" font-weight="bold" letter-spacing="0em"><tspan x="263" y="1951.94">Design Variations</tspan></text>
<text id="Symbols are supported in up to nine weights and three scales." fill="black" xml:space="preserve" style="white-space: pre" font-family="Roboto" font-size="13" letter-spacing="0em"><tspan x="263" y="1969.94">Symbols are supported in up to nine weights and three scales.</tspan></text>
<text id="For optimal layout with text and other symbols, vertically align" fill="black" xml:space="preserve" style="white-space: pre" font-family="Roboto" font-size="13" letter-spacing="0em"><tspan x="263" y="1987.94">For optimal layout with text and other symbols, vertically align</tspan></text>
<text id="symbols with the adjacent text." fill="black" xml:space="preserve" style="white-space: pre" font-family="Roboto" font-size="13" letter-spacing="0em"><tspan x="263" y="2005.94">symbols with the adjacent text.</tspan></text>
<path id="Vector_6" d="M776 1919V1933" stroke="#00AEEF" stroke-width="0.5"/>
<g id="Group_4">
<path id="Vector_7" d="M779.311 1933.16C779.571 1933.16 779.773 1933.1 779.916 1932.99C780.059 1932.88 780.176 1932.69 780.268 1932.42L781.527 1928.97H787.289L788.549 1932.42C788.64 1932.69 788.757 1932.88 788.9 1932.99C789.044 1933.1 789.242 1933.16 789.496 1933.16C789.757 1933.16 789.963 1933.09 790.116 1932.94C790.269 1932.8 790.346 1932.6 790.346 1932.36C790.346 1932.21 790.31 1932.03 790.238 1931.83L785.658 1919.63C785.541 1919.33 785.382 1919.11 785.18 1918.96C784.978 1918.81 784.721 1918.73 784.408 1918.73C783.803 1918.73 783.393 1919.03 783.178 1919.62L778.598 1931.84C778.526 1932.04 778.49 1932.22 778.49 1932.37C778.49 1932.61 778.563 1932.81 778.71 1932.95C778.856 1933.09 779.057 1933.16 779.311 1933.16ZM782.006 1927.48L784.379 1920.91H784.428L786.801 1927.48H782.006Z" fill="black"/>
</g>
<path id="Vector_8" d="M793.197 1919V1933" stroke="#00AEEF" stroke-width="0.5"/>
<text id="Margins" fill="black" xml:space="preserve" style="white-space: pre" font-family="Roboto" font-size="13" font-weight="bold" letter-spacing="0em"><tspan x="776" y="1951.94">Margins</tspan></text>
<text id="Leading and trailing margins on the left and right side of each symbol" fill="black" xml:space="preserve" style="white-space: pre" font-family="Roboto" font-size="13" letter-spacing="0em"><tspan x="776" y="1969.94">Leading and trailing margins on the left and right side of each symbol</tspan></text>
<text id="can be adjusted by modifying the x-location of the margin guidelines." fill="black" xml:space="preserve" style="white-space: pre" font-family="Roboto" font-size="13" letter-spacing="0em"><tspan x="776" y="1987.94">can be adjusted by modifying the x-location of the margin guidelines.</tspan></text>
<text id="Modifications are automatically applied proportionally to all" fill="black" xml:space="preserve" style="white-space: pre" font-family="Roboto" font-size="13" letter-spacing="0em"><tspan x="776" y="2005.94">Modifications are automatically applied proportionally to all</tspan></text>
<text id="scales and weights." fill="black" xml:space="preserve" style="white-space: pre" font-family="Roboto" font-size="13" letter-spacing="0em"><tspan x="776" y="2023.94">scales and weights.</tspan></text>
<g id="Group_5">
<path id="Vector_9" d="M1291.84 1934.86L1293.54 1936.57C1293.97 1937.01 1294.42 1937.21 1294.9 1937.18C1295.38 1937.15 1295.85 1936.87 1296.31 1936.36L1307.01 1924.57L1306.04 1923.59L1295.43 1935.27C1295.25 1935.48 1295.07 1935.59 1294.89 1935.62C1294.71 1935.64 1294.51 1935.54 1294.27 1935.3L1293.1 1934.14C1292.87 1933.91 1292.76 1933.7 1292.79 1933.52C1292.82 1933.34 1292.94 1933.16 1293.14 1932.98L1304.61 1922.18L1303.64 1921.21L1292.05 1932.1C1291.55 1932.56 1291.29 1933.02 1291.25 1933.5C1291.21 1933.97 1291.41 1934.43 1291.84 1934.86ZM1298.26 1916.67C1298.05 1916.87 1297.93 1917.1 1297.91 1917.36C1297.88 1917.62 1297.93 1917.85 1298.04 1918.05C1298.16 1918.23 1298.33 1918.37 1298.55 1918.46C1298.78 1918.55 1299.05 1918.55 1299.38 1918.48C1300.11 1918.31 1300.85 1918.24 1301.6 1918.27C1302.35 1918.3 1303.08 1918.54 1303.79 1919.01L1303.21 1920.47C1303.04 1920.89 1302.99 1921.25 1303.07 1921.56C1303.14 1921.87 1303.31 1922.16 1303.58 1922.43L1305.87 1924.75C1306.12 1924.99 1306.35 1925.14 1306.58 1925.18C1306.81 1925.21 1307.06 1925.21 1307.34 1925.16L1308.4 1924.96L1309.07 1925.63L1309.03 1926.19C1309.01 1926.44 1309.04 1926.67 1309.12 1926.88C1309.2 1927.08 1309.36 1927.31 1309.6 1927.55L1310.37 1928.29C1310.61 1928.53 1310.87 1928.66 1311.15 1928.67C1311.44 1928.68 1311.69 1928.56 1311.93 1928.33L1314.84 1925.41C1315.07 1925.18 1315.19 1924.92 1315.18 1924.64C1315.17 1924.37 1315.05 1924.11 1314.81 1923.87L1314.04 1923.11C1313.8 1922.86 1313.58 1922.7 1313.38 1922.61C1313.17 1922.52 1312.95 1922.49 1312.71 1922.51L1312.13 1922.56L1311.49 1921.92L1311.73 1920.8C1311.8 1920.52 1311.79 1920.26 1311.69 1920.01C1311.6 1919.77 1311.41 1919.5 1311.12 1919.21L1308.92 1917.02C1308.09 1916.19 1307.2 1915.57 1306.26 1915.16C1305.32 1914.75 1304.37 1914.53 1303.42 1914.52C1302.46 1914.5 1301.55 1914.67 1300.66 1915.04C1299.78 1915.4 1298.98 1915.95 1298.26 1916.67ZM1299.75 1917.04C1300.36 1916.6 1301.01 1916.28 1301.7 1916.09C1302.39 1915.9 1303.09 1915.84 1303.8 1915.91C1304.51 1915.98 1305.2 1916.17 1305.87 1916.48C1306.54 1916.8 1307.15 1917.23 1307.7 1917.79L1310.13 1920.21C1310.25 1920.32 1310.32 1920.44 1310.35 1920.55C1310.38 1920.66 1310.38 1920.8 1310.34 1920.97L1310.01 1922.45L1311.52 1923.94L1312.51 1923.88C1312.63 1923.87 1312.72 1923.88 1312.79 1923.9C1312.85 1923.92 1312.93 1923.98 1313.03 1924.08L1313.61 1924.66L1311.17 1927.1L1310.59 1926.52C1310.49 1926.43 1310.43 1926.34 1310.41 1926.28C1310.38 1926.21 1310.37 1926.12 1310.38 1925.99L1310.44 1925.01L1308.95 1923.53L1307.43 1923.78C1307.26 1923.81 1307.14 1923.82 1307.04 1923.79C1306.95 1923.77 1306.84 1923.7 1306.71 1923.58L1304.71 1921.58C1304.58 1921.46 1304.51 1921.35 1304.49 1921.25C1304.48 1921.14 1304.51 1920.99 1304.59 1920.81L1305.46 1918.72C1304.68 1917.99 1303.8 1917.49 1302.83 1917.21C1301.85 1916.93 1300.85 1916.94 1299.84 1917.24C1299.76 1917.26 1299.71 1917.24 1299.69 1917.19C1299.66 1917.14 1299.69 1917.09 1299.75 1917.04Z" fill="black"/>
</g>
<text id="Exporting" fill="black" xml:space="preserve" style="white-space: pre" font-family="Roboto" font-size="13" font-weight="bold" letter-spacing="0em"><tspan x="1289" y="1951.94">Exporting</tspan></text>
<text id="Symbols should be outlined when exporting to ensure the" fill="black" xml:space="preserve" style="white-space: pre" font-family="Roboto" font-size="13" letter-spacing="0em"><tspan x="1289" y="1969.94">Symbols should be outlined when exporting to ensure the</tspan></text>
<text id="design is preserved when submitting to Xcode." fill="black" xml:space="preserve" style="white-space: pre" font-family="Roboto" font-size="13" letter-spacing="0em"><tspan x="1289" y="1987.94">design is preserved when submitting to Xcode.</tspan></text>
<text id="template-version" fill="black" xml:space="preserve" style="white-space: pre" font-family="Roboto" font-size="13" letter-spacing="0em"><tspan x="2951" y="1931.94">Template v.3.0</tspan></text>
<text id="Requires Xcode 13 or greater" fill="black" xml:space="preserve" style="white-space: pre" font-family="Roboto" font-size="13" letter-spacing="0em"><tspan x="2868" y="1949.94">Requires Xcode 13 or greater</tspan></text>
<text id="descriptive-name" fill="black" xml:space="preserve" style="white-space: pre" font-family="Roboto" font-size="13" letter-spacing="0em"><tspan x="2911" y="1967.94">Generated from circle</tspan></text>
<text id="Typeset at 100 points" fill="black" xml:space="preserve" style="white-space: pre" font-family="Roboto" font-size="13" letter-spacing="0em"><tspan x="2911" y="1985.94">Typeset at 100 points</tspan></text>
<text id="Small" fill="black" xml:space="preserve" style="white-space: pre" font-family="Roboto" font-size="13" letter-spacing="0em"><tspan x="263" y="724.943">Small</tspan></text>
<text id="Medium_2" fill="black" xml:space="preserve" style="white-space: pre" font-family="Roboto" font-size="13" letter-spacing="0em"><tspan x="263" y="1154.94">Medium</tspan></text>
<text id="Large" fill="black" xml:space="preserve" style="white-space: pre" font-family="Roboto" font-size="13" letter-spacing="0em"><tspan x="263" y="1584.94">Large</tspan></text>
</g>
<g id="Guides">
<g id="H-reference">
<path id="Vector_10" d="M339.994 696.002H342.638L368.329 628.869H369.031V625.543H367.123L339.994 696.002ZM350.689 671.522H385.983L385.232 669.273H351.439L350.689 671.522ZM394.12 696.002H396.764L369.639 625.543H368.433V628.869L394.12 696.002Z" fill="#27AAE1"/>
</g>
<path id="Baseline-S" d="M263 696H3036" stroke="#27AAE1" stroke-width="0.5"/>
<path id="Capline-S" d="M263 625.543H3036" stroke="#27AAE1" stroke-width="0.5"/>
<g id="H-reference_2">
<path id="Vector_11" d="M339.994 1126H342.638L368.329 1058.87H369.031V1055.54H367.123L339.994 1126ZM350.689 1101.52H385.983L385.232 1099.27H351.439L350.689 1101.52ZM394.12 1126H396.764L369.639 1055.54H368.433V1058.87L394.12 1126Z" fill="#27AAE1"/>
</g>
<path id="Baseline-M" d="M263 1126H3036" stroke="#27AAE1" stroke-width="0.5"/>
<path id="Capline-M" d="M263 1055.54H3036" stroke="#27AAE1" stroke-width="0.5"/>
<g id="H-reference_3">
<path id="Vector_12" d="M339.994 1556H342.638L368.329 1488.87H369.031V1485.54H367.123L339.994 1556ZM350.689 1531.52H385.983L385.232 1529.27H351.439L350.689 1531.52ZM394.12 1556H396.764L369.639 1485.54H368.433V1488.87L394.12 1556Z" fill="#27AAE1"/>
</g>
<path id="Baseline-L" d="M263 1556H3036" stroke="#27AAE1" stroke-width="0.5"/>
<path id="Capline-L" d="M263 1485.54H3036" stroke="#27AAE1" stroke-width="0.5"/>
<path id="left-margin-Ultralight-S" d="M515.648 600.785V720.121" stroke="#00AEEF" stroke-width="0.5"/>
<path id="right-margin-Ultralight-S" d="M603.773 600.785V720.121" stroke="#00AEEF" stroke-width="0.5"/>
<path id="left-margin-Thin-S" d="M811.863 600.785V720.121" stroke="#00AEEF" stroke-width="0.5"/>
<path id="right-margin-Thin-S" d="M900.982 600.785V720.121" stroke="#00AEEF" stroke-width="0.5"/>
<path id="left-margin-Light-S" d="M1107.6 600.785V720.121" stroke="#00AEEF" stroke-width="0.5"/>
<path id="right-margin-Light-S" d="M1198.66 600.785V720.121" stroke="#00AEEF" stroke-width="0.5"/>
<path id="left-margin-Regular-S" d="M1403.58 600.785V720.121" stroke="#00AEEF" stroke-width="0.5"/>
<path id="right-margin-Regular-S" d="M1496.11 600.785V720.121" stroke="#00AEEF" stroke-width="0.5"/>
<path id="left-margin-Medium-S" d="M1699.83 600.785V720.121" stroke="#00AEEF" stroke-width="0.5"/>
<path id="right-margin-Medium-S" d="M1793.28 600.785V720.121" stroke="#00AEEF" stroke-width="0.5"/>
<path id="left-margin-Semibold-S" d="M1996.19 600.785V720.121" stroke="#00AEEF" stroke-width="0.5"/>
<path id="right-margin-Semibold-S" d="M2090.35 600.785V720.121" stroke="#00AEEF" stroke-width="0.5"/>
<path id="left-margin-Bold-S" d="M2292.43 600.785V720.121" stroke="#00AEEF" stroke-width="0.5"/>
<path id="right-margin-Bold-S" d="M2387.52 600.785V720.121" stroke="#00AEEF" stroke-width="0.5"/>
<path id="left-margin-Heavy-S" d="M2588.47 600.785V720.121" stroke="#00AEEF" stroke-width="0.5"/>
<path id="right-margin-Heavy-S" d="M2684.91 600.785V720.121" stroke="#00AEEF" stroke-width="0.5"/>
<path id="left-margin-Black-S" d="M2884.57 600.785V720.121" stroke="#00AEEF" stroke-width="0.5"/>
<path id="right-margin-Black-S" d="M2982.23 600.785V720.121" stroke="#00AEEF" stroke-width="0.5"/>
<path id="left-margin-Ultralight-M" d="M503.641 1030.79V1150.12" stroke="#00AEEF" stroke-width="0.5"/>
<path id="right-margin-Ultralight-M" d="M615.781 1030.79V1150.12" stroke="#00AEEF" stroke-width="0.5"/>
<path id="left-margin-Thin-M" d="M799.793 1030.79V1150.12" stroke="#00AEEF" stroke-width="0.5"/>
<path id="right-margin-Thin-M" d="M913.051 1030.79V1150.12" stroke="#00AEEF" stroke-width="0.5"/>
<path id="left-margin-Light-M" d="M1095.41 1030.79V1150.12" stroke="#00AEEF" stroke-width="0.5"/>
<path id="right-margin-Light-M" d="M1210.85 1030.79V1150.12" stroke="#00AEEF" stroke-width="0.5"/>
<path id="left-margin-Regular-M" d="M1391.3 1030.79V1150.12" stroke="#00AEEF" stroke-width="0.5"/>
<path id="right-margin-Regular-M" d="M1508.39 1030.79V1150.12" stroke="#00AEEF" stroke-width="0.5"/>
<path id="left-margin-Medium-M" d="M1687.37 1030.79V1150.12" stroke="#00AEEF" stroke-width="0.5"/>
<path id="right-margin-Medium-M" d="M1805.74 1030.79V1150.12" stroke="#00AEEF" stroke-width="0.5"/>
<path id="left-margin-Semibold-M" d="M1983.6 1030.79V1150.12" stroke="#00AEEF" stroke-width="0.5"/>
<path id="right-margin-Semibold-M" d="M2102.94 1030.79V1150.12" stroke="#00AEEF" stroke-width="0.5"/>
<path id="left-margin-Bold-M" d="M2279.66 1030.79V1150.12" stroke="#00AEEF" stroke-width="0.5"/>
<path id="right-margin-Bold-M" d="M2400.29 1030.79V1150.12" stroke="#00AEEF" stroke-width="0.5"/>
<path id="left-margin-Heavy-M" d="M2575.44 1030.79V1150.12" stroke="#00AEEF" stroke-width="0.5"/>
<path id="right-margin-Heavy-M" d="M2697.94 1030.79V1150.12" stroke="#00AEEF" stroke-width="0.5"/>
<path id="left-margin-Black-M" d="M2871.32 1030.79V1150.12" stroke="#00AEEF" stroke-width="0.5"/>
<path id="right-margin-Black-M" d="M2995.48 1030.79V1150.12" stroke="#00AEEF" stroke-width="0.5"/>
<path id="left-margin-Ultralight-L" d="M487.604 1460.79V1580.12" stroke="#00AEEF" stroke-width="0.5"/>
<path id="right-margin-Ultralight-L" d="M631.818 1460.79V1580.12" stroke="#00AEEF" stroke-width="0.5"/>
<path id="left-margin-Thin-L" d="M783.689 1460.79V1580.12" stroke="#00AEEF" stroke-width="0.5"/>
<path id="right-margin-Thin-L" d="M929.156 1460.79V1580.12" stroke="#00AEEF" stroke-width="0.5"/>
<path id="left-margin-Light-L" d="M1079.18 1460.79V1580.12" stroke="#00AEEF" stroke-width="0.5"/>
<path id="right-margin-Light-L" d="M1227.09 1460.79V1580.12" stroke="#00AEEF" stroke-width="0.5"/>
<path id="left-margin-Regular-L" d="M1374.97 1460.79V1580.12" stroke="#00AEEF" stroke-width="0.5"/>
<path id="right-margin-Regular-L" d="M1524.72 1460.79V1580.12" stroke="#00AEEF" stroke-width="0.5"/>
<path id="left-margin-Medium-L" d="M1670.87 1460.79V1580.12" stroke="#00AEEF" stroke-width="0.5"/>
<path id="right-margin-Medium-L" d="M1822.24 1460.79V1580.12" stroke="#00AEEF" stroke-width="0.5"/>
<path id="left-margin-Semibold-L" d="M1966.97 1460.79V1580.12" stroke="#00AEEF" stroke-width="0.5"/>
<path id="right-margin-Semibold-L" d="M2119.57 1460.79V1580.12" stroke="#00AEEF" stroke-width="0.5"/>
<path id="left-margin-Bold-L" d="M2262.87 1460.79V1580.12" stroke="#00AEEF" stroke-width="0.5"/>
<path id="right-margin-Bold-L" d="M2417.09 1460.79V1580.12" stroke="#00AEEF" stroke-width="0.5"/>
<path id="left-margin-Heavy-L" d="M2558.4 1460.79V1580.12" stroke="#00AEEF" stroke-width="0.5"/>
<path id="right-margin-Heavy-L" d="M2714.98 1460.79V1580.12" stroke="#00AEEF" stroke-width="0.5"/>
<path id="left-margin-Black-L" d="M2854.05 1460.79V1580.12" stroke="#00AEEF" stroke-width="0.5"/>
<path id="right-margin-Black-L" d="M3012.75 1460.79V1580.12" stroke="#00AEEF" stroke-width="0.5"/>
</g>
<g id="Symbols">
<g id="Black-L">
<path id="circle.fill.1_2" fill-rule="evenodd" clip-rule="evenodd" d="M2933.39 1561.63C2955.95 1561.63 2974.23 1543.35 2974.23 1520.79C2974.23 1498.24 2955.95 1479.95 2933.39 1479.95C2910.84 1479.95 2892.55 1498.24 2892.55 1520.79C2892.55 1543.35 2910.84 1561.63 2933.39 1561.63Z" fill="black"/>
</g>
<g id="Heavy-L">
<path id="circle.fill.1_3" fill-rule="evenodd" clip-rule="evenodd" d="M2636.69 1560.98C2658.9 1560.98 2676.9 1542.98 2676.9 1520.77C2676.9 1498.57 2658.9 1480.57 2636.69 1480.57C2614.48 1480.57 2596.48 1498.57 2596.48 1520.77C2596.48 1542.98 2614.48 1560.98 2636.69 1560.98Z" fill="black"/>
</g>
<g id="Bold-L">
<path id="circle.fill.1_4" fill-rule="evenodd" clip-rule="evenodd" d="M2339.98 1560.26C2361.79 1560.26 2379.48 1542.57 2379.48 1520.76C2379.48 1498.94 2361.79 1481.26 2339.98 1481.26C2318.16 1481.26 2300.48 1498.94 2300.48 1520.76C2300.48 1542.57 2318.16 1560.26 2339.98 1560.26Z" fill="black"/>
</g>
<g id="Semibold-L">
<path id="circle.fill.1_5" fill-rule="evenodd" clip-rule="evenodd" d="M2043.27 1559.75C2064.81 1559.75 2082.28 1542.29 2082.28 1520.74C2082.28 1499.2 2064.81 1481.73 2043.27 1481.73C2021.72 1481.73 2004.26 1499.2 2004.26 1520.74C2004.26 1542.29 2021.72 1559.75 2043.27 1559.75Z" fill="black"/>
</g>
<g id="Medium-L">
<path id="circle.fill.1_6" fill-rule="evenodd" clip-rule="evenodd" d="M1746.55 1559.37C1767.89 1559.37 1785.19 1542.07 1785.19 1520.73C1785.19 1499.39 1767.89 1482.09 1746.55 1482.09C1725.21 1482.09 1707.91 1499.39 1707.91 1520.73C1707.91 1542.07 1725.21 1559.37 1746.55 1559.37Z" fill="black"/>
</g>
<g id="Regular-L">
<path id="circle.fill.1_7" fill-rule="evenodd" clip-rule="evenodd" d="M1449.85 1558.88C1470.92 1558.88 1488.01 1541.8 1488.01 1520.72C1488.01 1499.65 1470.92 1482.56 1449.85 1482.56C1428.77 1482.56 1411.69 1499.65 1411.69 1520.72C1411.69 1541.8 1428.77 1558.88 1449.85 1558.88Z" fill="black"/>
</g>
<g id="Light-L">
<path id="circle.fill.1_8" fill-rule="evenodd" clip-rule="evenodd" d="M1153.13 1558.32C1173.9 1558.32 1190.74 1541.49 1190.74 1520.72C1190.74 1499.95 1173.9 1483.11 1153.13 1483.11C1132.37 1483.11 1115.53 1499.95 1115.53 1520.72C1115.53 1541.49 1132.37 1558.32 1153.13 1558.32Z" fill="black"/>
</g>
<g id="Thin-L">
<path id="circle.fill.1_9" fill-rule="evenodd" clip-rule="evenodd" d="M856.421 1557.59C876.785 1557.59 893.293 1541.08 893.293 1520.72C893.293 1500.36 876.785 1483.85 856.421 1483.85C836.057 1483.85 819.549 1500.36 819.549 1520.72C819.549 1541.08 836.057 1557.59 856.421 1557.59Z" fill="black"/>
</g>
<g id="Ultralight-L">
<path id="circle.fill.1_10" fill-rule="evenodd" clip-rule="evenodd" d="M559.71 1557.22C579.867 1557.22 596.208 1540.88 596.208 1520.72C596.208 1500.56 579.867 1484.22 559.71 1484.22C539.553 1484.22 523.213 1500.56 523.213 1520.72C523.213 1540.88 539.553 1557.22 559.71 1557.22Z" fill="black"/>
</g>
<g id="Black-M">
<path id="circle.fill.1_11" fill-rule="evenodd" clip-rule="evenodd" d="M2933.4 1122.79C2951.08 1122.79 2965.41 1108.46 2965.41 1090.79C2965.41 1073.12 2951.08 1058.8 2933.4 1058.8C2915.73 1058.8 2901.4 1073.12 2901.4 1090.79C2901.4 1108.46 2915.73 1122.79 2933.4 1122.79Z" fill="black"/>
</g>
<g id="Heavy-M">
<path id="circle.fill.1_12" fill-rule="evenodd" clip-rule="evenodd" d="M2636.69 1122.27C2654.09 1122.27 2668.19 1108.17 2668.19 1090.78C2668.19 1073.39 2654.09 1059.29 2636.69 1059.29C2619.29 1059.29 2605.18 1073.39 2605.18 1090.78C2605.18 1108.17 2619.29 1122.27 2636.69 1122.27Z" fill="black"/>
</g>
<g id="Bold-M">
<path id="circle.fill.1_13" fill-rule="evenodd" clip-rule="evenodd" d="M2339.97 1121.71C2357.06 1121.71 2370.92 1107.86 2370.92 1090.77C2370.92 1073.68 2357.06 1059.83 2339.97 1059.83C2322.88 1059.83 2309.03 1073.68 2309.03 1090.77C2309.03 1107.86 2322.88 1121.71 2339.97 1121.71Z" fill="black"/>
</g>
<g id="Semibold-M">
<path id="circle.fill.1_14" fill-rule="evenodd" clip-rule="evenodd" d="M2043.27 1121.31C2060.15 1121.31 2073.83 1107.63 2073.83 1090.76C2073.83 1073.89 2060.15 1060.21 2043.27 1060.21C2026.39 1060.21 2012.71 1073.89 2012.71 1090.76C2012.71 1107.63 2026.39 1121.31 2043.27 1121.31Z" fill="black"/>
</g>
<g id="Medium-M">
<path id="circle.fill.1_15" fill-rule="evenodd" clip-rule="evenodd" d="M1746.55 1121.02C1763.27 1121.02 1776.82 1107.47 1776.82 1090.75C1776.82 1074.04 1763.27 1060.49 1746.55 1060.49C1729.84 1060.49 1716.29 1074.04 1716.29 1090.75C1716.29 1107.47 1729.84 1121.02 1746.55 1121.02Z" fill="black"/>
</g>
<g id="Regular-M">
<path id="circle.fill.1_16" fill-rule="evenodd" clip-rule="evenodd" d="M1449.84 1120.63C1466.35 1120.63 1479.73 1107.25 1479.73 1090.75C1479.73 1074.24 1466.35 1060.86 1449.84 1060.86C1433.34 1060.86 1419.96 1074.24 1419.96 1090.75C1419.96 1107.25 1433.34 1120.63 1449.84 1120.63Z" fill="black"/>
</g>
<g id="Light-M">
<path id="circle.fill.1_17" fill-rule="evenodd" clip-rule="evenodd" d="M1153.13 1120.13C1169.36 1120.13 1182.52 1106.97 1182.52 1090.74C1182.52 1074.51 1169.36 1061.36 1153.13 1061.36C1136.9 1061.36 1123.74 1074.51 1123.74 1090.74C1123.74 1106.97 1136.9 1120.13 1153.13 1120.13Z" fill="black"/>
</g>
<g id="Thin-M">
<path id="circle.fill.1_18" fill-rule="evenodd" clip-rule="evenodd" d="M856.421 1119.47C872.289 1119.47 885.154 1106.61 885.154 1090.74C885.154 1074.88 872.289 1062.02 856.421 1062.02C840.552 1062.02 827.688 1074.88 827.688 1090.74C827.688 1106.61 840.552 1119.47 856.421 1119.47Z" fill="black"/>
</g>
<g id="Ultralight-M">
<path id="circle.fill.1_19" fill-rule="evenodd" clip-rule="evenodd" d="M559.71 1119.13C575.394 1119.13 588.108 1106.42 588.108 1090.74C588.108 1075.07 575.394 1062.36 559.71 1062.36C544.027 1062.36 531.312 1075.07 531.312 1090.74C531.312 1106.42 544.027 1119.13 559.71 1119.13Z" fill="black"/>
</g>
<g id="Black-S">
<path id="circle.fill.1_20" fill-rule="evenodd" clip-rule="evenodd" d="M2933.4 685.988C2947.31 685.988 2958.59 674.708 2958.59 660.793C2958.59 646.878 2947.31 635.598 2933.4 635.598C2919.48 635.598 2908.2 646.878 2908.2 660.793C2908.2 674.708 2919.48 685.988 2933.4 685.988Z" fill="black"/>
</g>
<g id="Heavy-S">
<path id="circle.fill.1_21" fill-rule="evenodd" clip-rule="evenodd" d="M2636.69 685.611C2650.41 685.611 2661.52 674.495 2661.52 660.782C2661.52 647.069 2650.41 635.953 2636.69 635.953C2622.98 635.953 2611.86 647.069 2611.86 660.782C2611.86 674.495 2622.98 685.611 2636.69 685.611Z" fill="black"/>
</g>
<g id="Bold-S">
<path id="circle.fill.1_22" fill-rule="evenodd" clip-rule="evenodd" d="M2339.98 685.189C2353.47 685.189 2364.4 674.257 2364.4 660.77C2364.4 647.284 2353.47 636.352 2339.98 636.352C2326.48 636.352 2315.55 647.284 2315.55 660.77C2315.55 674.257 2326.48 685.189 2339.98 685.189Z" fill="black"/>
</g>
<g id="Semibold-S">
<path id="circle.fill.1_23" fill-rule="evenodd" clip-rule="evenodd" d="M2043.27 684.898C2056.61 684.898 2067.42 674.091 2067.42 660.761C2067.42 647.431 2056.61 636.625 2043.27 636.625C2029.93 636.625 2019.12 647.431 2019.12 660.761C2019.12 674.091 2029.93 684.898 2043.27 684.898Z" fill="black"/>
</g>
<g id="Medium-S">
<path id="circle.fill.1_24" fill-rule="evenodd" clip-rule="evenodd" d="M1746.56 684.676C1759.77 684.676 1770.49 673.966 1770.49 660.754C1770.49 647.542 1759.77 636.832 1746.56 636.832C1733.34 636.832 1722.62 647.542 1722.62 660.754C1722.62 673.966 1733.34 684.676 1746.56 684.676Z" fill="black"/>
</g>
<g id="Regular-S">
<path id="circle.fill.1_25" fill-rule="evenodd" clip-rule="evenodd" d="M1449.84 684.387C1462.91 684.387 1473.5 673.802 1473.5 660.744C1473.5 647.687 1462.91 637.102 1449.84 637.102C1436.78 637.102 1426.19 647.687 1426.19 660.744C1426.19 673.802 1436.78 684.387 1449.84 684.387Z" fill="black"/>
</g>
<g id="Light-S">
<path id="circle.fill.1_26" fill-rule="evenodd" clip-rule="evenodd" d="M1153.13 683.953C1165.95 683.953 1176.35 673.563 1176.35 660.746C1176.35 647.929 1165.95 637.539 1153.13 637.539C1140.31 637.539 1129.91 647.929 1129.91 660.746C1129.91 673.563 1140.31 683.953 1153.13 683.953Z" fill="black"/>
</g>
<g id="Thin-S">
<path id="circle.fill.1_27" fill-rule="evenodd" clip-rule="evenodd" d="M856.421 683.373C868.922 683.373 879.055 673.242 879.055 660.743C879.055 648.245 868.922 638.113 856.421 638.113C843.921 638.113 833.787 648.245 833.787 660.743C833.787 673.242 843.921 683.373 856.421 683.373Z" fill="black"/>
</g>
<g id="Ultralight-S">
<path id="circle.fill.1_28" fill-rule="evenodd" clip-rule="evenodd" d="M559.711 683.08C572.047 683.08 582.047 673.08 582.047 660.745C582.047 648.41 572.047 638.41 559.711 638.41C547.375 638.41 537.375 648.41 537.375 660.745C537.375 673.08 547.375 683.08 559.711 683.08Z" fill="black"/>
</g>
</g>
</g>
</svg>
