<?xml version="1.0" encoding="UTF-8"?>
<!--Generator: Apple Native CoreSVG 175-->
<!DOCTYPE svg
PUBLIC "-//W3C//DTD SVG 1.1//EN"
       "http://www.w3.org/Graphics/SVG/1.1/DTD/svg11.dtd">
<svg version="1.1" xmlns="http://www.w3.org/2000/svg" xmlns:xlink="http://www.w3.org/1999/xlink" width="3300" height="2200">
 <!--glyph: "", point size: 100.0, font version: "17.0d11e1", template writer version: "65.1"-->
 <g id="Notes">
  <rect height="2200" id="artboard" style="fill:white;opacity:1" width="3300" x="0" y="0"/>
  <line style="fill:none;stroke:black;opacity:1;stroke-width:0.5;" x1="263" x2="3036" y1="292" y2="292"/>
  <text style="stroke:none;fill:black;font-family:sans-serif;font-size:13;font-weight:bold;" transform="matrix(1 0 0 1 263 322)">Weight/Scale Variations</text>
  <text style="stroke:none;fill:black;font-family:sans-serif;font-size:13;text-anchor:middle;" transform="matrix(1 0 0 1 559.711 322)">Ultralight</text>
  <text style="stroke:none;fill:black;font-family:sans-serif;font-size:13;text-anchor:middle;" transform="matrix(1 0 0 1 856.422 322)">Thin</text>
  <text style="stroke:none;fill:black;font-family:sans-serif;font-size:13;text-anchor:middle;" transform="matrix(1 0 0 1 1153.13 322)">Light</text>
  <text style="stroke:none;fill:black;font-family:sans-serif;font-size:13;text-anchor:middle;" transform="matrix(1 0 0 1 1449.84 322)">Regular</text>
  <text style="stroke:none;fill:black;font-family:sans-serif;font-size:13;text-anchor:middle;" transform="matrix(1 0 0 1 1746.56 322)">Medium</text>
  <text style="stroke:none;fill:black;font-family:sans-serif;font-size:13;text-anchor:middle;" transform="matrix(1 0 0 1 2043.27 322)">Semibold</text>
  <text style="stroke:none;fill:black;font-family:sans-serif;font-size:13;text-anchor:middle;" transform="matrix(1 0 0 1 2339.98 322)">Bold</text>
  <text style="stroke:none;fill:black;font-family:sans-serif;font-size:13;text-anchor:middle;" transform="matrix(1 0 0 1 2636.69 322)">Heavy</text>
  <text style="stroke:none;fill:black;font-family:sans-serif;font-size:13;text-anchor:middle;" transform="matrix(1 0 0 1 2933.4 322)">Black</text>
  <line style="fill:none;stroke:black;opacity:1;stroke-width:0.5;" x1="263" x2="3036" y1="1903" y2="1903"/>
  <g transform="matrix(1 0 0 1 263 1933)">
   <path d="M9.24805 0.830078Q10.8691 0.830078 12.2949 0.214844Q13.7207-0.400391 14.8096-1.49414Q15.8984-2.58789 16.5186-4.01367Q17.1387-5.43945 17.1387-7.05078Q17.1387-8.66211 16.5186-10.0879Q15.8984-11.5137 14.8047-12.6074Q13.7109-13.7012 12.2852-14.3164Q10.8594-14.9316 9.23828-14.9316Q7.62695-14.9316 6.20117-14.3164Q4.77539-13.7012 3.69141-12.6074Q2.60742-11.5137 1.9873-10.0879Q1.36719-8.66211 1.36719-7.05078Q1.36719-5.43945 1.9873-4.01367Q2.60742-2.58789 3.69629-1.49414Q4.78516-0.400391 6.21094 0.214844Q7.63672 0.830078 9.24805 0.830078ZM9.24805-0.654297Q7.91992-0.654297 6.7627-1.14746Q5.60547-1.64062 4.73145-2.51953Q3.85742-3.39844 3.36426-4.56055Q2.87109-5.72266 2.87109-7.05078Q2.87109-8.37891 3.35938-9.54102Q3.84766-10.7031 4.72168-11.582Q5.5957-12.4609 6.75293-12.9541Q7.91016-13.4473 9.23828-13.4473Q10.5762-13.4473 11.7334-12.9541Q12.8906-12.4609 13.7695-11.582Q14.6484-10.7031 15.1465-9.54102Q15.6445-8.37891 15.6445-7.05078Q15.6445-5.72266 15.1514-4.56055Q14.6582-3.39844 13.7842-2.51953Q12.9102-1.64062 11.748-1.14746Q10.5859-0.654297 9.24805-0.654297ZM5.6543-7.05078Q5.6543-6.72852 5.85938-6.52832Q6.06445-6.32812 6.40625-6.32812L8.51562-6.32812L8.51562-4.20898Q8.51562-3.88672 8.71094-3.67676Q8.90625-3.4668 9.23828-3.4668Q9.56055-3.4668 9.77051-3.67676Q9.98047-3.88672 9.98047-4.20898L9.98047-6.32812L12.0898-6.32812Q12.4219-6.32812 12.627-6.52832Q12.832-6.72852 12.832-7.05078Q12.832-7.38281 12.627-7.58789Q12.4219-7.79297 12.0898-7.79297L9.98047-7.79297L9.98047-9.90234Q9.98047-10.2344 9.77051-10.4443Q9.56055-10.6543 9.23828-10.6543Q8.90625-10.6543 8.71094-10.4443Q8.51562-10.2344 8.51562-9.90234L8.51562-7.79297L6.40625-7.79297Q6.06445-7.79297 5.85938-7.58789Q5.6543-7.38281 5.6543-7.05078Z"/>
  </g>
  <g transform="matrix(1 0 0 1 281.867 1933)">
   <path d="M11.709 2.91016Q13.75 2.91016 15.5518 2.12891Q17.3535 1.34766 18.7305-0.0292969Q20.1074-1.40625 20.8887-3.20801Q21.6699-5.00977 21.6699-7.05078Q21.6699-9.0918 20.8887-10.8936Q20.1074-12.6953 18.7305-14.0723Q17.3535-15.4492 15.5469-16.2305Q13.7402-17.0117 11.6992-17.0117Q9.6582-17.0117 7.85645-16.2305Q6.05469-15.4492 4.68262-14.0723Q3.31055-12.6953 2.5293-10.8936Q1.74805-9.0918 1.74805-7.05078Q1.74805-5.00977 2.5293-3.20801Q3.31055-1.40625 4.6875-0.0292969Q6.06445 1.34766 7.86621 2.12891Q9.66797 2.91016 11.709 2.91016ZM11.709 1.25Q9.98047 1.25 8.47656 0.605469Q6.97266-0.0390625 5.83496-1.17676Q4.69727-2.31445 4.05762-3.81836Q3.41797-5.32227 3.41797-7.05078Q3.41797-8.7793 4.05762-10.2832Q4.69727-11.7871 5.83008-12.9297Q6.96289-14.0723 8.4668-14.7119Q9.9707-15.3516 11.6992-15.3516Q13.4277-15.3516 14.9316-14.7119Q16.4355-14.0723 17.5781-12.9297Q18.7207-11.7871 19.3652-10.2832Q20.0098-8.7793 20.0098-7.05078Q20.0098-5.32227 19.3701-3.81836Q18.7305-2.31445 17.5928-1.17676Q16.4551-0.0390625 14.9463 0.605469Q13.4375 1.25 11.709 1.25ZM7.17773-7.05078Q7.17773-6.69922 7.41211-6.47461Q7.64648-6.25 8.01758-6.25L10.8887-6.25L10.8887-3.36914Q10.8887-2.99805 11.1133-2.76855Q11.3379-2.53906 11.6895-2.53906Q12.0605-2.53906 12.29-2.76855Q12.5195-2.99805 12.5195-3.36914L12.5195-6.25L15.4004-6.25Q15.7715-6.25 16.001-6.47461Q16.2305-6.69922 16.2305-7.05078Q16.2305-7.42188 16.001-7.65137Q15.7715-7.88086 15.4004-7.88086L12.5195-7.88086L12.5195-10.752Q12.5195-11.1328 12.29-11.3623Q12.0605-11.5918 11.6895-11.5918Q11.3379-11.5918 11.1133-11.3574Q10.8887-11.123 10.8887-10.752L10.8887-7.88086L8.01758-7.88086Q7.63672-7.88086 7.40723-7.65137Q7.17773-7.42188 7.17773-7.05078Z"/>
  </g>
  <g transform="matrix(1 0 0 1 305.646 1933)">
   <path d="M14.9707 5.66406Q17.0605 5.66406 18.96 5.01465Q20.8594 4.36523 22.4512 3.19336Q24.043 2.02148 25.2197 0.429688Q26.3965-1.16211 27.0459-3.06641Q27.6953-4.9707 27.6953-7.05078Q27.6953-9.14062 27.0459-11.04Q26.3965-12.9395 25.2197-14.5312Q24.043-16.123 22.4512-17.2998Q20.8594-18.4766 18.9551-19.126Q17.0508-19.7754 14.9609-19.7754Q12.8711-19.7754 10.9717-19.126Q9.07227-18.4766 7.48535-17.2998Q5.89844-16.123 4.72168-14.5312Q3.54492-12.9395 2.90039-11.04Q2.25586-9.14062 2.25586-7.05078Q2.25586-4.9707 2.90527-3.06641Q3.55469-1.16211 4.72656 0.429688Q5.89844 2.02148 7.49023 3.19336Q9.08203 4.36523 10.9814 5.01465Q12.8809 5.66406 14.9707 5.66406ZM14.9707 3.84766Q13.1641 3.84766 11.5283 3.2959Q9.89258 2.74414 8.53516 1.74805Q7.17773 0.751953 6.17676-0.610352Q5.17578-1.97266 4.62891-3.6084Q4.08203-5.24414 4.08203-7.05078Q4.08203-8.86719 4.62891-10.5029Q5.17578-12.1387 6.17188-13.501Q7.16797-14.8633 8.52539-15.8594Q9.88281-16.8555 11.5186-17.4023Q13.1543-17.9492 14.9609-17.9492Q16.7773-17.9492 18.4131-17.4023Q20.0488-16.8555 21.4111-15.8594Q22.7734-14.8633 23.7695-13.501Q24.7656-12.1387 25.3174-10.5029Q25.8691-8.86719 25.8691-7.05078Q25.8789-5.24414 25.332-3.6084Q24.7852-1.97266 23.7842-0.610352Q22.7832 0.751953 21.4209 1.74805Q20.0586 2.74414 18.4229 3.2959Q16.7871 3.84766 14.9707 3.84766ZM9.19922-7.05078Q9.19922-6.66992 9.45801-6.4209Q9.7168-6.17188 10.1172-6.17188L14.0625-6.17188L14.0625-2.2168Q14.0625-1.81641 14.3115-1.55762Q14.5605-1.29883 14.9512-1.29883Q15.3516-1.29883 15.6104-1.55273Q15.8691-1.80664 15.8691-2.2168L15.8691-6.17188L19.8242-6.17188Q20.2246-6.17188 20.4785-6.4209Q20.7324-6.66992 20.7324-7.05078Q20.7324-7.46094 20.4785-7.71484Q20.2246-7.96875 19.8242-7.96875L15.8691-7.96875L15.8691-11.9141Q15.8691-12.3242 15.6104-12.583Q15.3516-12.8418 14.9512-12.8418Q14.5605-12.8418 14.3115-12.583Q14.0625-12.3242 14.0625-11.9141L14.0625-7.96875L10.1172-7.96875Q9.70703-7.96875 9.45312-7.71484Q9.19922-7.46094 9.19922-7.05078Z"/>
  </g>
  <text style="stroke:none;fill:black;font-family:sans-serif;font-size:13;font-weight:bold;" transform="matrix(1 0 0 1 263 1953)">Design Variations</text>
  <text style="stroke:none;fill:black;font-family:sans-serif;font-size:13;" transform="matrix(1 0 0 1 263 1971)">Symbols are supported in up to nine weights and three scales.</text>
  <text style="stroke:none;fill:black;font-family:sans-serif;font-size:13;" transform="matrix(1 0 0 1 263 1989)">For optimal layout with text and other symbols, vertically align</text>
  <text style="stroke:none;fill:black;font-family:sans-serif;font-size:13;" transform="matrix(1 0 0 1 263 2007)">symbols with the adjacent text.</text>
  <line style="fill:none;stroke:#00AEEF;stroke-width:0.5;opacity:1.0;" x1="776" x2="776" y1="1919" y2="1933"/>
  <g transform="matrix(1 0 0 1 776 1933)">
   <path d="M3.31055 0.15625Q3.70117 0.15625 3.91602-0.00976562Q4.13086-0.175781 4.26758-0.585938L5.52734-4.0332L11.2891-4.0332L12.5488-0.585938Q12.6855-0.175781 12.9004-0.00976562Q13.1152 0.15625 13.4961 0.15625Q13.8867 0.15625 14.1162-0.0585938Q14.3457-0.273438 14.3457-0.644531Q14.3457-0.869141 14.2383-1.17188L9.6582-13.3691Q9.48242-13.8184 9.17969-14.043Q8.87695-14.2676 8.4082-14.2676Q7.5-14.2676 7.17773-13.3789L2.59766-1.16211Q2.49023-0.859375 2.49023-0.634766Q2.49023-0.263672 2.70996-0.0537109Q2.92969 0.15625 3.31055 0.15625ZM6.00586-5.51758L8.37891-12.0898L8.42773-12.0898L10.8008-5.51758Z"/>
  </g>
  <line style="fill:none;stroke:#00AEEF;stroke-width:0.5;opacity:1.0;" x1="793.197" x2="793.197" y1="1919" y2="1933"/>
  <text style="stroke:none;fill:black;font-family:sans-serif;font-size:13;font-weight:bold;" transform="matrix(1 0 0 1 776 1953)">Margins</text>
  <text style="stroke:none;fill:black;font-family:sans-serif;font-size:13;" transform="matrix(1 0 0 1 776 1971)">Leading and trailing margins on the left and right side of each symbol</text>
  <text style="stroke:none;fill:black;font-family:sans-serif;font-size:13;" transform="matrix(1 0 0 1 776 1989)">can be adjusted by modifying the x-location of the margin guidelines.</text>
  <text style="stroke:none;fill:black;font-family:sans-serif;font-size:13;" transform="matrix(1 0 0 1 776 2007)">Modifications are automatically applied proportionally to all</text>
  <text style="stroke:none;fill:black;font-family:sans-serif;font-size:13;" transform="matrix(1 0 0 1 776 2025)">scales and weights.</text>
  <g transform="matrix(1 0 0 1 1289 1933)">
   <path d="M2.8418 1.86523L4.54102 3.57422Q5.18555 4.22852 5.90332 4.17969Q6.62109 4.13086 7.31445 3.35938L18.0078-8.42773L17.041-9.4043L6.42578 2.27539Q6.16211 2.57812 5.89355 2.61719Q5.625 2.65625 5.27344 2.30469L4.10156 1.14258Q3.75 0.791016 3.79395 0.522461Q3.83789 0.253906 4.14062-0.0195312L15.6152-10.8203L14.6387-11.7871L3.04688-0.898438Q2.30469-0.214844 2.25098 0.498047Q2.19727 1.21094 2.8418 1.86523ZM9.25781-16.3281Q8.94531-16.0254 8.90625-15.6348Q8.86719-15.2441 9.04297-14.9512Q9.21875-14.6777 9.55566-14.541Q9.89258-14.4043 10.3809-14.5215Q11.4746-14.7754 12.5977-14.7314Q13.7207-14.6875 14.7949-13.9844L14.209-12.5293Q13.9551-11.9043 14.0674-11.4404Q14.1797-10.9766 14.5801-10.5664L16.875-8.25195Q17.2363-7.88086 17.5781-7.82227Q17.9199-7.76367 18.3398-7.8418L19.4043-8.03711L20.0684-7.36328L20.0293-6.80664Q20-6.43555 20.1221-6.12305Q20.2441-5.81055 20.6055-5.44922L21.3672-4.70703Q21.7285-4.3457 22.1533-4.33105Q22.5781-4.31641 22.9297-4.66797L25.8398-7.58789Q26.1914-7.93945 26.1816-8.35449Q26.1719-8.76953 25.8105-9.13086L25.0391-9.89258Q24.6875-10.2539 24.3799-10.3857Q24.0723-10.5176 23.7109-10.4883L23.1348-10.4395L22.4902-11.0742L22.7344-12.1973Q22.832-12.6172 22.6953-12.9834Q22.5586-13.3496 22.1191-13.7891L19.9219-15.9766Q18.6719-17.2168 17.2607-17.8369Q15.8496-18.457 14.4189-18.4814Q12.9883-18.5059 11.665-17.959Q10.3418-17.4121 9.25781-16.3281ZM10.752-15.957Q11.6602-16.6211 12.7002-16.9043Q13.7402-17.1875 14.8047-17.085Q15.8691-16.9824 16.8701-16.5137Q17.8711-16.0449 18.7012-15.2051L21.1328-12.793Q21.3086-12.6172 21.3525-12.4512Q21.3965-12.2852 21.3379-12.0312L21.0156-10.5469L22.5195-9.0625L23.5059-9.12109Q23.6914-9.13086 23.7891-9.09668Q23.8867-9.0625 24.0332-8.91602L24.6094-8.33984L22.168-5.89844L21.5918-6.47461Q21.4453-6.62109 21.4062-6.71875Q21.3672-6.81641 21.377-7.01172L21.4453-7.98828L19.9512-9.47266L18.4277-9.21875Q18.1836-9.16992 18.042-9.2041Q17.9004-9.23828 17.7148-9.41406L15.7129-11.416Q15.5176-11.5918 15.4932-11.7529Q15.4688-11.9141 15.5859-12.1875L16.4648-14.2773Q15.293-15.3711 13.8281-15.791Q12.3633-16.2109 10.8398-15.7617Q10.7227-15.7324 10.6885-15.8057Q10.6543-15.8789 10.752-15.957Z"/>
  </g>
  <text style="stroke:none;fill:black;font-family:sans-serif;font-size:13;font-weight:bold;" transform="matrix(1 0 0 1 1289 1953)">Exporting</text>
  <text style="stroke:none;fill:black;font-family:sans-serif;font-size:13;" transform="matrix(1 0 0 1 1289 1971)">Symbols should be outlined when exporting to ensure the</text>
  <text style="stroke:none;fill:black;font-family:sans-serif;font-size:13;" transform="matrix(1 0 0 1 1289 1989)">design is preserved when submitting to Xcode.</text>
  <text id="template-version" style="stroke:none;fill:black;font-family:sans-serif;font-size:13;text-anchor:end;" transform="matrix(1 0 0 1 3036 1933)">Template v.2.0</text>
  <text style="stroke:none;fill:black;font-family:sans-serif;font-size:13;text-anchor:end;" transform="matrix(1 0 0 1 3036 1951)">Requires Xcode 13 or greater</text>
  <text id="descriptive-name" style="stroke:none;fill:black;font-family:sans-serif;font-size:13;text-anchor:end;" transform="matrix(1 0 0 1 3036 1969)">Generated from check.active.2</text>
  <text style="stroke:none;fill:black;font-family:sans-serif;font-size:13;text-anchor:end;" transform="matrix(1 0 0 1 3036 1987)">Typeset at 100 points</text>
  <text style="stroke:none;fill:black;font-family:sans-serif;font-size:13;" transform="matrix(1 0 0 1 263 726)">Small</text>
  <text style="stroke:none;fill:black;font-family:sans-serif;font-size:13;" transform="matrix(1 0 0 1 263 1156)">Medium</text>
  <text style="stroke:none;fill:black;font-family:sans-serif;font-size:13;" transform="matrix(1 0 0 1 263 1586)">Large</text>
 </g>
 <g id="Guides">
  <g id="H-reference" style="fill:#27AAE1;stroke:none;" transform="matrix(1 0 0 1 339 696)">
   <path d="M0.993347 0L3.6377 0L29.3282-67.1326L30.0301-67.1326L30.0301-70.459L28.1227-70.459ZM11.6882-24.4797L46.9818-24.4797L46.2311-26.7288L12.4382-26.7288ZM55.1193 0L57.7637 0L30.6381-70.459L29.4327-70.459L29.4327-67.1326Z"/>
  </g>
  <line id="Baseline-S" style="fill:none;stroke:#27AAE1;opacity:1;stroke-width:0.5;" x1="263" x2="3036" y1="696" y2="696"/>
  <line id="Capline-S" style="fill:none;stroke:#27AAE1;opacity:1;stroke-width:0.5;" x1="263" x2="3036" y1="625.541" y2="625.541"/>
  <g id="H-reference" style="fill:#27AAE1;stroke:none;" transform="matrix(1 0 0 1 339 1126)">
   <path d="M0.993347 0L3.6377 0L29.3282-67.1326L30.0301-67.1326L30.0301-70.459L28.1227-70.459ZM11.6882-24.4797L46.9818-24.4797L46.2311-26.7288L12.4382-26.7288ZM55.1193 0L57.7637 0L30.6381-70.459L29.4327-70.459L29.4327-67.1326Z"/>
  </g>
  <line id="Baseline-M" style="fill:none;stroke:#27AAE1;opacity:1;stroke-width:0.5;" x1="263" x2="3036" y1="1126" y2="1126"/>
  <line id="Capline-M" style="fill:none;stroke:#27AAE1;opacity:1;stroke-width:0.5;" x1="263" x2="3036" y1="1055.54" y2="1055.54"/>
  <g id="H-reference" style="fill:#27AAE1;stroke:none;" transform="matrix(1 0 0 1 339 1556)">
   <path d="M0.993347 0L3.6377 0L29.3282-67.1326L30.0301-67.1326L30.0301-70.459L28.1227-70.459ZM11.6882-24.4797L46.9818-24.4797L46.2311-26.7288L12.4382-26.7288ZM55.1193 0L57.7637 0L30.6381-70.459L29.4327-70.459L29.4327-67.1326Z"/>
  </g>
  <line id="Baseline-L" style="fill:none;stroke:#27AAE1;opacity:1;stroke-width:0.5;" x1="263" x2="3036" y1="1556" y2="1556"/>
  <line id="Capline-L" style="fill:none;stroke:#27AAE1;opacity:1;stroke-width:0.5;" x1="263" x2="3036" y1="1485.54" y2="1485.54"/>
  <line id="left-margin" style="fill:none;stroke:#00AEEF;stroke-width:0.5;opacity:1.0;" x1="1391.3" x2="1391.3" y1="1030.78" y2="1150.12"/>
  <line id="right-margin" style="fill:none;stroke:#00AEEF;stroke-width:0.5;opacity:1.0;" x1="1508.39" x2="1508.39" y1="1030.78" y2="1150.12"/>
 </g>
 <g id="Symbols">
  <g id="Black-L" transform="matrix(1 0 0 1 2854.05 1556)">
   <path d="M120.185-103.271C135.222-103.271 147.412-91.0813 147.412-76.0445L147.412 5.63484C147.412 20.6713 135.222 32.8613 120.185 32.8613L38.5058 32.8613C23.469 32.8613 11.2793 20.6713 11.2793 5.63484L11.2793-76.0445C11.2793-91.0813 23.469-103.271 38.5058-103.271L120.185-103.271ZM120.185-89.6578L38.5058-89.6578C31.3292-89.6578 25.4496-84.1044 24.9299-77.0605L24.8926-76.0445L24.8926 5.63484C24.8926 12.8117 30.4459 18.6911 37.4899 19.2107L38.5058 19.2481L120.185 19.2481C127.362 19.2481 133.242 13.6949 133.761 6.65084L133.799 5.63484L133.799-76.0445C133.799-83.2212 128.246-89.1008 121.201-89.6204L120.185-89.6578ZM113.379-76.0445C116.87-76.0445 119.746-73.4169 120.14-70.0317L120.185-69.2379L120.185-1.17178C120.185 2.319 117.558 5.19588 114.173 5.58905L113.379 5.63484L45.3125 5.63484C41.8218 5.63484 38.9448 3.0073 38.5516-0.377961L38.5058-1.17178L38.5058-69.2379C38.5058-72.7286 41.1335-75.6056 44.5187-75.9987L45.3125-76.0445L113.379-76.0445Z"/>
  </g>
  <g id="Heavy-L" transform="matrix(1 0 0 1 2558.4 1556)">
   <path d="M118.498-102.235C133.302-102.235 145.303-90.2341 145.303-75.4301L145.303 4.98452C145.303 19.7882 133.302 31.7894 118.498 31.7894L38.084 31.7894C23.2802 31.7894 11.2793 19.7882 11.2793 4.98452L11.2793-75.4301C11.2793-90.2341 23.2802-102.235 38.084-102.235L118.498-102.235ZM118.498-88.8326L38.084-88.8326C31.0186-88.8326 25.2301-83.3652 24.7184-76.4304L24.6817-75.4301L24.6817 4.98452C24.6817 12.0502 30.149 17.8386 37.0838 18.3502L38.084 18.387L118.498 18.387C125.564 18.387 131.352 12.9198 131.864 5.98478L131.901 4.98452L131.901-75.4301C131.901-82.4956 126.433-88.2842 119.499-88.7958L118.498-88.8326ZM111.797-75.4301C115.234-75.4301 118.066-72.8432 118.453-69.5104L118.498-68.7289L118.498-1.7167C118.498 1.72002 115.911 4.55235 112.579 4.93944L111.797 4.98452L44.7852 4.98452C41.3486 4.98452 38.5162 2.39767 38.1291-0.935177L38.084-1.7167L38.084-68.7289C38.084-72.1656 40.671-74.9979 44.0037-75.385L44.7852-75.4301L111.797-75.4301Z"/>
  </g>
  <g id="Bold-L" transform="matrix(1 0 0 1 2262.87 1556)">
   <path d="M116.611-101.074C131.154-101.074 142.944-89.2843 142.944-74.741L142.944 4.25784C142.944 18.8009 131.154 30.5908 116.611 30.5908L37.6122 30.5908C23.069 30.5908 11.2793 18.8009 11.2793 4.25784L11.2793-74.741C11.2793-89.2843 23.069-101.074 37.6122-101.074L116.611-101.074ZM116.611-87.9075L37.6122-87.9075C30.6711-87.9075 24.9845-82.5364 24.4819-75.7237L24.4458-74.741L24.4458 4.25784C24.4458 11.1991 29.8169 16.8856 36.6296 17.3882L37.6122 17.4243L116.611 17.4243C123.552 17.4243 129.239 12.0534 129.741 5.2405L129.778 4.25784L129.778-74.741C129.778-81.6822 124.407-87.3688 117.594-87.8714L116.611-87.9075ZM110.028-74.741C113.404-74.741 116.187-72.1996 116.567-68.9255L116.611-68.1578L116.611-2.3254C116.611 1.05081 114.07 3.83328 110.796 4.21355L110.028 4.25784L44.1955 4.25784C40.8193 4.25784 38.0368 1.71653 37.6565-1.55764L37.6122-2.3254L37.6122-68.1578C37.6122-71.534 40.1537-74.3165 43.4277-74.6968L44.1955-74.741L110.028-74.741Z"/>
  </g>
  <g id="Semibold-L" transform="matrix(1 0 0 1 1966.97 1556)">
   <path d="M115.31-100.275C129.674-100.275 141.318-88.6309 141.318-74.2671L141.318 3.75668C141.318 18.1202 129.674 29.7646 115.31 29.7646L37.287 29.7646C22.9234 29.7646 11.2793 18.1202 11.2793 3.75668L11.2793-74.2671C11.2793-88.6309 22.9234-100.275 37.287-100.275L115.31-100.275ZM115.31-87.271L37.287-87.271C30.4316-87.271 24.8153-81.9662 24.3188-75.2376L24.2832-74.2671L24.2832 3.75668C24.2832 10.6123 29.588 16.2286 36.3165 16.725L37.287 16.7606L115.31 16.7606C122.166 16.7606 127.782 11.456 128.278 4.7272L128.314 3.75668L128.314-74.2671C128.314-81.1225 123.01-86.739 116.281-87.2354L115.31-87.271ZM108.808-74.2671C112.143-74.2671 114.891-71.757 115.267-68.5234L115.31-67.7651L115.31-2.7453C115.31 0.58924 112.8 3.33736 109.567 3.71294L108.808 3.75668L43.789 3.75668C40.4545 3.75668 37.7064 1.24674 37.3308-1.98701L37.287-2.7453L37.287-67.7651C37.287-71.0996 39.7971-73.8478 43.0307-74.2233L43.789-74.2671L108.808-74.2671Z"/>
  </g>
  <g id="Medium-L" transform="matrix(1 0 0 1 1670.87 1556)">
   <path d="M114.324-99.6681C128.551-99.6681 140.085-88.1345 140.085-73.907L140.085 3.3763C140.085 17.6035 128.551 29.1374 114.324 29.1374L37.0404 29.1374C22.8129 29.1374 11.2793 17.6035 11.2793 3.3763L11.2793-73.907C11.2793-88.1345 22.8129-99.6681 37.0404-99.6681L114.324-99.6681ZM114.324-86.7876L37.0404-86.7876C30.25-86.7876 24.6869-81.5331 24.1952-74.8683L24.1599-73.907L24.1599 3.3763C24.1599 10.1669 29.4144 15.7298 36.0791 16.2215L37.0404 16.2568L114.324 16.2568C121.114 16.2568 126.677 11.0026 127.169 4.33761L127.204 3.3763L127.204-73.907C127.204-80.6974 121.95-86.2605 115.285-86.7522L114.324-86.7876ZM107.884-73.907C111.186-73.907 113.909-71.4208 114.281-68.2178L114.324-67.4667L114.324-3.06398C114.324 0.23892 111.838 2.96096 108.635 3.33297L107.884 3.3763L43.4807 3.3763C40.1779 3.3763 37.4558 0.89018 37.0838-2.31288L37.0404-3.06398L37.0404-67.4667C37.0404-70.7696 39.5267-73.4917 42.7297-73.8637L43.4807-73.907L107.884-73.907Z"/>
  </g>
  <g id="Regular-L" transform="matrix(1 0 0 1 1374.97 1556)">
   <path d="M113.037-98.877C127.087-98.877 138.477-87.4874 138.477-73.4375L138.477 2.88084C138.477 16.9304 127.087 28.3203 113.037 28.3203L36.7188 28.3203C22.669 28.3203 11.2793 16.9304 11.2793 2.88084L11.2793-73.4375C11.2793-87.4874 22.669-98.877 36.7188-98.877L113.037-98.877ZM113.037-86.1573L36.7188-86.1573C30.0132-86.1573 24.5195-80.9684 24.034-74.3868L23.9991-73.4375L23.9991 2.88084C23.9991 9.58662 29.188 15.0801 35.7695 15.5657L36.7188 15.6006L113.037 15.6006C119.743 15.6006 125.237 10.4119 125.722 3.83015L125.757 2.88084L125.757-73.4375C125.757-80.1431 120.569-85.6368 113.987-86.1224L113.037-86.1573ZM106.678-73.4375C109.939-73.4375 112.627-70.9824 112.995-67.8194L113.037-67.0777L113.037-3.47902C113.037-0.217368 110.582 2.47069 107.419 2.83805L106.678 2.88084L43.0787 2.88084C39.8171 2.88084 37.129 0.42576 36.7616-2.73731L36.7188-3.47902L36.7188-67.0777C36.7188-70.3393 39.174-73.0274 42.337-73.3948L43.0787-73.4375L106.678-73.4375Z"/>
  </g>
  <g id="Light-L" transform="matrix(1 0 0 1 1079.18 1556)">
   <path d="M111.56-97.9538C125.405-97.9538 136.63-86.7295 136.63-72.8836L136.63 2.327C136.63 16.1726 125.405 27.3972 111.56 27.3972L36.3494 27.3972C22.5036 27.3972 11.2793 16.1726 11.2793 2.327L11.2793-72.8836C11.2793-86.7295 22.5036-97.9538 36.3494-97.9538L111.56-97.9538ZM111.56-85.4187L36.3494-85.4187C29.7412-85.4187 24.3273-80.3051 23.8488-73.8191L23.8144-72.8836L23.8144 2.327C23.8144 8.93545 28.9279 14.3492 35.4139 14.8277L36.3494 14.8621L111.56 14.8621C118.168 14.8621 123.582 9.74872 124.061 3.26253L124.095 2.327L124.095-72.8836C124.095-79.4919 118.982-84.9058 112.495-85.3843L111.56-85.4187ZM105.292-72.8836C108.507-72.8836 111.156-70.464 111.518-67.347L111.56-66.6161L111.56-3.94055C111.56-0.726237 109.14 1.9228 106.023 2.28483L105.292 2.327L42.617 2.327C39.4027 2.327 36.7536-0.0924438 36.3916-3.2096L36.3494-3.94055L36.3494-66.6161C36.3494-69.8303 38.769-72.4794 41.8861-72.8414L42.617-72.8836L105.292-72.8836Z"/>
  </g>
  <g id="Thin-L" transform="matrix(1 0 0 1 783.689 1556)">
   <path d="M109.605-96.7323C123.181-96.7323 134.187-85.7267 134.187-72.1507L134.187 1.5941C134.187 15.1699 123.181 26.1757 109.605 26.1757L35.8608 26.1757C22.2848 26.1757 11.2793 15.1699 11.2793 1.5941L11.2793-72.1507C11.2793-85.7267 22.2848-96.7323 35.8608-96.7323L109.605-96.7323ZM109.605-84.4415L35.8608-84.4415C29.3814-84.4415 24.073-79.4276 23.6038-73.068L23.5701-72.1507L23.5701 1.5941C23.5701 8.07375 28.584 13.382 34.9436 13.8512L35.8608 13.8849L109.605 13.8849C116.085 13.8849 121.393 8.87117 121.863 2.5114L121.896 1.5941L121.896-72.1507C121.896-78.6302 116.883-83.9386 110.523-84.4078L109.605-84.4415ZM103.46-72.1507C106.612-72.1507 109.209-69.7783 109.564-66.722L109.605-66.0053L109.605-4.5513C109.605-1.39963 107.233 1.19778 104.177 1.55276L103.46 1.5941L42.0062 1.5941C38.8546 1.5941 36.2572-0.778191 35.9022-3.8346L35.8608-4.5513L35.8608-66.0053C35.8608-69.1569 38.2332-71.7544 41.2895-72.1094L42.0062-72.1507L103.46-72.1507Z"/>
  </g>
  <g id="Ultralight-L" transform="matrix(1 0 0 1 487.603 1556)">
   <path d="M108.605-96.1067C122.043-96.1067 132.937-85.2132 132.937-71.7753L132.937 1.21874C132.937 14.6563 122.043 25.5501 108.605 25.5501L35.6108 25.5501C22.1729 25.5501 11.2793 14.6563 11.2793 1.21874L11.2793-71.7753C11.2793-85.2132 22.1729-96.1067 35.6108-96.1067L108.605-96.1067ZM108.605-83.941L35.6108-83.941C29.1973-83.941 23.9429-78.9782 23.4784-72.6833L23.4451-71.7753L23.4451 1.21874C23.4451 7.63243 28.408 12.8866 34.7029 13.3511L35.6108 13.3844L108.605 13.3844C115.019 13.3844 120.273 8.42173 120.738 2.1267L120.771 1.21874L120.771-71.7753C120.771-78.1889 115.809-83.4432 109.513-83.9077L108.605-83.941ZM102.523-71.7753C105.642-71.7753 108.213-69.4271 108.565-66.4019L108.605-65.6925L108.605-4.8641C108.605-1.74452 106.257 0.826453 103.232 1.17782L102.523 1.21874L41.6937 1.21874C38.5742 1.21874 36.0031-1.1294 35.6518-4.1547L35.6108-4.8641L35.6108-65.6925C35.6108-68.812 37.9591-71.383 40.9843-71.7344L41.6937-71.7753L102.523-71.7753Z"/>
  </g>
  <g id="Black-M" transform="matrix(1 0 0 1 2871.32 1126)">
   <path d="M94.092-88.5254C105.876-88.5254 115.43-78.9765 115.43-67.1973L115.43-3.21292C115.43 8.56607 105.876 18.1152 94.092 18.1152L30.0782 18.1152C18.2936 18.1152 8.74023 8.56607 8.74023-3.21292L8.74023-67.1973C8.74023-78.9765 18.2936-88.5254 30.0782-88.5254L94.092-88.5254ZM94.092-77.8613L30.0782-77.8613C24.4537-77.8613 19.8458-73.5111 19.4385-67.9932L19.4092-67.1973L19.4092-3.21292C19.4092 2.40912 23.7615 7.01481 29.2819 7.42189L30.0782 7.45114L94.092 7.45114C99.7167 7.45114 104.324 3.101 104.732-2.41703L104.761-3.21292L104.761-67.1973C104.761-72.8192 100.409-77.425 94.8883-77.8321L94.092-77.8613ZM88.7576-67.1973C91.4933-67.1973 93.748-65.1389 94.0562-62.4871L94.092-61.8653L94.092-8.54495C94.092-5.81042 92.0328-3.55679 89.3797-3.24879L88.7576-3.21292L35.4127-3.21292C32.6769-3.21292 30.4222-5.27123 30.1141-7.92311L30.0782-8.54495L30.0782-61.8653C30.0782-64.5997 32.1375-66.8534 34.7906-67.1614L35.4127-67.1973L88.7576-67.1973Z"/>
  </g>
  <g id="Heavy-M" transform="matrix(1 0 0 1 2575.44 1126)">
   <path d="M92.7552-87.7075C104.355-87.7075 113.759-78.3072 113.759-66.7113L113.759-3.72254C113.759 7.87316 104.355 17.2737 92.7552 17.2737L29.744 17.2737C18.1439 17.2737 8.74023 7.87316 8.74023-3.72254L8.74023-66.7113C8.74023-78.3072 18.1439-87.7075 29.744-87.7075L92.7552-87.7075ZM92.7552-77.2094L29.744-77.2094C24.2076-77.2094 19.6718-72.9268 19.2709-67.4947L19.2421-66.7113L19.2421-3.72254C19.2421 1.81202 23.5262 6.34604 28.9602 6.74679L29.744 6.77558L92.7552 6.77558C98.2918 6.77558 102.827 2.49313 103.228-2.93903L103.257-3.72254L103.257-66.7113C103.257-72.2457 98.9731-76.7798 93.539-77.1806L92.7552-77.2094ZM87.5043-66.7113C90.1973-66.7113 92.4166-64.6849 92.7199-62.0743L92.7552-61.4622L92.7552-8.9716C92.7552-6.27962 90.7282-4.06106 88.1167-3.75785L87.5043-3.72254L34.9949-3.72254C32.302-3.72254 30.0826-5.74882 29.7793-8.35943L29.744-8.9716L29.744-61.4622C29.744-64.1541 31.7711-66.3727 34.3826-66.6759L34.9949-66.7113L87.5043-66.7113Z"/>
  </g>
  <g id="Bold-M" transform="matrix(1 0 0 1 2279.66 1126)">
   <path d="M91.26-86.792C102.653-86.792 111.89-77.5579 111.89-66.167L111.89-4.292C111.89 7.09867 102.653 16.333 91.26 16.333L29.3702 16.333C17.9766 16.333 8.74023 7.09867 8.74023-4.292L8.74023-66.167C8.74023-77.5579 17.9766-86.792 29.3702-86.792L91.26-86.792ZM91.26-76.4795L29.3702-76.4795C23.9323-76.4795 19.4773-72.2726 19.0835-66.9366L19.0552-66.167L19.0552-4.292C19.0552 1.1447 23.2631 5.59855 28.6004 5.99222L29.3702 6.0205L91.26 6.0205C96.6981 6.0205 101.153 1.81377 101.547-3.52235L101.575-4.292L101.575-66.167C101.575-71.6036 97.3673-76.0575 92.0299-76.4512L91.26-76.4795ZM86.1026-66.167C88.7476-66.167 90.9274-64.1765 91.2253-61.6121L91.26-61.0107L91.26-9.44825C91.26-6.80387 89.2691-4.62453 86.704-4.32669L86.1026-4.292L34.5277-4.292C31.8827-4.292 29.7028-6.28245 29.4049-8.84691L29.3702-9.44825L29.3702-61.0107C29.3702-63.6551 31.3612-65.8345 33.9262-66.1323L34.5277-66.167L86.1026-66.167Z"/>
  </g>
  <g id="Semibold-M" transform="matrix(1 0 0 1 1983.6 1126)">
   <path d="M90.2288-86.161C101.48-86.161 110.601-77.0414 110.601-65.7919L110.601-4.6846C110.601 6.56474 101.48 15.6845 90.2288 15.6845L29.1124 15.6845C17.8611 15.6845 8.74023 6.56474 8.74023-4.6846L8.74023-65.7919C8.74023-77.0414 17.8611-86.161 29.1124-86.161L90.2288-86.161ZM90.2288-75.9765L29.1124-75.9765C23.7425-75.9765 19.3431-71.8218 18.9542-66.552L18.9263-65.7919L18.9263-4.6846C18.9263 0.684648 23.0816 5.08324 28.3522 5.47202L29.1124 5.49995L90.2288 5.49995C95.5989 5.49995 99.9981 1.34542 100.387-3.9245L100.415-4.6846L100.415-65.7919C100.415-71.161 96.2598-75.5597 90.9891-75.9485L90.2288-75.9765ZM85.1358-65.7919C87.7478-65.7919 89.9004-63.8261 90.1946-61.2935L90.2288-60.6996L90.2288-9.77688C90.2288-7.1653 88.2628-5.01301 85.7298-4.71886L85.1358-4.6846L34.2054-4.6846C31.5935-4.6846 29.4408-6.65036 29.1466-9.18299L29.1124-9.77688L29.1124-60.6996C29.1124-63.3112 31.0785-65.4635 33.6115-65.7576L34.2054-65.7919L85.1358-65.7919Z"/>
  </g>
  <g id="Medium-M" transform="matrix(1 0 0 1 1687.37 1126)">
   <path d="M89.4472-85.6827C100.59-85.6827 109.624-76.65 109.624-65.5077L109.624-4.98262C109.624 6.15954 100.59 15.1924 89.4472 15.1924L28.917 15.1924C17.7737 15.1924 8.74023 6.15954 8.74023-4.98262L8.74023-65.5077C8.74023-76.65 17.7737-85.6827 28.917-85.6827L89.4472-85.6827ZM89.4472-75.5952L28.917-75.5952C23.5986-75.5952 19.2414-71.4801 18.8563-66.2605L18.8286-65.5077L18.8286-4.98262C18.8286 0.335469 22.944 4.69215 28.1641 5.07722L28.917 5.10489L89.4472 5.10489C94.7658 5.10489 99.1228 0.989942 99.508-4.22976L99.5356-4.98262L99.5356-65.5077C99.5356-70.8256 95.4203-75.1824 90.2002-75.5675L89.4472-75.5952ZM84.4031-65.5077C86.99-65.5077 89.1219-63.5606 89.4133-61.0521L89.4472-60.4639L89.4472-10.0264C89.4472-7.43969 87.5001-5.3079 84.9913-5.01655L84.4031-4.98262L33.9612-4.98262C31.3743-4.98262 29.2423-6.92965 28.9509-9.43815L28.917-10.0264L28.917-60.4639C28.917-63.0506 30.8643-65.1824 33.3729-65.4737L33.9612-65.5077L84.4031-65.5077Z"/>
  </g>
  <g id="Regular-M" transform="matrix(1 0 0 1 1391.3 1126)">
   <path d="M88.428-85.0586C99.4304-85.0586 108.35-76.1393 108.35-65.1367L108.35-5.37108C108.35 5.63128 99.4304 14.5508 88.428 14.5508L28.6622 14.5508C17.6596 14.5508 8.74023 5.63128 8.74023-5.37108L8.74023-65.1367C8.74023-76.1393 17.6596-85.0586 28.6622-85.0586L88.428-85.0586ZM88.428-75.0977L28.6622-75.0977C23.4109-75.0977 19.1088-71.0342 18.7285-65.8801L18.7012-65.1367L18.7012-5.37108C18.7012-0.119718 22.7647 4.1823 27.9188 4.56254L28.6622 4.58986L88.428 4.58986C93.6794 4.58986 97.9815 0.526544 98.3617-4.62766L98.389-5.37108L98.389-65.1367C98.389-70.3879 94.3257-74.6901 89.1715-75.0703L88.428-75.0977ZM83.4476-65.1367C86.0018-65.1367 88.1069-63.214 88.3945-60.7371L88.428-60.1562L88.428-10.3516C88.428-7.79732 86.5054-5.69227 84.0284-5.40459L83.4476-5.37108L33.6427-5.37108C31.0885-5.37108 28.9834-7.29368 28.6957-9.77071L28.6622-10.3516L28.6622-60.1562C28.6622-62.7104 30.5849-64.8155 33.0618-65.1032L33.6427-65.1367L83.4476-65.1367Z"/>
  </g>
  <g id="Light-M" transform="matrix(1 0 0 1 1095.41 1126)">
   <path d="M87.1072-84.2262C97.9273-84.2262 106.699-75.4559 106.699-64.6373L106.699-5.87052C106.699 4.94795 97.9273 13.7184 87.1072 13.7184L28.332 13.7184C17.5118 13.7184 8.74023 4.94795 8.74023-5.87052L8.74023-64.6373C8.74023-75.4559 17.5118-84.2262 28.332-84.2262L87.1072-84.2262ZM87.1072-74.4317L28.332-74.4317C23.1678-74.4317 18.9369-70.4362 18.563-65.3683L18.5361-64.6373L18.5361-5.87052C18.5361-0.706925 22.5322 3.52319 27.6009 3.89708L28.332 3.92394L87.1072 3.92394C92.2716 3.92394 96.5023-0.0714651 96.8763-5.13953L96.9031-5.87052L96.9031-64.6373C96.9031-69.8007 92.9071-74.031 87.8383-74.4049L87.1072-74.4317ZM82.2093-64.6373C84.7212-64.6373 86.7914-62.7467 87.0743-60.3112L87.1072-59.7401L87.1072-10.7677C87.1072-8.25621 85.2165-6.18635 82.7805-5.90347L82.2093-5.87052L33.2299-5.87052C30.7181-5.87052 28.6479-7.76098 28.3649-10.1966L28.332-10.7677L28.332-59.7401C28.332-62.2515 30.2228-64.3214 32.6587-64.6043L33.2299-64.6373L82.2093-64.6373Z"/>
  </g>
  <g id="Thin-M" transform="matrix(1 0 0 1 799.793 1126)">
   <path d="M85.3616-83.1253C95.9407-83.1253 104.517-74.5522 104.517-63.9767L104.517-6.53106C104.517 4.04421 95.9407 12.6175 85.3616 12.6175L27.8956 12.6175C17.3164 12.6175 8.74023 4.04421 8.74023-6.53106L8.74023-63.9767C8.74023-74.5522 17.3164-83.1253 27.8956-83.1253L85.3616-83.1253ZM85.3616-73.551L27.8956-73.551C22.8464-73.551 18.7098-69.6453 18.3442-64.6913L18.3179-63.9767L18.3179-6.53106C18.3179-1.48354 22.225 2.65148 27.1808 3.01696L27.8956 3.04322L85.3616 3.04322C90.411 3.04322 94.5474-0.862368 94.9131-5.8165L94.9393-6.53106L94.9393-63.9767C94.9393-69.0241 91.0323-73.1593 86.0765-73.5248L85.3616-73.551ZM80.5728-63.9767C83.0288-63.9767 85.0528-62.1287 85.3294-59.7479L85.3616-59.1896L85.3616-11.3182C85.3616-8.86312 83.513-6.83979 81.1313-6.56327L80.5728-6.53106L32.6844-6.53106C30.2285-6.53106 28.2044-8.37903 27.9278-10.7599L27.8956-11.3182L27.8956-59.1896C27.8956-61.6446 29.7443-63.668 32.1259-63.9445L32.6844-63.9767L80.5728-63.9767Z"/>
  </g>
  <g id="Ultralight-M" transform="matrix(1 0 0 1 503.641 1126)">
   <path d="M84.468-82.5607C94.9237-82.5607 103.4-74.0887 103.4-63.638L103.4-6.86982C103.4 3.58073 94.9237 12.0529 84.468 12.0529L27.6722 12.0529C17.2163 12.0529 8.74023 3.58073 8.74023-6.86982L8.74023-63.638C8.74023-74.0887 17.2163-82.5607 27.6722-82.5607L84.468-82.5607ZM84.468-73.0993L27.6722-73.0993C22.6819-73.0993 18.5935-69.2397 18.2322-64.3441L18.2062-63.638L18.2062-6.86982C18.2062-1.88183 22.0677 2.20442 26.9657 2.56559L27.6722 2.59154L84.468 2.59154C89.4585 2.59154 93.5467-1.26799 93.9081-6.16369L93.934-6.86982L93.934-63.638C93.934-68.6258 90.0726-72.7122 85.1745-73.0734L84.468-73.0993ZM79.7351-63.638C82.1624-63.638 84.1628-61.8117 84.4362-59.459L84.468-58.9073L84.468-11.6005C84.468-9.17437 82.641-7.17491 80.287-6.90165L79.7351-6.86982L32.4052-6.86982C29.9779-6.86982 27.9774-8.69599 27.704-11.0488L27.6722-11.6005L27.6722-58.9073C27.6722-61.3334 29.4993-63.3329 31.8532-63.6062L32.4052-63.638L79.7351-63.638Z"/>
  </g>
  <g id="Black-S" transform="matrix(1 0 0 1 2884.57 696)">
   <path d="M74.0234-77.1973C83.2999-77.1973 90.8203-69.6771 90.8203-60.4004L90.8203-10.0098C90.8203-0.733274 83.2999 6.78711 74.0234 6.78711L23.6328 6.78711C14.3562 6.78711 6.83594-0.733274 6.83594-10.0098L6.83594-60.4004C6.83594-69.6771 14.3562-77.1973 23.6328-77.1973L74.0234-77.1973ZM74.0234-68.7989L23.6328-68.7989C19.2053-68.7989 15.578-65.3728 15.2574-61.0272L15.2344-60.4004L15.2344-10.0098C15.2344-5.58215 18.6604-1.95496 23.006-1.63437L23.6328-1.61133L74.0234-1.61133C78.451-1.61133 82.0782-5.03727 82.3988-9.38297L82.4219-10.0098L82.4219-60.4004C82.4219-64.8279 78.9959-68.4552 74.6502-68.7758L74.0234-68.7989ZM69.8242-60.4004C71.9778-60.4004 73.7526-58.7793 73.9952-56.6909L74.0234-56.2012L74.0234-14.209C74.0234-12.0554 72.4024-10.2806 70.3139-10.038L69.8242-10.0098L27.832-10.0098C25.6785-10.0098 23.9036-11.6308 23.6611-13.7193L23.6328-14.209L23.6328-56.2012C23.6328-58.3547 25.2539-60.1296 27.3423-60.3722L27.832-60.4004L69.8242-60.4004Z"/>
  </g>
  <g id="Heavy-S" transform="matrix(1 0 0 1 2588.47 696)">
   <path d="M73.0554-76.5984C82.1983-76.5984 89.6103-69.1876 89.6103-60.0458L89.6103-10.388C89.6103-1.24646 82.1983 6.16455 73.0554 6.16455L23.3908 6.16455C14.2478 6.16455 6.83594-1.24646 6.83594-10.388L6.83594-60.0458C6.83594-69.1876 14.2478-76.5984 23.3908-76.5984L73.0554-76.5984ZM73.0554-68.3221L23.3908-68.3221C19.0271-68.3221 15.4521-64.9459 15.1361-60.6635L15.1134-60.0458L15.1134-10.388C15.1134-6.02481 18.4901-2.45038 22.7731-2.13445L23.3908-2.11175L73.0554-2.11175C77.4193-2.11175 80.9942-5.48785 81.3102-9.77035L81.3329-10.388L81.3329-60.0458C81.3329-64.4089 77.9563-67.9835 73.6732-68.2994L73.0554-68.3221ZM68.9167-60.0458C71.0393-60.0458 72.7885-58.4483 73.0276-56.3903L73.0554-55.9077L73.0554-14.5262C73.0554-12.4039 71.4578-10.6549 69.3994-10.4159L68.9167-10.388L27.5295-10.388C25.407-10.388 23.6577-11.9855 23.4187-14.0436L23.3908-14.5262L23.3908-55.9077C23.3908-58.0299 24.9885-59.7789 27.0469-60.018L27.5295-60.0458L68.9167-60.0458Z"/>
  </g>
  <g id="Bold-S" transform="matrix(1 0 0 1 2292.43 696)">
   <path d="M71.9726-75.9277C80.966-75.9277 88.2568-68.6392 88.2568-59.6484L88.2568-10.8105C88.2568-1.8199 80.966 5.46875 71.9726 5.46875L23.1201 5.46875C14.1266 5.46875 6.83594-1.8199 6.83594-10.8105L6.83594-59.6484C6.83594-68.6392 14.1266-75.9277 23.1201-75.9277L71.9726-75.9277ZM71.9726-67.7881L23.1201-67.7881C18.8278-67.7881 15.3112-64.4676 15.0004-60.2559L14.978-59.6484L14.978-10.8105C14.978-6.51936 18.2995-3.00394 22.5125-2.69322L23.1201-2.6709L71.9726-2.6709C76.2651-2.6709 79.7816-5.99126 80.0924-10.2031L80.1147-10.8105L80.1147-59.6484C80.1147-63.9395 76.7934-67.455 72.5803-67.7657L71.9726-67.7881ZM67.9016-59.6484C69.9894-59.6484 71.7101-58.0773 71.9452-56.0532L71.9726-55.5786L71.9726-14.8804C71.9726-12.7932 70.4011-11.073 68.3764-10.8379L67.9016-10.8105L27.1912-10.8105C25.1034-10.8105 23.3827-12.3816 23.1475-14.4057L23.1201-14.8804L23.1201-55.5786C23.1201-57.6658 24.6917-59.3859 26.7164-59.621L27.1912-59.6484L67.9016-59.6484Z"/>
  </g>
  <g id="Semibold-S" transform="matrix(1 0 0 1 1996.19 696)">
   <path d="M71.2262-75.4654C80.1165-75.4654 87.3238-68.2613 87.3238-59.3745L87.3238-11.102C87.3238-2.21542 80.1165 4.98886 71.2262 4.98886L22.9335 4.98886C14.0431 4.98886 6.83594-2.21542 6.83594-11.102L6.83594-59.3745C6.83594-68.2613 14.0431-75.4654 22.9335-75.4654L71.2262-75.4654ZM71.2262-67.42L22.9335-67.42C18.6903-67.42 15.2141-64.1379 14.9068-59.975L14.8847-59.3745L14.8847-11.102C14.8847-6.86048 18.1681-3.38575 22.3328-3.07863L22.9335-3.05657L71.2262-3.05657C75.4695-3.05657 78.9457-6.3385 79.2529-10.5015L79.275-11.102L79.275-59.3745C79.275-63.6159 75.9917-67.0908 71.8269-67.3979L71.2262-67.42ZM67.2018-59.3745C69.2657-59.3745 70.9667-57.8216 71.1992-55.821L71.2262-55.3518L71.2262-15.1247C71.2262-13.0617 69.6727-11.3614 67.6712-11.1291L67.2018-11.102L26.9579-11.102C24.894-11.102 23.1931-12.6549 22.9606-14.6556L22.9335-15.1247L22.9335-55.3518C22.9335-57.4148 24.4871-59.1151 26.4886-59.3475L26.9579-59.3745L67.2018-59.3745Z"/>
  </g>
  <g id="Medium-S" transform="matrix(1 0 0 1 1699.83 696)">
   <path d="M70.6604-75.1152C79.4725-75.1152 86.6165-67.975 86.6165-59.1672L86.6165-11.3231C86.6165-2.51539 79.4725 4.62494 70.6604 4.62494L22.7921 4.62494C13.9797 4.62494 6.83594-2.51539 6.83594-11.3231L6.83594-59.1672C6.83594-67.975 13.9797-75.1152 22.7921-75.1152L70.6604-75.1152ZM70.6604-67.1412L22.7921-67.1412C18.5862-67.1412 15.1404-63.8883 14.8359-59.7623L14.814-59.1672L14.814-11.3231C14.814-7.11922 18.0686-3.67534 22.1966-3.37095L22.7921-3.34907L70.6604-3.34907C74.8664-3.34907 78.312-6.60187 78.6166-10.728L78.6384-11.3231L78.6384-59.1672C78.6384-63.3709 75.384-66.8149 71.2558-67.1193L70.6604-67.1412ZM66.6714-59.1672C68.7171-59.1672 70.4031-57.628 70.6336-55.6451L70.6604-55.1802L70.6604-15.3101C70.6604-13.2654 69.1205-11.5802 67.1366-11.3499L66.6714-11.3231L26.7811-11.3231C24.7353-11.3231 23.0493-12.8622 22.8189-14.8451L22.7921-15.3101L22.7921-55.1802C22.7921-57.2249 24.332-58.91 26.3159-59.1403L26.7811-59.1672L66.6714-59.1672Z"/>
  </g>
  <g id="Regular-S" transform="matrix(1 0 0 1 1403.58 696)">
   <path d="M69.9219-74.6582C78.6321-74.6582 85.6934-67.6014 85.6934-58.8965L85.6934-11.6113C85.6934-2.90653 78.6321 4.15039 69.9219 4.15039L22.6074 4.15039C13.8971 4.15039 6.83594-2.90653 6.83594-11.6113L6.83594-58.8965C6.83594-67.6014 13.8971-74.6582 22.6074-74.6582L69.9219-74.6582ZM69.9219-66.7773L22.6074-66.7773C18.4502-66.7773 15.0444-63.5624 14.7433-59.4846L14.7217-58.8965L14.7217-11.6113C14.7217-7.45658 17.9386-4.05292 22.0189-3.75208L22.6074-3.73047L69.9219-3.73047C74.0792-3.73047 77.485-6.94527 77.786-11.0232L77.8077-11.6113L77.8077-58.8965C77.8077-63.0511 74.5909-66.4549 70.5104-66.7557L69.9219-66.7773ZM65.979-58.8965C68.0011-58.8965 69.6676-57.3753 69.8954-55.4156L69.9219-54.9561L69.9219-15.5518C69.9219-13.5309 68.3999-11.8654 66.4389-11.6378L65.979-11.6113L26.5503-11.6113C24.5282-11.6113 22.8617-13.1324 22.634-15.0922L22.6074-15.5518L22.6074-54.9561C22.6074-56.9769 24.1296-58.6424 26.0905-58.87L26.5503-58.8965L65.979-58.8965Z"/>
  </g>
  <g id="Light-S" transform="matrix(1 0 0 1 1107.6 696)">
   <path d="M68.7476-73.9319C77.2957-73.9319 84.2255-67.0052 84.2255-58.4607L84.2255-12.0471C84.2255-3.50277 77.2957 3.42407 68.7476 3.42407L22.3139 3.42407C13.7656 3.42407 6.83594-3.50277 6.83594-12.0471L6.83594-58.4607C6.83594-67.0052 13.7656-73.9319 22.3139-73.9319L68.7476-73.9319ZM68.7476-66.1963L22.3139-66.1963C18.234-66.1963 14.8916-63.0407 14.5961-59.038L14.5749-58.4607L14.5749-12.0471C14.5749-7.96895 17.7319-4.62804 21.7363-4.33274L22.3139-4.31153L68.7476-4.31153C72.8275-4.31153 76.1699-7.46707 76.4653-11.4698L76.4865-12.0471L76.4865-58.4607C76.4865-62.5388 73.3296-65.8798 69.3252-66.1751L68.7476-66.1963ZM64.8781-58.4607C66.8626-58.4607 68.498-56.9676 68.7216-55.044L68.7476-54.5929L68.7476-15.9149C68.7476-13.9313 67.2539-12.2966 65.3294-12.0731L64.8781-12.0471L26.1833-12.0471C24.1989-12.0471 22.5634-13.5402 22.3399-15.4638L22.3139-15.9149L22.3139-54.5929C22.3139-56.5765 23.8076-58.2113 25.7321-58.4347L26.1833-58.4607L64.8781-58.4607Z"/>
  </g>
  <g id="Thin-S" transform="matrix(1 0 0 1 811.863 696)">
   <path d="M67.1936-72.9706C75.5271-72.9706 82.283-66.2161 82.283-57.8839L82.283-12.6239C82.283-4.29191 75.5271 2.46277 67.1936 2.46277L21.9254 2.46277C13.5917 2.46277 6.83594-4.29191 6.83594-12.6239L6.83594-57.8839C6.83594-66.2161 13.5917-72.9706 21.9254-72.9706L67.1936-72.9706ZM67.1936-65.4273L21.9254-65.4273C17.9479-65.4273 14.6894-62.35 14.4013-58.4469L14.3806-57.8839L14.3806-12.6239C14.3806-8.64709 17.4584-5.38921 21.3623-5.10126L21.9254-5.08057L67.1936-5.08057C71.1711-5.08057 74.4296-8.15768 74.7176-12.0609L74.7383-12.6239L74.7383-57.8839C74.7383-61.8606 71.6606-65.1186 67.7567-65.4066L67.1936-65.4273ZM63.4212-57.8839C65.3559-57.8839 66.9503-56.4279 67.1682-54.5521L67.1936-54.1123L67.1936-16.3956C67.1936-14.4613 65.7374-12.8671 63.8612-12.6493L63.4212-12.6239L25.6977-12.6239C23.7631-12.6239 22.1686-14.0799 21.9507-15.9557L21.9254-16.3956L21.9254-54.1123C21.9254-56.0465 23.3816-57.6407 25.2578-57.8586L25.6977-57.8839L63.4212-57.8839Z"/>
  </g>
  <g id="Ultralight-S" transform="matrix(1 0 0 1 515.649 696)">
   <path d="M66.3983-72.4785C74.622-72.4785 81.2889-65.8121 81.2889-57.5887L81.2889-12.9192C81.2889-4.69588 74.622 1.97067 66.3983 1.97067L21.7265 1.97067C13.5027 1.97067 6.83594-4.69588 6.83594-12.9192L6.83594-57.5887C6.83594-65.8121 13.5027-72.4785 21.7265-72.4785L66.3983-72.4785ZM66.3983-65.0336L21.7265-65.0336C17.8015-65.0336 14.5859-61.9965 14.3017-58.1443L14.2812-57.5887L14.2812-12.9192C14.2812-8.99424 17.3185-5.77886 21.1709-5.49467L21.7265-5.47425L66.3983-5.47425C70.3234-5.47425 73.539-8.51121 73.8232-12.3635L73.8436-12.9192L73.8436-57.5887C73.8436-61.5135 70.8065-64.729 66.954-65.0132L66.3983-65.0336ZM62.6757-57.5887C64.5848-57.5887 66.1582-56.1516 66.3733-54.3003L66.3983-53.8662L66.3983-16.6416C66.3983-14.7326 64.9613-13.1592 63.1098-12.9442L62.6757-12.9192L25.4492-12.9192C23.5401-12.9192 21.9666-14.3561 21.7516-16.2075L21.7265-16.6416L21.7265-53.8662C21.7265-55.7752 23.1636-57.3486 25.015-57.5636L25.4492-57.5887L62.6757-57.5887Z"/>
  </g>
 </g>
</svg>
