<svg width="29" height="26" viewBox="0 0 29 26" fill="none" xmlns="http://www.w3.org/2000/svg">
<path d="M9.42871 11.191L9.42871 4.36523" stroke="#356899" stroke-linecap="round" stroke-linejoin="round"/>
<path d="M20.5078 14.2358L20.5078 21.0616" stroke="#356899" stroke-linecap="round" stroke-linejoin="round"/>
<path fill-rule="evenodd" clip-rule="evenodd" d="M20.5693 9.45364C22.0502 9.45364 23.251 8.3073 23.251 6.89357C23.251 5.47984 22.0502 4.3335 20.5693 4.3335C19.0884 4.3335 17.8876 5.47984 17.8876 6.89357C17.8876 8.3073 19.0884 9.45364 20.5693 9.45364Z" stroke="#356899" stroke-linecap="round" stroke-linejoin="round"/>
<path fill-rule="evenodd" clip-rule="evenodd" d="M9.47358 21.667C10.9545 21.667 12.1553 20.5216 12.1553 19.1078C12.1553 17.6932 10.9545 16.5469 9.47358 16.5469C7.99269 16.5469 6.7919 17.6932 6.7919 19.1078C6.7919 20.5216 7.99269 21.667 9.47358 21.667Z" stroke="#356899" stroke-linecap="round" stroke-linejoin="round"/>
</svg>
