<svg width="156" height="131" viewBox="0 0 156 131" fill="none" xmlns="http://www.w3.org/2000/svg">
<path d="M16.0237 106.368C15.0298 105.846 13.9073 105.521 12.7414 105.417C12.2039 105.33 11.6471 105.416 11.1814 105.658C11.1308 105.681 11.0888 105.716 11.0602 105.758C11.0315 105.8 11.0173 105.848 11.0192 105.896C11.0447 105.964 11.0991 106.022 11.1721 106.059C11.8725 106.478 12.6964 106.729 13.5543 106.784C14.4123 106.838 15.2716 106.694 16.0393 106.368" fill="#E0E0E0"/>
<path d="M15.9393 106.292C15.1758 105.821 14.4627 105.295 13.8083 104.72C13.1532 104.139 12.6925 103.423 12.4729 102.645C12.4302 102.53 12.4176 102.408 12.4359 102.288C12.4542 102.168 12.503 102.053 12.579 101.951C14.2763 103.064 15.6117 104.505 15.9393 106.295" fill="#E0E0E0"/>
<path d="M16.0081 106.358C15.8489 105.576 15.8616 104.777 16.0456 104C16.2364 103.219 16.7685 102.528 17.5369 102.061C17.8302 102.637 17.7023 103.3 17.4964 103.895C17.177 104.83 16.6786 105.714 16.0206 106.515" fill="#E0E0E0"/>
<path d="M17.6712 108.865C16.6715 108.999 15.7467 109.392 15.0254 109.989C14.2677 110.569 13.7396 111.329 13.5122 112.169C14.5044 112.119 15.3468 111.532 15.9552 110.872C16.5636 110.212 16.9879 109.491 17.6587 108.875" fill="#E0E0E0"/>
<path d="M18.0455 109.271C17.6479 108.423 17.5087 107.504 17.6406 106.599C17.7724 105.694 18.1711 104.831 18.8005 104.089C19.1007 104.95 19.1885 105.854 19.0587 106.745C18.9289 107.636 18.5841 108.496 18.0455 109.271Z" fill="#E0E0E0"/>
<path d="M20.2293 111.464C19.3057 111.416 18.3858 111.598 17.5837 111.985C16.7817 112.373 16.1328 112.949 15.7177 113.644C15.6815 113.687 15.6598 113.737 15.6549 113.79C15.65 113.843 15.662 113.895 15.6897 113.943C15.7282 113.974 15.7754 113.997 15.827 114.01C15.8787 114.023 15.9333 114.025 15.9861 114.016C16.8753 113.966 17.6646 113.518 18.3136 113.007C18.9625 112.496 19.5304 111.904 20.2511 111.461" fill="#E0E0E0"/>
<path d="M20.1639 111.343C19.6926 110.067 19.6634 108.704 20.0797 107.413C20.2451 106.905 20.5227 106.365 21.0812 106.135C21.1034 106.122 21.1284 106.114 21.1547 106.11C21.181 106.106 21.2081 106.106 21.2341 106.111C21.2794 106.131 21.3139 106.165 21.3308 106.206C21.5186 106.561 21.6 106.95 21.5679 107.337C21.5344 107.723 21.4634 108.106 21.3558 108.482C21.1811 109.182 21.0875 109.931 20.6288 110.536C20.5205 110.681 20.4236 110.832 20.3387 110.987C20.2513 111.142 20.2513 111.194 20.1733 111.317" fill="#E0E0E0"/>
<path d="M25.9858 112.072C25.7913 111.353 25.7854 110.607 25.9686 109.886C26.1518 109.164 26.5196 108.485 27.0466 107.895C27.1215 107.812 27.2245 107.723 27.3586 107.733C27.5489 107.746 27.5957 107.958 27.5895 108.121C27.5101 109.537 26.9576 110.906 25.9952 112.072" fill="#E0E0E0"/>
<path d="M26.51 112.373C27.5267 112.573 28.583 112.587 29.6064 112.412C30.6297 112.237 31.5957 111.877 32.438 111.359C31.4434 110.94 30.3068 110.824 29.2213 111.029C28.1527 111.192 27.1876 111.669 26.4976 112.373" fill="#E0E0E0"/>
<path d="M26.9531 111.456C27.5421 110.693 28.3375 110.058 29.2745 109.603C30.2115 109.148 31.2635 108.885 32.3445 108.836C32.1986 109.195 31.967 109.526 31.6639 109.807C31.3608 110.089 30.9926 110.316 30.5817 110.474C29.7577 110.785 28.8861 110.998 27.9921 111.108C27.6489 111.165 27.1778 111.226 26.9531 111.454" fill="#E0E0E0"/>
<path d="M26.0979 107.005C26.432 106.143 26.6609 105.254 26.7812 104.353C26.8994 103.447 26.6815 102.532 26.1572 101.733C25.625 102.555 25.3387 103.472 25.323 104.407C25.3072 105.342 25.5624 106.266 26.0667 107.099" fill="#E0E0E0"/>
<path d="M29.6079 105.514C30.8278 103.651 33.3176 102.166 35.8479 101.956C34.8745 103.989 32.2256 105.559 29.6079 105.514Z" fill="#E0E0E0"/>
<path d="M28.8403 105.878C30.6593 106.111 32.2099 107.086 33.9103 107.678C34.2662 107.823 34.6611 107.886 35.0554 107.862C35.2388 107.86 35.4172 107.811 35.5664 107.721C35.7156 107.632 35.8285 107.506 35.8898 107.361C35.951 107.216 35.9577 107.058 35.9089 106.91C35.8601 106.761 35.7582 106.629 35.617 106.531C35.3765 106.343 35.093 106.199 34.7839 106.106C32.9338 105.459 30.9463 105.443 28.9963 105.844" fill="#E0E0E0"/>
<path d="M27.7891 106.95C28.2009 107.049 28.3413 107.227 28.6658 107.461C29.7779 108.254 31.0934 108.822 32.5096 109.119C32.6563 109.15 32.8497 109.164 32.9215 109.051C32.9932 108.938 32.9059 108.836 32.8247 108.75C32.2049 108.145 31.4032 107.692 30.5035 107.437C29.6143 107.159 28.8467 106.824 27.7891 106.897" fill="#E0E0E0"/>
<path d="M26.6006 100.478C27.3466 101.056 28.2283 101.497 29.189 101.771C30.1497 102.046 31.1682 102.149 32.1791 102.074C32.2719 102.074 32.3617 102.046 32.4319 101.995C32.5723 101.867 32.4038 101.67 32.2384 101.563C30.6004 100.489 28.613 100.043 26.6006 100.478Z" fill="#E0E0E0"/>
<path d="M28.0073 100.046C28.9951 99.4362 30.1405 99.031 31.3501 98.8635C32.5597 98.6959 33.7994 98.7708 34.968 99.0819C34.0575 99.7909 32.8893 100.222 31.6515 100.305C30.4279 100.398 29.1944 100.309 28.0073 100.043" fill="#E0E0E0"/>
<path d="M27.4491 97.0724C27.2868 95.6995 27.3929 94.6148 27.2775 93.2341C27.2775 93.124 27.2432 92.9904 27.1184 92.9511C26.9936 92.9118 26.8064 93.0716 26.7502 93.2131C26.5113 93.8531 26.4497 94.5304 26.5703 95.1934C26.6909 95.8564 26.9904 96.4874 27.446 97.0383" fill="#E0E0E0"/>
<path d="M27.3306 97.2191C28.3999 96.6401 29.3215 95.8885 30.0418 95.0078C30.5785 94.3921 31.0278 93.6559 30.9061 92.8987C30.5309 92.9095 30.1631 92.9887 29.828 93.1307C29.4929 93.2728 29.1986 93.4743 28.9654 93.7214C28.4982 94.2183 28.1583 94.791 27.967 95.4034C27.7518 96.0086 27.5989 96.6296 27.343 97.2243" fill="#E0E0E0"/>
<path d="M29.9952 96.6034C32.4362 95.8414 34.6953 94.719 36.6657 93.2891C35.8701 93.0271 34.956 93.1817 34.1697 93.4515C32.3615 94.0267 30.8674 95.1388 29.9702 96.5772" fill="#E0E0E0"/>
<path d="M28.0793 97.9763C29.3034 98.1263 30.5461 98.136 31.7733 98.0051C32.9662 97.7972 34.1263 97.4736 35.2303 97.0409C35.3283 97.0168 35.4119 96.9625 35.4643 96.8889C35.4836 96.8457 35.4859 96.7985 35.4707 96.7541C35.4555 96.7098 35.4237 96.6707 35.3801 96.6427C35.2945 96.5849 35.1941 96.5445 35.0868 96.5248C33.8443 96.2727 32.5405 96.3384 31.3428 96.7134C30.1991 97.0424 29.0992 97.4699 28.0605 97.9893" fill="#E0E0E0"/>
<path d="M21.0466 100.525C20.6502 99.814 20.4398 99.0395 20.4296 98.2541C20.4194 97.4687 20.6095 96.6905 20.9873 95.9719C21.499 96.6269 21.5614 97.4575 21.4678 98.2356C21.3742 99.0137 21.0934 99.8076 21.0746 100.594" fill="#E0E0E0"/>
<path d="M17.6897 99.1055C16.6386 99.0939 15.5963 99.2666 14.6292 99.6127C13.6622 99.9587 12.7918 100.47 12.0737 101.115C13.1336 101.218 14.2057 101.047 15.1469 100.625C16.0848 100.208 16.9693 99.711 17.7864 99.1422" fill="#E0E0E0"/>
<path d="M15.4339 98.4713C14.4074 98.4006 13.4215 98.2932 12.4325 98.5473C11.9342 98.6649 11.4719 98.8714 11.0773 99.1526C10.6826 99.4339 10.3648 99.7832 10.1455 100.177C11.1121 100.241 12.0815 100.088 12.9535 99.7315C13.8211 99.374 14.6491 98.9522 15.4277 98.4713" fill="#E0E0E0"/>
<path d="M18.7756 98.5001C17.8396 97.9918 16.9036 97.473 15.8303 97.2634C14.7571 97.0538 13.5091 97.2084 12.7603 97.8896C13.6276 98.3193 14.6853 98.3691 15.6931 98.3691C16.7008 98.3691 17.9395 98.3691 18.8911 98.6311" fill="#E0E0E0"/>
<path d="M18.7817 98.529C17.203 97.219 16.5977 94.8898 17.2405 93.1108C18.4843 94.7131 19.0289 96.6276 18.7817 98.529Z" fill="#E0E0E0"/>
<path d="M23.1216 94.861C23.4336 94.2794 23.627 93.669 23.8953 93.0795C24.1397 92.4786 24.5142 91.9208 24.9998 91.4341C25.4924 90.9462 26.1942 90.6412 26.9529 90.5852C26.709 91.4801 26.2456 92.3226 25.5924 93.0588C24.9392 93.795 24.1104 94.4088 23.159 94.861" fill="#E0E0E0"/>
<path d="M22.3354 95.6208C21.8424 95.0523 21.2746 94.2794 20.6069 93.8549C20.2842 93.6285 19.9063 93.4642 19.4999 93.3737C19.0934 93.2832 18.6683 93.2686 18.2544 93.3309C18.6755 93.9525 19.2638 94.4828 19.9724 94.8794C20.681 95.2761 21.4901 95.5282 22.3354 95.6156" fill="#E0E0E0"/>
<path d="M22.4942 94.9002C22.1397 94.2216 21.8781 93.5114 21.7142 92.7833C21.5508 92.0493 21.6872 91.2905 22.1011 90.6296C22.9685 92.0051 23.2493 93.4802 22.5317 94.916" fill="#E0E0E0"/>
<path d="M23.1279 90.6298C23.6209 89.2674 25.106 88.2718 26.7128 87.8028C26.9099 87.7337 27.124 87.7058 27.3368 87.7216C27.4442 87.7314 27.5457 87.7678 27.6284 87.8261C27.7112 87.8844 27.7715 87.962 27.8017 88.0491C27.861 88.2822 27.6332 88.4892 27.4179 88.6438C26.1626 89.5432 24.7032 90.2197 23.1279 90.6324" fill="#E0E0E0"/>
<path d="M23.1465 89.5135C23.1622 88.6317 23.3196 87.7557 23.6145 86.9092C23.7658 86.4865 24.0166 86.0936 24.3521 85.7538C24.6876 85.414 25.101 85.1342 25.5677 84.9312C25.7299 85.8193 25.2557 86.7023 24.7003 87.4673C24.1449 88.2324 23.4523 88.9529 23.1216 89.8044" fill="#E0E0E0"/>
<path d="M23.1218 90.1187C22.7162 89.1257 22.6725 87.8629 21.9643 86.9983C21.4713 86.3931 20.6757 85.9817 20.2514 85.3398C19.9937 85.9541 20.0295 86.6284 20.3513 87.221C20.6742 87.8058 21.1179 88.338 21.6617 88.793C22.1858 89.262 22.6351 89.6157 23.1218 90.103" fill="#E0E0E0"/>
<path d="M23.1283 119.382C23.0969 119.382 23.0718 112.753 23.0686 104.579C23.0655 96.4042 23.0906 89.7729 23.122 89.7729C23.1534 89.7729 23.1817 96.4016 23.1817 104.579C23.1817 112.756 23.1628 119.382 23.1283 119.382Z" fill="#E0E0E0"/>
<path d="M30.0263 99.5273C29.9261 99.5665 29.8216 99.5972 29.7143 99.619L28.9 99.8522C28.2104 100.049 27.2651 100.334 26.2355 100.688C25.2059 101.042 24.2605 101.351 23.7145 101.736C23.4974 101.889 23.3246 102.082 23.2091 102.299C23.1311 102.457 23.1155 102.561 23.1061 102.548C23.1013 102.526 23.1013 102.503 23.1061 102.48C23.1177 102.414 23.1376 102.349 23.1654 102.286C23.2683 102.055 23.4377 101.849 23.6584 101.686C23.9885 101.452 24.3574 101.26 24.7535 101.115C25.1903 100.945 25.6895 100.767 26.1918 100.591C27.2214 100.235 28.173 99.9596 28.8688 99.7789C29.2182 99.6872 29.4928 99.6217 29.6987 99.5771C29.8051 99.5496 29.9151 99.5329 30.0263 99.5273Z" fill="#E0E0E0"/>
<path d="M32.2883 94.8611C32.2883 94.8611 32.2634 94.8899 32.2041 94.9371L31.9514 95.1362L31.0154 95.8567C30.1979 96.4698 29.0935 97.2977 27.8673 98.2147C26.6411 99.1317 25.5772 100.009 24.844 100.67C24.4727 101 24.1826 101.275 23.986 101.456L23.7583 101.676C23.7052 101.725 23.674 101.752 23.6709 101.749C23.69 101.718 23.713 101.689 23.7395 101.663L23.9517 101.432C24.1389 101.233 24.4228 100.953 24.7847 100.617C25.7344 99.7453 26.7383 98.9162 27.7924 98.1335C29.0404 97.2191 30.148 96.3964 30.9623 95.8017L31.9327 95.1021L32.201 94.9161C32.228 94.8955 32.2572 94.8771 32.2883 94.8611Z" fill="#E0E0E0"/>
<path d="M26.5319 99.1448C26.5007 99.1317 26.7565 98.6365 27.0124 98.0051C27.2682 97.3736 27.393 96.8444 27.4242 96.8496C27.3969 97.2568 27.2915 97.6576 27.1122 98.0365C27.0024 98.3045 26.8743 98.5669 26.7284 98.8225C26.6843 98.9382 26.6179 99.0471 26.5319 99.1448Z" fill="#E0E0E0"/>
<path d="M23.1371 103.156C23.065 103.102 23.0011 103.04 22.9468 102.973L22.4632 102.449C22.0545 102.006 21.4929 101.401 20.8595 100.727C20.2261 100.054 19.6489 99.4592 19.2277 99.0269L18.7317 98.5029C18.668 98.4415 18.6106 98.3758 18.5601 98.3064C18.6365 98.3571 18.7056 98.4151 18.766 98.4793C18.8939 98.5946 19.078 98.7623 19.2901 98.9745C19.7269 99.3963 20.3166 99.9911 20.95 100.659C21.5833 101.327 22.1356 101.946 22.51 102.399C22.7065 102.627 22.8625 102.81 22.9686 102.941C23.0326 103.008 23.089 103.08 23.1371 103.156Z" fill="#E0E0E0"/>
<path d="M21.6239 101.526C21.3233 101.241 21.1092 100.9 20.9999 100.531C20.8813 100.206 20.8327 99.8661 20.8564 99.5271H20.9063C20.8845 99.6031 20.8689 99.645 20.8595 99.6424C20.8502 99.6398 20.8595 99.5979 20.8595 99.5193H20.9095C20.9343 99.8494 21.0023 100.176 21.1123 100.494C21.2514 100.848 21.4225 101.194 21.6239 101.526Z" fill="#E0E0E0"/>
<path d="M19.6709 99.4643C19.535 99.376 19.3861 99.3029 19.2278 99.2469C18.8302 99.1491 18.4127 99.1214 18.0017 99.1656C17.581 99.1937 17.1637 99.2498 16.7537 99.3333C16.5873 99.3776 16.4173 99.4118 16.2451 99.4355C16.3971 99.3607 16.561 99.3042 16.7318 99.2678C17.1377 99.1631 17.5563 99.0971 17.9798 99.0713C18.4067 99.0228 18.8412 99.0615 19.2466 99.184C19.423 99.2324 19.5733 99.3318 19.6709 99.4643Z" fill="#E0E0E0"/>
<path d="M19.2093 98.964C19.2093 98.9797 18.9503 98.8775 18.5322 98.757C17.4296 98.438 16.2478 98.3622 15.1002 98.5369C14.6634 98.6024 14.3982 98.6731 14.392 98.6574C14.3858 98.6417 14.4544 98.6286 14.573 98.5919C14.7403 98.5428 14.9112 98.5026 15.0846 98.4714C16.238 98.2594 17.4402 98.3369 18.5416 98.6941C18.7084 98.7464 18.8709 98.8076 19.0283 98.8775C19.0935 98.8984 19.1545 98.9276 19.2093 98.964Z" fill="#E0E0E0"/>
<path d="M23.1213 96.8497C22.9194 96.379 22.7547 95.8976 22.6284 95.4087C22.4631 94.9279 22.3349 94.4387 22.2446 93.9441C22.4395 94.4158 22.6 94.897 22.7251 95.3851C22.895 95.8655 23.0273 96.3548 23.1213 96.8497Z" fill="#E0E0E0"/>
<path d="M23.153 96.8496C22.9949 96.5515 22.8114 96.2635 22.6039 95.9876C22.37 95.7256 22.0962 95.4904 21.7896 95.2881C21.9048 95.311 22.0118 95.3568 22.1016 95.4217C22.3294 95.5635 22.5277 95.7362 22.6881 95.9326C22.9372 96.1982 23.0977 96.5147 23.153 96.8496Z" fill="#E0E0E0"/>
<path d="M23.128 115.847C23.128 115.847 23.0936 115.69 23.0063 115.407C22.874 115.008 22.6975 114.62 22.479 114.249C21.7158 113.049 20.7721 111.936 19.671 110.937C19.047 110.34 18.4417 109.774 17.9269 109.232C17.4652 108.756 17.0479 108.25 16.6789 107.72C16.4344 107.361 16.2256 106.986 16.0549 106.599C15.9956 106.46 15.9551 106.352 15.9301 106.276C15.9148 106.24 15.9043 106.202 15.8989 106.164C15.8989 106.164 15.9676 106.316 16.0955 106.586C16.2831 106.965 16.5031 107.333 16.7538 107.686C17.1271 108.207 17.5442 108.705 18.0018 109.177C18.5197 109.701 19.125 110.275 19.7521 110.875C20.8572 111.879 21.7945 113.004 22.5383 114.22C22.7554 114.597 22.9228 114.992 23.0375 115.399C23.0683 115.509 23.0923 115.62 23.1092 115.732C23.1217 115.77 23.128 115.808 23.128 115.847Z" fill="#E0E0E0"/>
<path d="M29.3614 109.937C29.2619 109.994 29.1576 110.046 29.0494 110.091C28.7523 110.229 28.4686 110.385 28.2008 110.56C27.8046 110.82 27.4323 111.105 27.0869 111.412C26.6969 111.76 26.2945 112.161 25.8857 112.593C25.0621 113.458 24.2945 114.223 23.8359 114.833C23.6019 115.137 23.4334 115.394 23.3211 115.572C23.2697 115.668 23.2092 115.76 23.1401 115.847C23.1478 115.821 23.1583 115.796 23.1713 115.771C23.1963 115.721 23.2306 115.648 23.2805 115.556C23.4246 115.296 23.5871 115.043 23.7673 114.799C24.3907 114.012 25.0678 113.255 25.7953 112.533C26.2071 112.101 26.6127 111.697 27.0121 111.351C27.3634 111.043 27.7454 110.759 28.154 110.505C28.4288 110.334 28.7211 110.184 29.0276 110.057C29.1368 110.013 29.2241 109.984 29.2834 109.963C29.3079 109.951 29.3341 109.942 29.3614 109.937Z" fill="#E0E0E0"/>
<path d="M29.4833 111.854C29.256 111.895 29.0256 111.923 28.7938 111.938C28.2395 111.984 27.6913 112.071 27.1558 112.2C26.6275 112.346 26.1319 112.564 25.6894 112.847C25.3525 113.067 25.1933 113.248 25.1777 113.238C25.2023 113.188 25.2372 113.143 25.2807 113.104C25.3874 112.991 25.5076 112.887 25.6395 112.795C26.0764 112.489 26.5796 112.257 27.1215 112.111C27.6635 111.974 28.2226 111.891 28.7876 111.862C29.0186 111.841 29.2517 111.838 29.4833 111.854Z" fill="#E0E0E0"/>
<path d="M25.3771 113.036C25.3428 113.018 25.6548 112.619 25.895 112.082C26.1353 111.545 26.1758 111.066 26.207 111.071C26.2259 111.173 26.2259 111.278 26.207 111.38C26.1731 111.63 26.105 111.876 26.0042 112.114C25.9004 112.349 25.7665 112.575 25.6049 112.787C25.5466 112.88 25.4695 112.964 25.3771 113.036Z" fill="#E0E0E0"/>
<path d="M31.3804 104.786C31.3804 104.786 31.346 104.807 31.2712 104.835L30.9592 104.961C30.8156 105.011 30.6472 105.076 30.4506 105.163C30.254 105.249 30.0263 105.333 29.7892 105.454L29.4148 105.632C29.2837 105.697 29.1527 105.771 29.0154 105.844C28.7377 105.986 28.46 106.159 28.1636 106.337C26.8917 107.132 25.7821 108.096 24.8783 109.19C24.6786 109.452 24.4789 109.685 24.3198 109.923C24.2387 110.041 24.1544 110.151 24.0827 110.264L23.8705 110.581C23.7364 110.785 23.6396 110.979 23.5585 111.144C23.4774 111.309 23.3932 111.459 23.337 111.579L23.1997 111.854C23.187 111.889 23.168 111.922 23.1436 111.951C23.1508 111.916 23.1623 111.882 23.1779 111.849L23.2933 111.566C23.3432 111.443 23.4088 111.304 23.4992 111.123C23.5897 110.943 23.6802 110.757 23.8112 110.552L24.0078 110.225C24.0764 110.109 24.1576 109.997 24.2387 109.879C24.3947 109.638 24.5912 109.394 24.7909 109.135C25.2461 108.585 25.751 108.066 26.301 107.581C26.8595 107.106 27.4614 106.668 28.1012 106.271C28.4132 106.093 28.6847 105.92 28.9655 105.781C29.1059 105.711 29.2369 105.637 29.368 105.574L29.7517 105.399C29.992 105.283 30.2228 105.2 30.4225 105.118C30.6222 105.037 30.7969 104.977 30.9404 104.93L31.2743 104.822C31.3082 104.807 31.3437 104.795 31.3804 104.786Z" fill="#E0E0E0"/>
<path d="M26.4473 107.563C26.4943 107.429 26.589 107.31 26.7187 107.222C27.0224 107.001 27.4089 106.877 27.8107 106.871C28.2055 106.87 28.5968 106.934 28.962 107.06C29.1169 107.099 29.2634 107.159 29.3957 107.238C29.2389 107.211 29.0854 107.173 28.937 107.123C28.5761 107.021 28.1978 106.968 27.8169 106.968C27.4416 106.975 27.0788 107.083 26.7811 107.275C26.6613 107.363 26.5497 107.46 26.4473 107.563Z" fill="#E0E0E0"/>
<path d="M25.7114 108.202C25.8581 107.931 25.9629 107.646 26.0234 107.353C26.047 107.057 26.0239 106.759 25.9548 106.468C26.0199 106.54 26.0638 106.624 26.0827 106.714C26.1491 106.926 26.1682 107.146 26.1389 107.364C26.1077 107.581 26.0295 107.791 25.908 107.985C25.8628 108.068 25.7956 108.143 25.7114 108.202Z" fill="#E0E0E0"/>
<path d="M17.6772 116.798C17.8488 119.332 18.7568 121.907 20.1545 124.512H26.2354C27.5676 121.934 28.4194 119.361 28.566 116.798H17.6772Z" fill="#E0E0E0"/>
<path d="M27.5801 120.896C27.5801 120.925 25.5771 120.946 23.1091 120.946C20.6412 120.946 18.6382 120.925 18.6382 120.896C18.6382 120.867 20.6381 120.849 23.1091 120.849C25.5802 120.849 27.5801 120.87 27.5801 120.896Z" fill="#FAFAFA"/>
<path d="M27.4428 121.816C27.4428 121.842 25.5708 121.863 23.2527 121.863C20.9345 121.863 19.0625 121.842 19.0625 121.816C19.0625 121.789 20.9345 121.766 23.2527 121.766C25.5708 121.766 27.4428 121.789 27.4428 121.816Z" fill="#FAFAFA"/>
<path d="M20.2547 118.462C20.3304 119.247 20.3304 120.035 20.2547 120.82C20.1749 120.035 20.1749 119.247 20.2547 118.462Z" fill="#FAFAFA"/>
<path d="M23.5118 118.462C23.5872 119.272 23.5872 120.086 23.5118 120.896C23.4323 120.086 23.4323 119.272 23.5118 118.462Z" fill="#FAFAFA"/>
<path d="M26.5697 118.441C26.6451 119.268 26.6451 120.098 26.5697 120.925C26.4943 120.098 26.4943 119.268 26.5697 118.441Z" fill="#FAFAFA"/>
<path d="M28.3727 118.462C28.3727 118.488 26.0234 118.509 23.128 118.509C20.2327 118.509 17.8833 118.488 17.8833 118.462C17.8833 118.436 20.2327 118.412 23.128 118.412C26.0234 118.412 28.3727 118.441 28.3727 118.462Z" fill="#FAFAFA"/>
<path d="M135.982 103.269C135.957 103.295 135.738 103.185 135.492 103.022C135.245 102.86 135.074 102.703 135.099 102.674C135.124 102.645 135.345 102.758 135.588 102.923C135.832 103.088 136.016 103.245 135.982 103.269Z" fill="#E0E0E0"/>
<path d="M142.639 94.9187C142.732 94.1397 142.655 93.3531 142.411 92.5973C142.118 91.8559 141.438 91.1747 140.539 91.0253C139.501 90.8446 138.433 91.3948 137.853 92.1415C137.273 92.8882 137.07 93.7894 136.898 94.6698C135.713 100.734 135.276 106.886 135.594 113.025L139.847 113.526C141.703 107.11 142.299 101.511 142.639 94.9187Z" fill="#3C9755"/>
<path d="M139.937 90.9888C139.937 90.9888 139.937 91.0097 139.919 91.0464L139.85 91.2088C139.781 91.3608 139.685 91.5652 139.566 91.8246C139.507 91.9608 139.429 92.1049 139.363 92.2726L139.157 92.8123L138.92 93.4332C138.852 93.6585 138.777 93.8943 138.699 94.1406C138.345 95.3047 138.071 96.4847 137.878 97.675C137.647 99.0191 137.498 100.505 137.379 102.069C137.161 105.197 137.126 108.037 137.033 110.091C136.986 111.118 136.945 111.949 136.899 112.523C136.877 112.8 136.858 113.02 136.845 113.183C136.845 113.251 136.845 113.309 136.827 113.353C136.83 113.372 136.83 113.392 136.827 113.411C136.825 113.392 136.825 113.372 136.827 113.353C136.827 113.306 136.827 113.251 136.827 113.18C136.827 113.018 136.827 112.798 136.852 112.52C136.88 111.946 136.905 111.116 136.936 110.089C137.005 108.034 137.023 105.194 137.248 102.061C137.367 100.489 137.523 99.006 137.763 97.6593C137.963 96.466 138.248 95.284 138.618 94.1197C138.699 93.8708 138.777 93.635 138.849 93.4096L139.098 92.7913C139.176 92.5975 139.251 92.4167 139.317 92.2516C139.382 92.0866 139.469 91.9398 139.532 91.8062L139.844 91.1984C139.878 91.1355 139.903 91.0831 139.928 91.0412C139.953 90.9993 139.937 90.9888 139.937 90.9888Z" fill="#E0E0E0"/>
<path d="M140.35 90.9912C140.57 91.2116 140.745 91.4613 140.868 91.73C141.194 92.4677 141.326 93.2562 141.254 94.0409C141.142 96.0137 140.942 98.7333 140.652 101.733C140.362 104.733 140.059 107.45 139.81 109.412C139.685 110.392 139.576 111.186 139.498 111.734C139.457 111.996 139.426 112.211 139.401 112.365L139.373 112.528C139.372 112.547 139.367 112.565 139.357 112.583C139.357 112.583 139.357 112.564 139.357 112.528C139.357 112.491 139.357 112.428 139.357 112.363C139.376 112.205 139.398 111.996 139.426 111.729C139.492 111.168 139.582 110.377 139.691 109.405C139.916 107.44 140.212 104.725 140.493 101.725C140.774 98.7255 140.999 96.0033 141.139 94.0383C141.217 93.2638 141.104 92.4841 140.805 91.7484C140.678 91.486 140.526 91.2327 140.35 90.9912Z" fill="#E0E0E0"/>
<path d="M143.282 100.235C143.003 100.215 142.73 100.156 142.474 100.059C142.204 99.9988 141.948 99.8985 141.719 99.7629C142.269 99.8385 142.798 99.9984 143.279 100.235H143.282Z" fill="#E0E0E0"/>
<path d="M143.782 96.5955C143.551 96.7491 143.292 96.8695 143.014 96.9518C142.757 97.0727 142.476 97.1543 142.184 97.1928C142.415 97.0392 142.674 96.9188 142.952 96.8365C143.209 96.7156 143.49 96.634 143.782 96.5955Z" fill="#E0E0E0"/>
<path d="M143.529 93.6244C143.326 93.6726 143.112 93.6815 142.905 93.6506C142.69 93.6596 142.476 93.6254 142.281 93.5511C142.484 93.5025 142.697 93.4936 142.905 93.5249C143.119 93.5151 143.333 93.5493 143.529 93.6244Z" fill="#E0E0E0"/>
<path d="M139.139 91.7171C139.105 91.738 138.917 91.5415 138.724 91.2821C138.531 91.0228 138.412 90.8001 138.437 90.7791C138.462 90.7581 138.658 90.9573 138.852 91.214C139.045 91.4708 139.176 91.7013 139.139 91.7171Z" fill="#E0E0E0"/>
<path d="M137.688 93.5169C137.291 93.5938 136.877 93.5866 136.484 93.4959C136.484 93.4593 136.755 93.4357 137.089 93.4409C137.423 93.4462 137.691 93.4802 137.688 93.5169Z" fill="#E0E0E0"/>
<path d="M136.649 97.1116C136.431 97.1006 136.218 97.0506 136.025 96.9649C135.691 96.8496 135.432 96.7317 135.448 96.7029C135.667 96.7105 135.88 96.7607 136.072 96.8496C136.406 96.957 136.665 97.0775 136.649 97.1116Z" fill="#E0E0E0"/>
<path d="M136.537 100.132C136.537 100.166 136.303 100.24 135.997 100.292C135.691 100.345 135.432 100.363 135.423 100.329C135.414 100.295 135.657 100.221 135.966 100.169C136.275 100.117 136.528 100.101 136.537 100.132Z" fill="#E0E0E0"/>
<path d="M136.047 105.079C136.047 105.113 135.797 105.181 135.473 105.231C135.149 105.281 134.88 105.291 134.871 105.255C134.861 105.218 135.12 105.152 135.445 105.105C135.64 105.055 135.847 105.046 136.047 105.079Z" fill="#E0E0E0"/>
<path d="M135.722 107.804C135.741 107.835 135.526 107.964 135.242 108.09C134.958 108.215 134.711 108.294 134.693 108.262C134.674 108.231 134.886 108.103 135.173 107.977C135.46 107.851 135.703 107.775 135.722 107.804Z" fill="#E0E0E0"/>
<path d="M138.374 110.903C138.199 110.767 138.057 110.602 137.959 110.419C137.818 110.256 137.72 110.069 137.672 109.871C137.71 109.853 137.897 110.07 138.09 110.356C138.231 110.519 138.328 110.706 138.374 110.903Z" fill="#E0E0E0"/>
<path d="M139.142 105.755C139.17 105.781 138.961 105.991 138.677 106.226C138.393 106.462 138.134 106.633 138.106 106.609C138.078 106.585 138.284 106.371 138.571 106.135C138.858 105.899 139.101 105.729 139.142 105.755Z" fill="#E0E0E0"/>
<path d="M138.97 103.054C138.942 103.077 138.749 102.946 138.54 102.758C138.331 102.569 138.19 102.399 138.228 102.373C138.265 102.346 138.449 102.483 138.658 102.671C138.867 102.86 139.001 103.03 138.97 103.054Z" fill="#E0E0E0"/>
<path d="M139.498 99.6032C139.529 99.6268 139.357 99.8338 139.111 100.062C138.864 100.29 138.64 100.46 138.609 100.436C138.577 100.413 138.752 100.208 138.999 99.9779C139.245 99.7473 139.467 99.577 139.498 99.6032Z" fill="#E0E0E0"/>
<path d="M139.794 97.0986C139.766 97.1248 139.523 96.965 139.254 96.7423C138.986 96.5196 138.789 96.3205 138.821 96.2943C138.852 96.2681 139.092 96.4305 139.36 96.6506C139.629 96.8707 139.825 97.075 139.794 97.0986Z" fill="#E0E0E0"/>
<path d="M140.378 93.7136C140.332 93.8974 140.239 94.0707 140.106 94.2219C139.919 94.4839 139.738 94.6804 139.704 94.662C139.669 94.6437 139.788 94.4184 139.975 94.1564C140.162 93.8944 140.349 93.6952 140.378 93.7136Z" fill="#E0E0E0"/>
<path d="M141.473 90.5773C141.439 90.7597 141.357 90.9334 141.232 91.0856C141.061 91.3476 140.895 91.5467 140.858 91.531C140.892 91.3485 140.974 91.1748 141.098 91.0227C141.267 90.7607 141.435 90.5616 141.473 90.5773Z" fill="#E0E0E0"/>
<path d="M142.714 92.0026C142.733 92.034 142.562 92.1336 142.334 92.2253C142.106 92.317 141.906 92.3641 141.888 92.3327C141.869 92.3012 142.041 92.2017 142.268 92.11C142.496 92.0183 142.696 91.979 142.714 92.0026Z" fill="#E0E0E0"/>
<path d="M142.746 103.269C142.455 103.273 142.168 103.214 141.913 103.098C141.639 103.025 141.391 102.895 141.192 102.721C141.717 102.896 142.237 103.081 142.752 103.276L142.746 103.269Z" fill="#E0E0E0"/>
<path d="M142.237 105.656C142.237 105.69 141.987 105.76 141.663 105.813C141.469 105.864 141.264 105.875 141.064 105.844C141.064 105.81 141.31 105.739 141.635 105.687C141.83 105.635 142.036 105.624 142.237 105.656Z" fill="#E0E0E0"/>
<path d="M141.613 109.745C141.588 109.774 141.264 109.586 140.964 109.268C140.764 109.091 140.623 108.871 140.559 108.632C140.754 108.804 140.929 108.991 141.083 109.19C141.277 109.363 141.454 109.549 141.613 109.745Z" fill="#E0E0E0"/>
<path d="M134.777 111.629C134.749 111.6 134.924 111.44 135.164 111.268C135.404 111.095 135.619 110.977 135.647 111.006C135.675 111.034 135.501 111.194 135.26 111.367C135.02 111.54 134.805 111.645 134.777 111.629Z" fill="#E0E0E0"/>
<path d="M132.812 102.687C132.534 101.961 132.016 101.115 131.108 101.115C130.838 101.128 130.578 101.201 130.353 101.328C130.129 101.454 129.949 101.628 129.832 101.833C129.586 102.238 129.467 102.689 129.489 103.143C129.599 106.375 130.256 109.577 131.439 112.653H134.758C134.719 109.267 134.063 105.906 132.812 102.687Z" fill="#3C9755"/>
<path d="M126.808 98.1203C126.344 96.5614 124.958 95.7178 123.351 95.6392C121.882 95.8566 121.314 97.0697 121.139 98.3116C120.965 99.5534 121.426 100.793 121.879 101.98L126.247 113.46L130.378 113.08C129.074 107.961 128.322 103.206 126.808 98.1203Z" fill="#3C9755"/>
<path d="M131.108 101.104C131.004 101.231 130.91 101.363 130.827 101.5C130.659 101.894 130.605 102.316 130.671 102.732C130.737 103.256 130.808 103.9 130.915 104.6C131.021 105.299 131.174 106.067 131.361 106.868C131.735 108.469 132.156 109.908 132.425 110.953C132.562 111.477 132.665 111.904 132.737 112.198C132.765 112.334 132.787 112.446 132.805 112.538C132.812 112.578 132.812 112.619 132.805 112.659C132.787 112.621 132.772 112.583 132.762 112.543C132.737 112.452 132.705 112.342 132.665 112.208C132.578 111.896 132.459 111.48 132.315 110.974C132.019 109.926 131.579 108.498 131.205 106.892C131.018 106.09 130.871 105.32 130.768 104.613C130.715 104.262 130.681 103.926 130.646 103.612C130.612 103.297 130.578 103.007 130.559 102.737C130.499 102.309 130.571 101.876 130.768 101.479C130.849 101.336 130.965 101.208 131.108 101.104Z" fill="#E0E0E0"/>
<path d="M123.411 95.5422C123.229 95.7198 123.062 95.9081 122.911 96.1055C122.532 96.6586 122.318 97.2807 122.287 97.9186C122.267 98.867 122.439 99.8115 122.796 100.711C123.161 101.744 123.557 102.878 123.975 104.065C124.799 106.444 125.535 108.595 126.091 110.167C126.35 110.94 126.562 111.571 126.715 112.022C126.78 112.232 126.836 112.399 126.877 112.528C126.897 112.586 126.913 112.646 126.924 112.706C126.891 112.652 126.865 112.594 126.846 112.536L126.659 112.035C126.493 111.587 126.265 110.961 125.988 110.201C125.429 108.629 124.671 106.483 123.829 104.11C123.417 102.92 123.021 101.786 122.662 100.751C122.308 99.8381 122.144 98.8808 122.178 97.9212C122.219 97.271 122.455 96.6402 122.865 96.0872C123.009 95.8813 123.194 95.6972 123.411 95.5422Z" fill="#E0E0E0"/>
<path d="M129.479 112.714C129.442 112.66 129.411 112.604 129.386 112.546C129.333 112.436 129.242 112.284 129.152 112.059C128.952 111.632 128.702 111.011 128.44 110.225C128.178 109.439 127.919 108.488 127.67 107.427C127.42 106.365 127.167 105.2 126.893 103.976C126.618 102.752 126.285 101.6 125.913 100.57C125.595 99.6544 125.192 98.7609 124.709 97.8976C124.385 97.3149 124.013 96.752 123.595 96.213C123.455 96.0165 123.327 95.8776 123.249 95.7754C123.205 95.727 123.166 95.6752 123.133 95.6208C123.185 95.6633 123.232 95.7098 123.274 95.7597C123.358 95.8566 123.495 95.9929 123.645 96.1841C124.083 96.7158 124.472 97.2756 124.806 97.8583C125.306 98.7213 125.724 99.6168 126.054 100.536C126.454 101.656 126.786 102.793 127.049 103.942C127.32 105.166 127.579 106.331 127.813 107.395C128.047 108.459 128.303 109.402 128.55 110.191C128.796 110.979 129.033 111.608 129.211 112.038C129.295 112.255 129.376 112.42 129.42 112.533C129.445 112.592 129.465 112.652 129.479 112.714Z" fill="#E0E0E0"/>
<path d="M121.942 101.411C121.942 101.445 121.726 101.521 121.439 101.579C121.152 101.636 120.912 101.657 120.903 101.623C120.893 101.589 121.115 101.513 121.402 101.455C121.689 101.398 121.942 101.377 121.942 101.411Z" fill="#E0E0E0"/>
<path d="M121.514 99.0531C121.288 99.1084 121.053 99.1296 120.818 99.116C120.586 99.1439 120.349 99.1386 120.119 99.1003C120.335 99.0142 120.573 98.9763 120.812 98.9902C121.048 98.9621 121.29 98.9837 121.514 99.0531Z" fill="#E0E0E0"/>
<path d="M121.982 96.8811C121.954 96.9073 121.729 96.7868 121.48 96.6191C121.23 96.4514 121.049 96.2759 121.077 96.247C121.105 96.2182 121.327 96.344 121.576 96.5221C121.826 96.7003 122.007 96.8549 121.982 96.8811Z" fill="#E0E0E0"/>
<path d="M123.239 94.8795C123.283 94.8795 123.27 95.055 123.264 95.2594C123.258 95.4637 123.264 95.634 123.214 95.6393C123.164 95.6445 123.105 95.4742 123.111 95.2568C123.118 95.0393 123.189 94.8611 123.239 94.8795Z" fill="#E0E0E0"/>
<path d="M125.816 95.8226C125.851 95.8436 125.748 96.0139 125.588 96.2052C125.429 96.3964 125.276 96.5327 125.239 96.5117C125.202 96.4907 125.308 96.3231 125.467 96.1318C125.626 95.9405 125.782 95.8017 125.816 95.8226Z" fill="#E0E0E0"/>
<path d="M127.486 98.2671C127.501 98.3012 127.289 98.406 127.008 98.5003C126.728 98.5946 126.491 98.647 126.475 98.6156C126.459 98.5841 126.671 98.4793 126.952 98.3824C127.233 98.2855 127.47 98.2278 127.486 98.2671Z" fill="#E0E0E0"/>
<path d="M128.493 100.769C128.307 100.9 128.079 100.983 127.838 101.007C127.607 101.073 127.359 101.08 127.124 101.028C127.342 100.956 127.57 100.907 127.804 100.884C128.026 100.82 128.258 100.782 128.493 100.769Z" fill="#E0E0E0"/>
<path d="M123.844 100.057C123.807 100.057 123.844 99.8732 123.91 99.6688C123.976 99.4644 124.082 99.3098 124.119 99.3203C124.156 99.3308 124.119 99.5037 124.057 99.7081C123.994 99.9124 123.885 100.067 123.844 100.057Z" fill="#E0E0E0"/>
<path d="M124.497 103.206C124.456 103.19 124.54 102.944 124.681 102.682C124.821 102.42 124.971 102.197 125.008 102.21C124.993 102.394 124.929 102.573 124.821 102.734C124.681 103.007 124.534 103.219 124.497 103.206Z" fill="#E0E0E0"/>
<path d="M122.877 104.068C122.673 104.064 122.472 104.026 122.285 103.958C121.973 103.874 121.711 103.798 121.72 103.761C121.927 103.739 122.137 103.764 122.328 103.835C122.665 103.921 122.909 104.031 122.877 104.068Z" fill="#E0E0E0"/>
<path d="M123.813 106.633C123.838 106.661 123.66 106.803 123.417 106.95C123.174 107.096 122.958 107.188 122.933 107.159C122.909 107.13 123.086 106.992 123.33 106.845C123.573 106.698 123.791 106.604 123.813 106.633Z" fill="#E0E0E0"/>
<path d="M124.556 109.192C124.556 109.226 124.35 109.302 124.069 109.36C123.789 109.418 123.555 109.433 123.545 109.399C123.536 109.365 123.754 109.292 124.032 109.234C124.31 109.177 124.547 109.158 124.556 109.192Z" fill="#E0E0E0"/>
<path d="M128.581 102.907C128.603 102.936 128.415 103.062 128.144 103.148C127.872 103.234 127.632 103.242 127.623 103.208C127.613 103.174 127.832 103.111 128.091 103.028C128.35 102.944 128.559 102.876 128.581 102.907Z" fill="#E0E0E0"/>
<path d="M129.158 106.889C129.139 106.921 128.914 106.863 128.659 106.761C128.403 106.659 128.206 106.552 128.225 106.52C128.244 106.489 128.465 106.546 128.724 106.646C128.983 106.745 129.173 106.855 129.158 106.889Z" fill="#E0E0E0"/>
<path d="M130.172 109.737C129.942 109.73 129.717 109.68 129.514 109.591C129.167 109.475 128.89 109.357 128.911 109.329C129.141 109.336 129.366 109.386 129.57 109.475C129.79 109.526 129.995 109.615 130.172 109.737Z" fill="#E0E0E0"/>
<path d="M124.721 111.97C124.7 111.938 124.971 111.786 125.283 111.577C125.595 111.367 125.838 111.186 125.87 111.212C125.901 111.239 125.704 111.474 125.377 111.679C125.195 111.825 124.968 111.926 124.721 111.97Z" fill="#E0E0E0"/>
<path d="M127.404 110.521C127.361 110.521 127.301 110.335 127.198 110.112C127.095 109.889 126.986 109.714 127.021 109.693C127.055 109.672 127.23 109.824 127.333 110.065C127.436 110.306 127.445 110.518 127.404 110.521Z" fill="#E0E0E0"/>
<path d="M126.693 107.094C126.668 107.123 126.493 107.055 126.306 106.939C126.119 106.824 125.994 106.709 125.994 106.677C125.994 106.646 126.191 106.719 126.381 106.834C126.571 106.95 126.715 107.065 126.693 107.094Z" fill="#E0E0E0"/>
<path d="M132.945 101.723C132.97 101.752 132.802 101.893 132.568 102.037C132.334 102.181 132.128 102.276 132.103 102.247C132.078 102.218 132.247 102.079 132.477 101.935C132.708 101.791 132.92 101.697 132.945 101.723Z" fill="#E0E0E0"/>
<path d="M133.888 103.887C133.888 103.921 133.629 103.968 133.301 103.939C132.974 103.91 132.727 103.816 132.74 103.785C132.752 103.753 133.005 103.785 133.317 103.811C133.511 103.809 133.704 103.835 133.888 103.887Z" fill="#E0E0E0"/>
<path d="M129.838 104.374C129.838 104.406 129.601 104.479 129.286 104.497C128.971 104.516 128.715 104.471 128.718 104.434C128.721 104.398 128.971 104.387 129.276 104.369C129.582 104.351 129.829 104.338 129.838 104.374Z" fill="#E0E0E0"/>
<path d="M130.184 102.328C130.184 102.362 129.935 102.367 129.663 102.263C129.392 102.158 129.236 102.001 129.264 101.972C129.292 101.943 129.479 102.05 129.729 102.145C129.978 102.239 130.191 102.291 130.184 102.328Z" fill="#E0E0E0"/>
<path d="M134.237 106.211C134.215 106.24 133.96 106.14 133.669 105.988C133.379 105.836 133.173 105.684 133.173 105.655C133.173 105.627 133.448 105.726 133.738 105.878C134.028 106.03 134.259 106.182 134.237 106.211Z" fill="#E0E0E0"/>
<path d="M144.121 112.284H122.506V115.501H144.121V112.284Z" fill="#E0E0E0"/>
<path d="M124.122 114.862L126.749 124.477H139.632L142.508 114.862H124.122Z" fill="#E0E0E0"/>
<path d="M144.112 115.504C144.112 115.541 139.236 115.567 133.22 115.567C127.205 115.567 122.332 115.541 122.332 115.504C122.332 115.467 127.205 115.441 133.22 115.441C139.236 115.441 144.112 115.47 144.112 115.504Z" fill="#EBEBEB"/>
<path d="M132.091 104.442C132.053 104.461 131.907 104.316 131.76 104.12C131.613 103.923 131.523 103.748 131.557 103.73C131.591 103.711 131.741 103.855 131.888 104.052C132.034 104.248 132.125 104.424 132.091 104.442Z" fill="#E0E0E0"/>
<path d="M132.097 107.031C132.056 107.031 132.097 106.803 132.209 106.544C132.322 106.284 132.428 106.085 132.468 106.096C132.509 106.106 132.468 106.324 132.356 106.583C132.244 106.842 132.137 107.044 132.097 107.031Z" fill="#E0E0E0"/>
<path d="M133.151 109.75C132.992 109.611 132.869 109.445 132.793 109.263C132.671 109.099 132.595 108.915 132.568 108.723C132.605 108.708 132.768 108.925 132.93 109.208C133.049 109.373 133.125 109.558 133.151 109.75Z" fill="#E0E0E0"/>
<path d="M130.868 111.936C130.837 111.912 130.968 111.744 131.158 111.558C131.348 111.372 131.529 111.244 131.561 111.267C131.592 111.291 131.464 111.459 131.273 111.642C131.083 111.825 130.902 111.959 130.868 111.936Z" fill="#E0E0E0"/>
<path d="M130.39 107.961C130.39 107.995 130.175 107.992 129.925 107.961C129.676 107.93 129.479 107.867 129.489 107.833C129.498 107.799 129.704 107.799 129.95 107.833C130.197 107.867 130.397 107.932 130.39 107.961Z" fill="#E0E0E0"/>
<path d="M121.813 24.1551C121.879 24.3288 121.883 24.515 121.823 24.6903C121.763 24.8655 121.642 25.0219 121.477 25.1397C121.311 25.2575 121.107 25.3314 120.892 25.352C120.676 25.3727 120.458 25.3392 120.265 25.2557C120.072 25.1723 119.912 25.0427 119.807 24.8832C119.702 24.7238 119.655 24.5417 119.673 24.36C119.69 24.1783 119.772 24.0051 119.907 23.8623C120.042 23.7195 120.224 23.6135 120.431 23.5577C120.709 23.4835 121.01 23.5047 121.269 23.6167C121.528 23.7286 121.724 23.9222 121.813 24.1551Z" fill="white"/>
<path d="M26.3446 31.1582C26.2609 31.2914 26.2258 31.4424 26.2439 31.5923C26.2619 31.7421 26.3323 31.8842 26.446 32.0006C26.5598 32.117 26.712 32.2027 26.8835 32.2468C27.055 32.2909 27.2382 32.2915 27.4101 32.2486C27.582 32.2056 27.735 32.121 27.8499 32.0054C27.9648 31.8897 28.0365 31.7481 28.0559 31.5984C28.0754 31.4487 28.0419 31.2975 27.9594 31.1637C27.877 31.0299 27.7494 30.9196 27.5926 30.8464C27.4865 30.797 27.3698 30.7658 27.2493 30.7548C27.1287 30.7437 27.0068 30.753 26.8905 30.782C26.7743 30.811 26.6661 30.8593 26.5724 30.9239C26.4786 30.9885 26.4012 31.0682 26.3446 31.1582Z" fill="white"/>
<path d="M55.7729 124.88L57.6262 124.856L61.7197 94.6684L59.8945 94.4902L55.7729 124.88Z" fill="#455A64"/>
<path d="M66.6367 124.88L68.49 124.856L72.5834 94.6684L70.7582 94.4902L66.6367 124.88Z" fill="#455A64"/>
<path d="M99.3813 124.935L97.528 124.911L93.4346 95.0012L95.2598 94.8257L99.3813 124.935Z" fill="#455A64"/>
<path d="M87.4345 124.935L85.5812 124.911L81.4878 95.0012L83.313 94.8257L87.4345 124.935Z" fill="#455A64"/>
<path d="M58.6587 99.6675H96.0488V96.4134H58.6587V99.6675Z" fill="#455A64"/>
<path d="M82.6457 60.1475L58.9587 60.3937L58.6592 96.4161L85.8593 96.7279L82.6457 60.1475Z" fill="#455A64"/>
<path d="M93.2536 74.243C93.132 73.5487 90.6515 71.2457 90.6515 71.2457C90.6515 71.2457 89.4035 67.0537 89.0416 65.8354C88.9164 65.4804 88.7349 65.1411 88.5019 64.8267C87.6236 63.5992 86.3752 62.5879 84.8827 61.895L81.4507 60.2758L80.6301 58.7431L71.813 57.4331L70.0377 59.1492C70.0377 59.1492 63.3796 61.2688 62.506 61.9133C61.4359 62.6993 64.378 75.8884 64.378 75.8884C64.378 75.8884 62.1067 83.8899 61.6293 85.5457C61.1519 87.2015 61.8383 89.5255 61.8383 89.5255L66.3499 85.9046C67.5979 84.5946 69.838 82.9833 71.8192 83.0069L88.7452 83.0698L88.0713 79.0874L101.756 81.3223C101.756 81.3223 104.111 77.4682 104.298 77.3923C104.486 77.3163 93.2536 74.243 93.2536 74.243Z" fill="#4F5E51"/>
<path d="M71.9409 59.4739C71.8223 59.3718 72.9954 62.7568 74.3433 65.8615C75.0693 67.5411 75.4389 69.3147 75.4353 71.1015V82.3465L83.5473 81.8854L82.3367 74.4603C82.3367 74.4603 81.3477 69.6841 81.0887 67.8658C80.8329 66.2021 79.9593 61.1376 79.9593 61.1376C79.9593 61.1376 75.3386 62.369 71.9409 59.4739Z" fill="white"/>
<path d="M90.0461 77.0279C90.0322 76.9709 90.0322 76.912 90.0461 76.855C90.063 76.6996 90.0986 76.546 90.1522 76.3965C90.3251 75.8992 90.6444 75.4465 91.0806 75.0801C91.5169 74.7138 92.056 74.4457 92.6482 74.3005C92.8269 74.258 93.0095 74.2282 93.1942 74.2114C93.2621 74.1997 93.3322 74.1997 93.4001 74.2114C93.4001 74.2324 93.1162 74.2586 92.6825 74.3843C92.1191 74.5497 91.6064 74.8181 91.1818 75.1703C90.7608 75.5269 90.4409 75.9586 90.2458 76.4332C90.1023 76.8 90.0711 77.041 90.0461 77.0279Z" fill="#263238"/>
<path d="M90.48 74.3398C90.8649 74.1706 91.2865 74.068 91.7195 74.0383C92.1526 74.0086 92.5884 74.0523 93.0009 74.1669C93.0009 74.2035 92.4269 74.1118 91.7311 74.1669C91.0353 74.2219 90.48 74.3738 90.48 74.3398Z" fill="#263238"/>
<g opacity="0.3">
<path opacity="0.3" d="M63.5479 80.4758L62.8428 81.1465C63.5796 81.91 64.5786 82.4643 65.7038 82.7343C66.8313 82.9359 67.9835 83.0238 69.1358 82.9963C69.6047 83.0143 70.0743 82.9764 70.5305 82.8836C70.9922 82.7736 71.4197 82.5535 71.897 82.5299C72.2138 82.5326 72.5287 82.5713 72.833 82.6452C73.1387 82.7161 73.4607 82.7206 73.769 82.6583C73.924 82.6225 74.0613 82.5459 74.1607 82.4399C74.26 82.3338 74.3163 82.2037 74.3213 82.0688C70.8102 81.2088 67.1975 80.6747 63.5479 80.4758Z" fill="black"/>
</g>
<path d="M86.7139 81.3352L84.7233 79.5588L80.6268 78.689C80.6268 78.689 76.8828 79.6348 76.7829 79.6295C76.6831 79.6243 73.5163 78.9012 73.5163 78.9012L72.4087 82.3229L78.1277 82.6504L84.6609 82.4303C84.6609 82.4303 85.001 82.1683 84.8013 81.9823C84.6016 81.7963 85.8933 82.2915 86.0493 82.2967C86.2053 82.3019 86.4955 82.4015 86.6983 82.1945C86.8325 82.0557 87.0196 81.6076 86.7139 81.3352Z" fill="#FFBE9D"/>
<path d="M84.8012 81.9825C84.5783 81.9495 84.3598 81.8977 84.1492 81.828C83.7529 81.7205 83.2132 81.5791 82.5892 81.4481C81.9652 81.3171 81.4098 81.2175 81.0011 81.1494C80.7776 81.1231 80.5573 81.0801 80.3428 81.021C80.5696 81.0114 80.7971 81.0255 81.0198 81.0629C81.5606 81.1259 82.097 81.2134 82.6266 81.3249C83.1555 81.4392 83.6763 81.5783 84.1866 81.7415C84.4023 81.8007 84.6087 81.8816 84.8012 81.9825Z" fill="#EB996E"/>
<path d="M86.7139 81.3352C86.4058 81.2681 86.1026 81.1858 85.806 81.089C85.2475 80.9318 84.4706 80.7379 83.6032 80.5361C82.8828 80.321 82.1386 80.1666 81.3818 80.075C81.0693 80.062 80.7561 80.0726 80.4458 80.1065C80.521 80.0704 80.6035 80.0464 80.6892 80.0357C80.9208 79.9944 81.1577 79.9777 81.3943 79.9859C82.1638 80.0539 82.9209 80.1982 83.65 80.4156C84.5143 80.62 85.2943 80.827 85.834 81.0077C86.1117 81.0968 86.3301 81.1754 86.4799 81.2331C86.564 81.2562 86.643 81.2907 86.7139 81.3352Z" fill="#EB996E"/>
<path d="M62.5088 61.9028C62.5088 61.9028 61.058 62.7046 60.3248 65.1883C59.5916 67.6721 56.4965 77.8089 57.133 79.3363C57.7695 80.8638 70.1996 82.331 70.1996 82.331L71.6722 77.1198L65.3667 75.6709C65.3667 75.6709 65.4447 70.8423 65.5258 68.8432C65.6069 66.8442 62.5088 61.9028 62.5088 61.9028Z" fill="#4F5E51"/>
<path d="M71.5884 77.8979L73.6196 78.3172L72.3996 82.2524L70.4028 81.9825L71.5884 77.8979Z" fill="white"/>
<path d="M57.0956 78.7887C57.0956 78.7887 57.0956 78.8778 57.1268 79.035C57.1944 79.2655 57.346 79.4725 57.5605 79.6271C58.1003 80.0489 59.1205 80.4 60.4371 80.5991C61.0331 80.7642 61.7132 80.8952 62.4402 81.0341C63.1671 81.1729 63.9503 81.3118 64.7771 81.4533C66.4307 81.7362 68.2559 82.0349 70.1934 82.3388L70.1091 82.3834C70.2495 81.9013 70.3993 81.3904 70.5491 80.8716C70.8954 79.6743 71.2355 78.5136 71.5537 77.4185L71.6036 77.4892L65.9876 76.1451C65.2168 75.8698 64.381 75.747 63.5447 75.7862C62.9084 75.814 62.283 75.9364 61.6976 76.1478C61.3279 76.2846 60.9739 76.4494 60.6399 76.6403L60.3841 76.7975C60.3548 76.8173 60.3235 76.8349 60.2905 76.8499L60.3716 76.787C60.4278 76.7504 60.5089 76.6901 60.6181 76.6194C60.9467 76.414 61.3002 76.2384 61.6727 76.0954C62.2636 75.8716 62.8978 75.7394 63.5447 75.705C64.3975 75.6589 65.2515 75.7781 66.0407 76.0534L71.6567 77.3634L71.7253 77.3792L71.7066 77.4368C71.3946 78.5346 71.0545 79.6926 70.7082 80.89C70.5553 81.414 70.3962 81.9196 70.2683 82.4017L70.2495 82.4593H70.184C68.2465 82.1528 66.4182 81.8489 64.7677 81.5607C63.9409 81.414 63.1578 81.2699 62.4308 81.131C61.7039 80.9921 61.0237 80.8533 60.4184 80.6777C59.0955 80.4681 58.0628 80.1013 57.5199 79.6586C57.3034 79.4948 57.1548 79.2772 57.0956 79.0376C57.0788 78.9553 57.0788 78.8711 57.0956 78.7887Z" fill="#263238"/>
<path d="M65.7069 76.0167C65.6882 76.0324 65.4792 75.8699 65.1016 75.6577C64.6076 75.3819 64.067 75.17 63.498 75.0289C62.9271 74.8917 62.3351 74.8264 61.7414 74.835C61.2859 74.835 61.0051 74.8874 61.002 74.8665C61.2378 74.7927 61.4867 74.7529 61.7383 74.7486C62.9648 74.6749 64.1822 74.9723 65.1703 75.587C65.3758 75.7047 65.5571 75.8499 65.7069 76.0167Z" fill="#263238"/>
<path d="M66.5339 67.5227C66.5472 67.629 66.5472 67.7361 66.5339 67.8423C66.5339 68.0467 66.5089 68.3428 66.4746 68.7069C66.4059 69.4353 66.2749 70.4388 66.0503 71.5392C65.8682 72.4802 65.6065 73.4092 65.2671 74.319C65.1985 74.4945 65.1267 74.6491 65.0643 74.7853L64.8834 75.1259C64.831 75.2233 64.7662 75.3155 64.6899 75.401C64.7273 75.2998 64.7753 75.2016 64.8335 75.1076L64.9895 74.7618C65.0425 74.6229 65.1049 74.4683 65.1673 74.2928C65.4779 73.3835 65.7248 72.4596 65.9067 71.5261C66.1345 70.4309 66.278 69.4301 66.3747 68.7069C66.4184 68.3611 66.4527 68.0729 66.4808 67.8476C66.4861 67.7381 66.5038 67.6293 66.5339 67.5227Z" fill="#263238"/>
<path d="M73.7348 64.853C73.7348 64.853 73.7036 64.7927 73.635 64.6905C73.5331 64.542 73.3868 64.4183 73.2107 64.3316C73.0594 64.2523 72.8879 64.2043 72.7103 64.1913C72.5327 64.1784 72.3539 64.201 72.1887 64.2572C72.0234 64.3134 71.8763 64.4017 71.7595 64.5148C71.6427 64.6279 71.5594 64.7627 71.5165 64.908L71.4791 65.0626L71.3917 64.9185C71.0622 64.3708 70.7736 63.8064 70.5275 63.2286C70.1011 62.2749 69.8895 61.263 69.9035 60.2444C69.9087 60.0691 69.9253 59.8942 69.9534 59.7204C69.9877 59.5658 70.0127 59.4348 70.0439 59.33C70.0716 59.2183 70.1135 59.1094 70.1687 59.0051C70.0693 59.4131 70.015 59.828 70.0064 60.2444C70.0279 61.2529 70.2559 62.2509 70.6804 63.1945C70.9248 63.7679 71.2071 64.3295 71.5259 64.8765H71.4011C71.4497 64.7168 71.5431 64.5691 71.6735 64.4458C71.8039 64.3225 71.9675 64.2271 72.1506 64.1677C72.3338 64.1082 72.5312 64.0863 72.7264 64.1039C72.9217 64.1215 73.1091 64.178 73.2731 64.2687C73.4546 64.3654 73.5996 64.5036 73.6912 64.6669C73.7143 64.708 73.7321 64.751 73.7442 64.7953C73.7348 64.8372 73.738 64.853 73.7348 64.853Z" fill="#263238"/>
<path d="M80.6207 65.3691C80.5902 65.2764 80.5693 65.1818 80.5583 65.0861C80.4955 64.8277 80.4745 64.5633 80.4959 64.3001C80.5609 63.8917 80.8045 63.5182 81.1791 63.2521C81.4105 63.0925 81.7003 63.0046 81.9997 63.0032C82.1633 63.0007 82.3256 63.0286 82.475 63.0847C82.6244 63.1409 82.7572 63.224 82.8639 63.3281L82.7391 63.3884C82.6549 63.205 82.5644 63.0163 82.4708 62.8224C81.9435 61.7037 81.4755 60.6898 81.1417 59.9404L80.7548 59.0654C80.7023 58.9605 80.6616 58.8517 80.6331 58.7405C80.7028 58.8387 80.7613 58.9422 80.8079 59.0496C80.9202 59.275 81.0668 59.5736 81.2384 59.909C81.5972 60.6374 82.0808 61.6461 82.6081 62.7648C82.7017 62.9587 82.7891 63.1499 82.8764 63.3333L83.048 63.6975L82.7516 63.391C82.6577 63.3013 82.542 63.2297 82.4123 63.1809C82.2826 63.132 82.1419 63.1072 81.9997 63.108C81.7303 63.1065 81.4683 63.1823 81.2571 63.3229C80.9036 63.5714 80.6678 63.9181 80.5926 64.3001C80.5622 64.5618 80.5675 64.8255 80.6082 65.0861C80.6269 65.1796 80.6311 65.2747 80.6207 65.3691Z" fill="#263238"/>
<path d="M85.8624 65.9585C85.9029 65.9585 86.5394 69.5584 87.2882 74.0124C88.037 78.4664 88.608 82.0794 88.5674 82.0846C88.5269 82.0898 87.8904 78.4847 87.1416 74.0307C86.3928 69.5767 85.8218 65.9611 85.8624 65.9585Z" fill="#263238"/>
<g opacity="0.3">
<path opacity="0.3" d="M70.6147 63.1133C70.6489 64.0358 70.8881 64.9448 71.3199 65.7935C71.6319 65.4739 71.9688 65.1359 72.4368 65.0416C73.0203 64.9237 73.6099 65.2276 74.0311 65.5944C73.9569 65.2256 73.783 64.8761 73.5226 64.5726C73.3931 64.4242 73.2248 64.3026 73.0306 64.2172C72.8365 64.1318 72.6216 64.0849 72.4025 64.0801C72.1834 64.0863 71.9729 64.1531 71.8036 64.2701C71.6344 64.3872 71.5159 64.5478 71.4665 64.7272L70.6584 63.129" fill="black"/>
</g>
<path d="M65.8317 65.7201C65.8036 65.7201 65.8129 65.4581 65.7287 65.0834C65.6129 64.5802 65.3796 64.1011 65.0423 63.6739C64.8531 63.4416 64.6367 63.2256 64.3965 63.0294C64.1959 62.8716 63.9787 62.7295 63.7475 62.6049C63.3513 62.3953 63.0705 62.3141 63.0798 62.2931C63.0892 62.2722 63.1547 62.2931 63.2826 62.3351C63.3609 62.3541 63.4371 62.3786 63.5104 62.4084C63.6104 62.4437 63.7074 62.4848 63.8005 62.5316C64.0469 62.6478 64.2771 62.7866 64.4869 62.9455C64.7423 63.1428 64.9695 63.3644 65.164 63.6058C65.5145 64.0457 65.7427 64.5463 65.8317 65.0703C65.8575 65.2283 65.8669 65.3878 65.8597 65.5472C65.862 65.6057 65.8525 65.6642 65.8317 65.7201Z" fill="#263238"/>
<path d="M80.4958 47.5268C80.1585 46.281 79.2749 45.1875 78.0208 44.4641C76.7668 43.7407 75.2343 43.4404 73.7285 43.623L73.4165 43.6623C70.0968 44.2308 68.8207 46.9137 69.5883 49.6883L71.9407 59.474L72.3931 60.4906C73.3814 61.2955 74.6633 61.798 76.0327 61.9172C77.4022 62.0365 78.7796 61.7656 79.9436 61.1482L80.0153 60.5744L79.3133 57.4304C79.3133 57.4304 82.4583 56.6208 82.0339 53.9144C81.828 52.5939 81.1479 49.9293 80.4958 47.5268Z" fill="#FFBE9D"/>
<path d="M79.3383 57.4068C77.8444 57.5892 76.3196 57.4073 74.9453 56.8828C74.9453 56.8828 76.2713 58.7168 79.4381 58.0749L79.3383 57.4068Z" fill="#EB996E"/>
<path d="M70.2466 51.6401C70.1904 51.6401 67.944 51.3597 68.3309 53.1964C68.7178 55.033 70.8269 54.3308 70.8269 54.2758C70.8269 54.2208 70.2466 51.6401 70.2466 51.6401Z" fill="#FFBE9D"/>
<path d="M70.1999 53.655C70.1999 53.655 70.1656 53.6838 70.1063 53.7178C70.0227 53.7641 69.9208 53.781 69.8224 53.765C69.6656 53.7109 69.5289 53.6227 69.4263 53.5094C69.3237 53.3961 69.2591 53.2618 69.239 53.1205C69.195 52.9646 69.195 52.8022 69.239 52.6463C69.247 52.5858 69.2725 52.528 69.3133 52.4777C69.3541 52.4275 69.4089 52.3864 69.473 52.3581C69.5144 52.3416 69.5615 52.3378 69.6059 52.3474C69.6504 52.3569 69.6894 52.3793 69.7163 52.4105C69.7569 52.4576 69.7507 52.4969 69.7631 52.4996C69.7756 52.5022 69.8037 52.4602 69.7631 52.3869C69.7416 52.3434 69.7031 52.3073 69.6539 52.2847C69.5849 52.2568 69.5061 52.2512 69.4324 52.269C69.3459 52.2979 69.2697 52.3449 69.2107 52.4053C69.1518 52.4658 69.1121 52.5379 69.0955 52.6148C69.0366 52.7852 69.028 52.9651 69.0705 53.1388C69.161 53.5056 69.4605 53.82 69.7943 53.8489C69.8558 53.8542 69.9179 53.848 69.9761 53.8308C70.0344 53.8136 70.0874 53.7858 70.1313 53.7493C70.1999 53.71 70.2155 53.6576 70.1999 53.655Z" fill="#EB996E"/>
<path d="M104.947 93.3375C104.082 92.7179 102.962 92.4075 101.827 92.4729L99.918 97.5688C101.319 97.6212 102.726 98.2265 104.064 97.9147C104.603 97.7753 105.083 97.5092 105.447 97.148C105.812 96.7868 106.045 96.3455 106.121 95.8763C106.183 95.4051 106.108 94.9283 105.904 94.4863C105.7 94.0444 105.372 93.6503 104.947 93.3375Z" fill="#2C557D"/>
<path d="M101.862 92.3551C101.862 92.3131 102.067 92.2817 102.439 92.2843C102.972 92.292 103.499 92.3753 103.999 92.5306C104.763 92.781 105.424 93.2124 105.902 93.7725C106.191 94.1047 106.403 94.4798 106.526 94.8781C106.665 95.3144 106.681 95.7719 106.573 96.2143C106.469 96.6624 106.23 97.0809 105.88 97.43C105.547 97.7518 105.123 97.9986 104.648 98.1479C103.878 98.3783 103.047 98.4228 102.248 98.2763C101.734 98.1925 101.232 98.0616 100.751 97.8859C100.414 97.7654 100.239 97.6763 100.252 97.6239C100.264 97.5715 100.473 97.5951 100.832 97.6448C101.191 97.6946 101.699 97.7863 102.32 97.8335C103.023 97.9041 103.736 97.8266 104.395 97.6082C104.758 97.4826 105.079 97.2848 105.331 97.0318C105.595 96.754 105.774 96.4268 105.855 96.0781C105.932 95.7341 105.926 95.3807 105.838 95.0387C105.749 94.6968 105.58 94.3731 105.34 94.0869C104.949 93.5918 104.411 93.1902 103.78 92.921C103.335 92.7445 102.868 92.6075 102.389 92.5123C102.055 92.4468 101.855 92.397 101.862 92.3551Z" fill="#F5F5F5"/>
<path d="M84.1679 111.465L80.0151 121.235L94.467 125.637C94.8819 124.453 88.4111 119.847 88.4111 119.847L91.3782 113.679L84.1679 111.465Z" fill="#2C557D"/>
<g opacity="0.6">
<path opacity="0.6" d="M84.171 117.96C84.0162 117.953 83.8637 117.994 83.7432 118.076C83.6226 118.158 83.5427 118.274 83.5189 118.403C83.5054 118.532 83.5512 118.66 83.647 118.762C83.7428 118.863 83.8812 118.93 84.0337 118.948C84.1971 118.955 84.3579 118.911 84.4848 118.825C84.6116 118.738 84.6956 118.615 84.7201 118.479C84.7201 118.217 84.4081 117.924 84.0961 117.955" fill="white"/>
</g>
<path d="M80.0151 121.235L80.4363 120.25L94.1643 124.848C94.1643 124.848 94.7072 125.278 94.4763 125.634L80.0151 121.235Z" fill="black"/>
<path d="M88.6733 119.857C88.6452 119.915 88.2802 119.836 87.8527 119.92C87.4253 120.004 87.1289 120.198 87.0758 120.153C87.0228 120.109 87.2724 119.802 87.7934 119.705C88.3145 119.608 88.7107 119.807 88.6733 119.857Z" fill="#263238"/>
<path d="M89.9618 120.845C89.9618 120.908 89.603 120.916 89.2567 121.094C88.9103 121.272 88.7231 121.516 88.6545 121.492C88.5859 121.468 88.6857 121.117 89.1225 120.905C89.5593 120.693 89.9836 120.782 89.9618 120.845Z" fill="#263238"/>
<path d="M90.1678 122.632C90.0992 122.632 90.1272 122.299 90.4486 122.029C90.77 121.759 91.1568 121.731 91.1631 121.788C91.1693 121.846 90.8948 121.958 90.6327 122.184C90.3706 122.409 90.2364 122.648 90.1678 122.632Z" fill="#263238"/>
<path d="M89.1634 118.387C89.1103 118.435 88.8233 118.254 88.4146 118.154C88.0059 118.055 87.6471 118.068 87.6346 118.005C87.6221 117.942 88.009 117.821 88.4894 117.945C88.9699 118.068 89.232 118.353 89.1634 118.387Z" fill="#263238"/>
<path d="M89.4408 116.852C89.1812 116.833 88.9324 116.756 88.72 116.629C88.4753 116.511 88.249 116.367 88.0461 116.202C87.9252 116.105 87.8126 116.001 87.7092 115.891C87.6446 115.828 87.592 115.757 87.5532 115.681C87.5257 115.625 87.5208 115.563 87.5394 115.504C87.558 115.445 87.599 115.393 87.6561 115.356C87.7095 115.326 87.7705 115.306 87.8343 115.299C87.8982 115.292 87.9632 115.297 88.0243 115.314C88.1168 115.342 88.2041 115.381 88.2832 115.429C88.4237 115.506 88.5553 115.594 88.6764 115.691C88.8817 115.857 89.0535 116.05 89.1849 116.263C89.4096 116.624 89.4283 116.881 89.3971 116.883C89.3659 116.886 89.2754 116.658 89.0258 116.341C88.8816 116.156 88.7096 115.987 88.5141 115.838C88.398 115.752 88.2739 115.674 88.1428 115.605C88.0056 115.524 87.8745 115.482 87.8121 115.529C87.7497 115.576 87.7809 115.553 87.7965 115.602C87.8265 115.657 87.8653 115.708 87.912 115.754C88.0095 115.859 88.1137 115.96 88.224 116.056C88.4081 116.217 88.6097 116.363 88.8261 116.493C89.1912 116.713 89.4564 116.813 89.4408 116.852Z" fill="#263238"/>
<path d="M89.3129 116.902C89.2516 116.686 89.2734 116.459 89.3753 116.255C89.5112 115.889 89.7637 115.562 90.1053 115.309C90.1778 115.239 90.2708 115.187 90.3749 115.158C90.479 115.129 90.5905 115.123 90.6981 115.141C90.7623 115.162 90.8181 115.197 90.8589 115.244C90.8998 115.29 90.9241 115.345 90.929 115.403C90.9352 115.486 90.9278 115.568 90.9072 115.649C90.8726 115.792 90.8126 115.93 90.7293 116.058C90.5899 116.27 90.3907 116.45 90.149 116.582C89.7309 116.81 89.4065 116.792 89.4096 116.768C89.6248 116.675 89.8332 116.571 90.0336 116.456C90.2334 116.32 90.3962 116.149 90.5109 115.956C90.5768 115.843 90.623 115.723 90.6482 115.6C90.6825 115.463 90.6701 115.338 90.6045 115.338C90.539 115.338 90.3705 115.374 90.2676 115.461C90.1536 115.539 90.0491 115.627 89.9556 115.723C89.7889 115.894 89.6532 116.084 89.5531 116.289C89.3753 116.658 89.3534 116.904 89.3129 116.902Z" fill="#263238"/>
<path d="M70.1686 85.3675C67.9846 85.4094 65.8973 85.6688 64.3873 87.005C62.3842 88.7761 59.9101 91.2966 59.7665 93.0467C59.5575 95.6667 61.4357 96.4396 62.8085 97.0763C63.4176 97.3553 64.1059 97.4894 64.7991 97.464L90.1335 97.3016L90.9291 93.6991L74.5429 90.3062L75.223 85.1265L70.1686 85.3675Z" fill="#263238"/>
<path d="M75.2231 85.1264L83.1947 84.8198C83.1947 84.8198 96.9633 85.4617 99.8992 87.7228C102.835 89.9838 102.47 92.5515 101.49 95.0195C100.511 97.4875 91.8839 113.257 91.8839 113.257C91.8839 113.257 92.5828 114.261 92.1959 115.262C92.0379 115.699 91.7476 116.095 91.3534 116.41C90.9592 116.726 90.4745 116.95 89.9464 117.062L82.2837 114.704C82.2837 114.704 81.2447 114.397 81.9717 113.574C82.6987 112.752 83.1979 112.597 83.1979 112.597V110.954C83.1979 110.954 85.8873 106.844 86.1338 106.278C86.3803 105.712 88.9574 97.3487 88.9574 97.3487L90.6734 94.8728C90.6734 94.8728 86.5269 93.2379 82.9358 92.051L74.543 90.314L75.2231 85.1264Z" fill="#263238"/>
<path d="M88.1523 114.4C88.1367 114.415 87.8933 114.253 87.4783 114.028C86.9379 113.735 86.3628 113.49 85.7623 113.297C85.1566 113.106 84.5293 112.969 83.8903 112.885C83.6234 112.864 83.3578 112.832 83.0947 112.788C83.3628 112.757 83.6347 112.757 83.9028 112.788C84.5529 112.848 85.1914 112.976 85.8029 113.171C86.415 113.369 86.9939 113.633 87.5251 113.957C87.7571 114.08 87.968 114.229 88.1523 114.4Z" fill="#455A64"/>
<path d="M91.9805 113.268C91.8134 113.153 91.6636 113.021 91.5343 112.875C91.2785 112.613 90.9322 112.259 90.5734 111.848C90.2146 111.437 89.9026 111.062 89.6904 110.771C89.5651 110.624 89.4604 110.464 89.3784 110.297C89.5317 110.425 89.6668 110.567 89.7809 110.721L90.6951 111.769L91.6311 112.817C91.7651 112.957 91.8821 113.108 91.9805 113.268Z" fill="#455A64"/>
<path d="M94.7885 92.6064C94.5506 92.6829 94.3079 92.7485 94.0615 92.8029C93.4842 92.9651 92.9314 93.1831 92.4142 93.4527C91.8977 93.7243 91.4212 94.0462 90.9946 94.4116C90.6826 94.692 90.486 94.8858 90.4673 94.8727C90.5847 94.68 90.7362 94.5034 90.9166 94.3487C91.3303 93.959 91.8083 93.6211 92.3362 93.3453C92.8625 93.0675 93.4343 92.8557 94.0335 92.7165C94.2775 92.6493 94.5318 92.6122 94.7885 92.6064Z" fill="#455A64"/>
<path d="M86.9512 103.778C86.9543 103.73 86.9647 103.683 86.9824 103.637C87.0136 103.535 87.051 103.406 87.1009 103.246C87.2133 102.89 87.3693 102.405 87.5596 101.811C87.9652 100.587 88.5174 98.9286 89.1196 97.0946C89.4316 96.1724 89.7093 95.2947 90.015 94.4982C90.3395 93.8046 90.8313 93.1748 91.4596 92.6485C91.8728 92.2913 92.3322 91.9741 92.8293 91.7027C93.004 91.6083 93.1413 91.535 93.2411 91.4931C93.2888 91.4686 93.3389 91.4476 93.3908 91.4302C93.3908 91.4302 93.2005 91.5402 92.8605 91.742C92.3816 92.0277 91.9375 92.3524 91.5345 92.7114C90.9275 93.2373 90.4541 93.8612 90.1429 94.5454C89.8497 95.3314 89.5751 96.2195 89.26 97.1365C88.636 98.9705 88.0681 100.629 87.65 101.853L87.1446 103.278C87.0885 103.435 87.0385 103.561 87.0011 103.663C86.9893 103.703 86.9726 103.741 86.9512 103.778Z" fill="#455A64"/>
<path d="M79.8999 91.7261C79.8593 91.7261 79.694 90.479 79.5286 88.9332C79.3632 87.3874 79.2603 86.1298 79.3008 86.1272C79.3414 86.1246 79.5068 87.3743 79.6721 88.9227C79.8375 90.4712 79.9404 91.7235 79.8999 91.7261Z" fill="#455A64"/>
<path d="M66.6369 95.0693C66.6151 95.0693 66.4903 94.8755 66.2407 94.5794C65.9162 94.1932 65.5263 93.849 65.0831 93.5576C64.6389 93.2675 64.1471 93.0328 63.623 92.8607C63.2205 92.7297 62.9553 92.6773 62.9615 92.6589C63.1998 92.6663 63.435 92.707 63.6573 92.7795C64.2065 92.9299 64.7198 93.1605 65.1736 93.4607C65.6285 93.7588 66.019 94.1204 66.328 94.5296C66.4639 94.6949 66.5681 94.877 66.6369 95.0693Z" fill="#455A64"/>
<path d="M71.5197 90.5263C71.5197 90.5446 71.1671 90.3638 70.5837 90.1385C69.8206 89.8515 69.0144 89.6532 68.1875 89.549C67.3596 89.4516 66.5195 89.4516 65.6915 89.549C65.0675 89.625 64.6713 89.7193 64.665 89.6983C64.7478 89.6611 64.8358 89.6329 64.9271 89.6145C65.1724 89.5499 65.4226 89.4991 65.6759 89.4625C67.3631 89.213 69.1011 89.4222 70.6367 90.0599C70.8672 90.1553 71.0902 90.2629 71.3044 90.3822C71.3836 90.4218 71.4561 90.4702 71.5197 90.5263Z" fill="#455A64"/>
<path d="M90.6014 93.6939C90.5349 93.691 90.4691 93.6823 90.4048 93.6677L89.8432 93.5655L87.7778 93.1751C86.0337 92.8476 83.6188 92.4075 80.945 91.9621C78.2711 91.5167 75.8407 91.1525 74.081 90.8983L71.9968 90.597L71.429 90.5106C71.3619 90.505 71.2959 90.4927 71.2324 90.4739C71.3004 90.4718 71.3684 90.4762 71.4352 90.487L72.0062 90.5499C72.4991 90.6049 73.2167 90.694 74.0997 90.8119C75.8656 91.0451 78.2992 91.3961 80.9793 91.8415C83.6594 92.2869 86.0649 92.7402 87.8027 93.0887C88.6732 93.2642 89.3627 93.4109 89.8588 93.5183L90.4142 93.6415C90.4782 93.6547 90.5408 93.6722 90.6014 93.6939Z" fill="#455A64"/>
<path d="M74.5426 90.914C74.5146 90.914 74.4553 90.6337 74.1932 90.2355C74.0334 90.0047 73.8383 89.7924 73.6129 89.604C73.3337 89.3748 73.0378 89.1604 72.7268 88.9621C72.1528 88.6056 71.5456 88.2884 70.911 88.0137C70.642 87.9076 70.3833 87.7841 70.1372 87.6443C70.4207 87.7211 70.6954 87.8193 70.9578 87.9377C71.6131 88.1912 72.2352 88.5011 72.8142 88.8626C73.1316 89.0649 73.4308 89.2864 73.7096 89.5255C73.9388 89.7234 74.1322 89.9485 74.2837 90.1935C74.3843 90.3599 74.4607 90.5359 74.5114 90.7176C74.5366 90.7808 74.5472 90.8475 74.5426 90.914Z" fill="#455A64"/>
<path d="M102.763 94.134C102.505 94.4346 102.264 94.7459 102.043 95.0668C101.706 95.6117 101.603 96.1148 101.559 96.1148C101.558 95.7306 101.68 95.3532 101.912 95.0222C102.097 94.6681 102.391 94.3616 102.763 94.134Z" fill="#263238"/>
<g opacity="0.3">
<path opacity="0.3" d="M86.1118 67.4336L87.9245 78.1625L88.015 78.3328C88.4397 74.6239 87.7866 70.8839 86.1118 67.4336Z" fill="black"/>
</g>
<path d="M95.8618 73.5985L89.965 82.2681L75.4352 82.5301L75.4009 83.0829L89.469 82.9964L89.9151 82.9833L104.773 83.0069L107.774 78.6603L111.608 74.0439C111.666 73.9757 111.7 73.8955 111.707 73.8122C111.713 73.7288 111.692 73.6456 111.646 73.5716C111.6 73.4976 111.53 73.4357 111.445 73.3928C111.36 73.35 111.262 73.3278 111.162 73.3286L96.333 73.3758C96.2381 73.3751 96.1447 73.3953 96.062 73.4344C95.9794 73.4735 95.9104 73.5301 95.8618 73.5985Z" fill="#E0E0E0"/>
<path d="M107.774 78.655C107.774 78.655 108.538 79.2419 108.417 79.7397C108.295 80.2375 108.336 80.6122 107.774 80.6462C107.782 80.8282 107.708 81.006 107.566 81.1437C107.424 81.2813 107.225 81.3686 107.01 81.3877C107.01 81.3877 107.181 82.1737 106.099 82.3047C106.099 82.3047 105.765 83.1431 105.081 82.9387C104.689 82.8256 104.312 82.679 103.955 82.5012L103.755 82.1973C103.755 82.1973 102.748 81.8803 102.997 81.4113C103.147 81.1205 103.668 81.0445 103.668 81.0445C103.609 80.9253 103.584 80.796 103.595 80.6671C103.606 80.5383 103.654 80.4135 103.734 80.303C103.974 80.041 104.76 80.2559 104.76 80.2559C104.743 80.0222 104.832 79.7918 105.01 79.6113C105.275 79.3493 106.526 80.0672 106.526 80.0672L107.209 79.3834L107.774 78.655Z" fill="#FFBE9D"/>
<path d="M106.098 82.3047C105.239 81.9531 104.424 81.5282 103.668 81.0366C104.528 81.3882 105.342 81.8132 106.098 82.3047Z" fill="#EB996E"/>
<path d="M107.016 81.3877C106.217 81.081 105.462 80.6986 104.766 80.248C105.176 80.3862 105.566 80.5619 105.93 80.772C106.318 80.9425 106.682 81.149 107.016 81.3877Z" fill="#EB996E"/>
<path d="M105.768 79.6689C106.136 79.7802 106.483 79.9355 106.798 80.1301C107.135 80.2924 107.459 80.4726 107.768 80.6698C107.749 80.7117 107.263 80.5257 106.72 80.2349C106.38 80.0745 106.061 79.8848 105.768 79.6689Z" fill="#EB996E"/>
<path d="M111.612 73.6508C111.588 73.6547 111.564 73.6547 111.54 73.6508H111.331H110.529L107.578 73.6718L97.8462 73.6902H97.138C97.0329 73.6819 96.9271 73.6974 96.8316 73.7352C96.7361 73.773 96.6544 73.8316 96.5951 73.905L95.9368 74.932C95.5 75.5896 95.0819 76.2237 94.6888 76.8289L92.561 80.041L91.1039 82.1947L90.7108 82.792L90.6016 82.9414C90.5766 82.9754 90.5642 82.9938 90.561 82.9912L90.5891 82.9361L90.6827 82.7789C90.7763 82.6348 90.9011 82.4357 91.0602 82.1842C91.3972 81.6602 91.8745 80.9187 92.4642 80.007L94.564 76.766C94.9634 76.1608 95.3783 75.5241 95.812 74.8639L96.4766 73.8552C96.5508 73.7669 96.6511 73.6964 96.7676 73.6504C96.8841 73.6045 97.0128 73.5848 97.1411 73.5932H97.8494L107.581 73.6115L110.532 73.6325H111.334H111.543C111.567 73.6348 111.59 73.6411 111.612 73.6508Z" fill="#263238"/>
<path d="M101.157 78.0053C101.09 78.0885 101.052 78.1861 101.049 78.2865C101.047 78.387 101.078 78.486 101.141 78.5718C101.203 78.6576 101.293 78.7265 101.401 78.7704C101.508 78.8143 101.629 78.8313 101.748 78.8193C101.866 78.8073 101.979 78.7669 102.071 78.7029C102.163 78.6389 102.231 78.5539 102.268 78.4582C102.304 78.3625 102.307 78.26 102.276 78.163C102.245 78.0659 102.181 77.9784 102.093 77.9109C101.953 77.8201 101.777 77.7791 101.602 77.7967C101.426 77.8144 101.266 77.8893 101.157 78.0053Z" fill="white"/>
<path d="M96.3172 105.062C96.3172 105.062 96.3172 105.044 96.3391 105.007L96.4108 104.85L96.7072 104.247C96.9787 103.723 97.3624 102.953 97.8367 102.012C98.8132 100.108 100.167 97.464 101.709 94.4615C101.932 93.7013 102.054 92.9228 102.074 92.1401C102.118 91.2147 101.904 90.2934 101.45 89.4494C101.215 89.057 100.917 88.6938 100.564 88.37C100.25 88.0421 99.8884 87.749 99.4871 87.4975C99.0862 87.282 98.657 87.1061 98.2079 86.9735C97.7743 86.8268 97.3499 86.6958 96.9319 86.5831C96.0988 86.3526 95.3063 86.1744 94.5794 86.0303C93.1255 85.7421 91.9274 85.5875 91.1006 85.488L90.1459 85.3832L89.8963 85.3543C89.8674 85.3524 89.8391 85.3471 89.812 85.3386H89.8994L90.149 85.3543C90.3674 85.3701 90.6919 85.3936 91.1068 85.4356C92.2779 85.5526 93.441 85.7196 94.5919 85.936C95.3219 86.0748 96.1175 86.2478 96.9568 86.4757C97.378 86.5884 97.8086 86.7167 98.2454 86.8608C98.706 86.9975 99.1467 87.1777 99.5589 87.3979C99.9718 87.655 100.344 87.9552 100.666 88.2914C101.028 88.6231 101.334 88.9941 101.578 89.3944C102.049 90.2559 102.273 91.198 102.233 92.1454C102.214 92.9405 102.089 93.7314 101.861 94.5034L97.9396 102.036C97.4435 102.971 97.0473 103.726 96.7665 104.255L96.4545 104.85L96.3671 105.002C96.3297 105.062 96.3203 105.062 96.3172 105.062Z" fill="#455A64"/>
<path d="M35.4899 124.814H34.1265L33.3496 85.4382H36.2668L35.4899 124.814Z" fill="#E0E0E0"/>
<path d="M35.4897 124.814C35.4897 124.814 35.4897 124.743 35.4897 124.607C35.4897 124.471 35.4897 124.272 35.4897 124.012C35.4897 123.488 35.5084 122.718 35.524 121.728C35.5583 119.742 35.6051 116.875 35.6644 113.32C35.7955 106.22 35.9764 96.3871 36.1823 85.4355L36.2635 85.5036H33.3463L33.4274 85.4355C33.8049 104.69 34.0951 120.719 34.1387 124.814L34.1231 124.798H35.1465H35.4866H35.1559H34.1231H34.1044V124.783C33.9859 120.688 33.6458 104.658 33.2651 85.4067V85.3359H36.3477V85.4067C36.1168 96.3766 35.9109 106.228 35.7611 113.341C35.6831 116.886 35.6176 119.75 35.5739 121.725C35.549 122.708 35.5303 123.473 35.5147 123.994C35.5147 124.256 35.5147 124.445 35.5147 124.581L35.4897 124.814Z" fill="#263238"/>
<path d="M124.557 124.814H123.19L122.756 85.5481H125.674L124.557 124.814Z" fill="#E0E0E0"/>
<path d="M124.556 124.814C124.556 124.814 124.556 124.743 124.556 124.607C124.556 124.471 124.556 124.272 124.556 124.015C124.556 123.491 124.587 122.723 124.609 121.736C124.659 119.758 124.734 116.897 124.825 113.352C125.018 106.278 125.283 96.4658 125.583 85.5456L125.664 85.6137H122.747L122.828 85.5456C123.04 104.742 123.19 120.724 123.199 124.812L123.18 124.796H124.207H124.547H124.216H123.18V124.78C123.099 120.693 122.893 104.711 122.681 85.5168V85.446H125.767V85.5168C125.455 96.4553 125.143 106.278 124.94 113.373C124.828 116.907 124.74 119.76 124.678 121.736C124.644 122.716 124.619 123.478 124.6 123.999C124.6 124.261 124.584 124.447 124.578 124.584L124.556 124.814Z" fill="#263238"/>
<path d="M135.707 82.4382H26.7852V85.687H135.707V82.4382Z" fill="#E0E0E0"/>
<path d="M26.785 82.4382H27.3404H28.9722H35.2714L58.5123 82.4173L135.72 82.3701H135.801V85.7552H135.72L26.7975 85.7027H26.7788V85.687C26.7788 84.5709 26.7788 83.7561 26.7788 83.2216C26.7788 82.6871 26.7788 82.4356 26.7788 82.4356C26.7788 82.5509 26.7788 83.4836 26.8006 85.6844L26.7788 85.6661L135.72 85.6189L135.639 85.687V82.4382L135.72 82.5064L58.5872 82.4775L35.3245 82.4566H29.0065H27.3622L26.785 82.4382Z" fill="#263238"/>
<path d="M49.8608 82.4854C49.8608 82.4854 49.8608 82.4985 49.8264 82.522L49.711 82.619C49.5465 82.7394 49.3627 82.84 49.165 82.9177C48.8315 83.0433 48.4768 83.1246 48.1136 83.1587C47.6259 83.2067 47.1345 83.2216 46.644 83.2032C46.098 83.1901 45.5084 83.1325 44.8781 83.0644C44.2112 82.9801 43.5395 82.925 42.8657 82.8993C41.329 82.9037 39.8022 83.106 38.3386 83.4993C36.7786 83.8766 35.3309 84.3089 33.9425 84.5709C33.2818 84.6968 32.6114 84.7843 31.9364 84.8329C31.3447 84.8762 30.7496 84.8762 30.158 84.8329C29.3127 84.7834 28.485 84.6059 27.715 84.3089C27.4459 84.2063 27.1924 84.077 26.96 83.9237L27.013 83.9473L27.1565 84.0207C27.3444 84.118 27.5392 84.2055 27.74 84.2827C28.508 84.5674 29.3296 84.7368 30.1673 84.7831C30.7528 84.8249 31.3415 84.8249 31.927 84.7831C32.5942 84.7289 33.2562 84.6361 33.9082 84.5054C35.2841 84.2434 36.7162 83.8085 38.2762 83.4286C39.7562 83.0328 41.3 82.8313 42.8532 82.8312C43.5324 82.8589 44.2093 82.9166 44.8812 83.0041C45.4613 83.0786 46.0455 83.1285 46.6316 83.1535C47.1164 83.1752 47.6024 83.1656 48.0855 83.1246C48.4431 83.0943 48.7933 83.0192 49.1244 82.9019C49.3969 82.8001 49.646 82.6591 49.8608 82.4854Z" fill="white"/>
<path d="M37.9451 82.53C37.8413 82.6013 37.7307 82.6653 37.6143 82.7213C37.2967 82.8872 36.9651 83.0334 36.6222 83.1588C36.0965 83.3473 35.5527 83.4981 34.9967 83.6095C34.2992 83.744 33.5874 83.8195 32.8719 83.8348C31.5784 83.8737 30.2886 83.6956 29.078 83.3108C28.728 83.2007 28.4138 83.023 28.1608 82.792C28.1 82.7328 28.0496 82.6666 28.011 82.5955C27.9971 82.5715 27.9876 82.5459 27.9829 82.5195C28.0481 82.6118 28.1222 82.6994 28.2044 82.7815C28.4648 82.9925 28.7768 83.1534 29.1186 83.2531C30.3175 83.6177 31.5881 83.7875 32.8626 83.7536C33.5671 83.7388 34.2682 83.6669 34.9561 83.5387C35.5078 83.4336 36.0483 83.2908 36.5723 83.1117C36.9169 82.9911 37.2533 82.8546 37.58 82.7029C37.6967 82.6382 37.8187 82.5804 37.9451 82.53Z" fill="white"/>
<path d="M63.5043 84.5944L63.6728 84.6364C63.8376 84.6758 64.0054 84.7056 64.1751 84.7254C64.8206 84.8058 65.4799 84.736 66.0814 84.5237V84.5656C65.3666 84.1981 64.556 83.9823 63.7196 83.9368C62.6526 83.8597 61.5822 84.0493 60.6433 84.4818C60.5278 84.5394 60.4186 84.6075 60.4061 84.6914C60.3937 84.7752 60.4841 84.8538 60.6089 84.901C60.7447 84.9498 60.8873 84.9841 61.0333 85.0032L61.495 85.0739C62.119 85.1682 62.7617 85.2625 63.4294 85.3359C64.1112 85.4086 64.7983 85.4402 65.4855 85.4302C65.8393 85.4245 66.1925 85.4017 66.5432 85.3621C66.7179 85.3411 66.8926 85.3176 67.0673 85.2861C67.2405 85.2613 67.4107 85.2236 67.5759 85.1735C67.8222 85.1092 68.0475 84.998 68.2342 84.8486C68.3151 84.7874 68.3711 84.7064 68.394 84.6171C68.417 84.5277 68.4058 84.4345 68.3621 84.3508C68.2446 84.1756 68.063 84.0369 67.8442 83.9552C67.6115 83.8578 67.3693 83.7772 67.1204 83.7141C66.1389 83.4625 65.1226 83.3189 64.0971 83.2871C62.3488 83.2195 60.5997 83.4065 58.9273 83.8399C57.8348 84.1172 56.7869 84.5062 55.8073 84.9979C55.4765 85.1735 55.2207 85.3123 55.0553 85.4145L54.865 85.5245C54.8432 85.5381 54.8203 85.5504 54.7964 85.5612C54.7964 85.5612 54.8151 85.5455 54.8557 85.5193L55.0397 85.3988C55.1957 85.294 55.4485 85.1499 55.7761 84.9691C56.7511 84.462 57.7997 84.0622 58.8961 83.7796C60.5779 83.3362 62.3393 83.1438 64.1002 83.2111C65.1403 83.241 66.1713 83.3846 67.1672 83.6382C67.4234 83.704 67.6727 83.7873 67.9129 83.887C68.1547 83.9782 68.355 84.1326 68.4838 84.3272C68.5258 84.4232 68.5335 84.5275 68.5057 84.6272C68.478 84.7268 68.4162 84.8174 68.3278 84.8879C68.1242 85.0492 67.88 85.17 67.6133 85.2416C67.4411 85.294 67.2636 85.3335 67.0829 85.3595C66.9082 85.3909 66.7273 85.4145 66.5494 85.4355C66.1935 85.4759 65.8352 85.4995 65.4761 85.5062C64.7805 85.5159 64.0849 85.4826 63.3951 85.4067C62.7243 85.3385 62.0785 85.2416 61.4545 85.1447L60.9896 85.0713C60.8329 85.0507 60.6799 85.0137 60.5341 84.9612C60.4614 84.9336 60.3957 84.8944 60.3406 84.846C60.3155 84.8222 60.2965 84.7943 60.2847 84.7641C60.2729 84.734 60.2686 84.7021 60.272 84.6704C60.2938 84.5421 60.4405 84.4635 60.559 84.4084C61.5226 83.9677 62.6208 83.7779 63.7133 83.8635C64.5651 83.9129 65.3891 84.1379 66.1126 84.5185L66.1563 84.542L66.1064 84.5604C65.4903 84.7721 64.8162 84.8356 64.1595 84.7438C63.9341 84.7189 63.7137 84.6687 63.5043 84.5944Z" fill="white"/>
<path d="M77.5192 82.5693C77.5675 82.6178 77.6036 82.6739 77.6253 82.7344C77.6966 82.8894 77.7223 83.0566 77.7002 83.2217C77.6628 83.6409 77.2852 84.1885 76.6394 84.6391C76.3359 84.8616 76.003 85.0541 75.6472 85.2129C75.3426 85.3475 75.0215 85.4538 74.6894 85.5299C74.462 85.5826 74.2306 85.622 73.9968 85.6478C73.9112 85.6601 73.8245 85.6654 73.7378 85.6636C73.7378 85.6452 74.1028 85.6112 74.6582 85.4697C74.9823 85.3868 75.2959 85.2771 75.5942 85.1422C75.9381 84.9835 76.2604 84.7938 76.5552 84.5763C77.0929 84.244 77.4705 83.7605 77.6191 83.2139C77.6453 82.9954 77.6112 82.7749 77.5192 82.5693Z" fill="white"/>
<path d="M97.0788 85.5168C96.9215 85.3967 96.7547 85.2855 96.5796 85.1841C96.0672 84.902 95.4843 84.7227 94.8761 84.6601C94.4442 84.617 94.0072 84.6258 93.5782 84.6863C93.0774 84.7646 92.5678 84.7962 92.0588 84.7806C91.5125 84.7192 90.9927 84.5455 90.5456 84.2749C90.0792 84.0062 89.5668 83.7986 89.0261 83.6592C87.9212 83.4088 86.7589 83.3971 85.6472 83.6252C84.7673 83.8029 83.9254 84.0936 83.1512 84.4871C82.6473 84.7417 82.1638 85.0235 81.7035 85.3308L81.3322 85.5797C81.2918 85.6111 81.2479 85.6391 81.2012 85.6635C81.2012 85.6635 81.2355 85.6268 81.3135 85.5666C81.3915 85.5063 81.51 85.4172 81.666 85.3046C82.1161 84.9853 82.5937 84.6946 83.095 84.4347C83.8742 84.0281 84.725 83.7274 85.616 83.5439C86.7523 83.3057 87.9424 83.3156 89.0729 83.5728C89.6283 83.7151 90.1544 83.928 90.6329 84.2042C91.0603 84.4653 91.5574 84.6344 92.0806 84.6967C92.579 84.7137 93.078 84.6847 93.5688 84.6103C94.009 84.5538 94.4564 84.5494 94.898 84.5972C95.5179 84.6633 96.1092 84.8558 96.6202 85.1579C96.7947 85.2564 96.9495 85.3775 97.0788 85.5168Z" fill="white"/>
<path d="M114.541 82.4697C114.541 82.4697 114.504 82.509 114.423 82.5798C114.306 82.6857 114.182 82.7863 114.052 82.8811C113.562 83.2471 113.028 83.5702 112.46 83.8452C111.59 84.2789 110.665 84.6303 109.702 84.8932C109.121 85.0564 108.527 85.186 107.924 85.281C107.268 85.389 106.602 85.4469 105.933 85.4539C104.649 85.4533 103.374 85.2763 102.158 84.9299C101.199 84.6628 100.278 84.3069 99.4125 83.8688C98.851 83.5873 98.3224 83.2618 97.8338 82.8968C97.6591 82.7736 97.5467 82.6636 97.4625 82.5955C97.4177 82.5622 97.377 82.5254 97.3408 82.4854C97.3917 82.5143 97.4388 82.5477 97.4812 82.585C97.5748 82.6479 97.6934 82.7527 97.8712 82.8732C98.3704 83.2256 98.9049 83.5412 99.4687 83.8164C100.333 84.2437 101.251 84.5907 102.205 84.8513C103.406 85.1928 104.665 85.3697 105.933 85.3753C106.591 85.3663 107.247 85.3093 107.893 85.205C108.49 85.1113 109.079 84.9844 109.655 84.8251C110.613 84.5693 111.536 84.2285 112.407 83.8086C112.976 83.5384 113.513 83.2253 114.014 82.8732C114.195 82.7553 114.311 82.6505 114.404 82.585C114.445 82.5428 114.491 82.5042 114.541 82.4697Z" fill="white"/>
<path d="M112.049 82.4382C112.02 82.4592 111.989 82.4768 111.955 82.4906C111.893 82.5195 111.799 82.5666 111.674 82.619C111.425 82.7291 111.05 82.881 110.582 83.0408C110.021 83.2335 109.444 83.3937 108.857 83.5203C108.124 83.6841 107.369 83.7721 106.61 83.7823C105.24 83.7644 103.885 83.5306 102.617 83.0932C102.246 82.968 101.884 82.8237 101.534 82.6609C101.409 82.6059 101.322 82.5535 101.26 82.5221C101.197 82.4906 101.166 82.4723 101.169 82.4697C101.304 82.5157 101.436 82.5691 101.562 82.6295C101.919 82.7802 102.284 82.9157 102.657 83.0356C103.918 83.4497 105.257 83.6715 106.61 83.6906C107.358 83.6779 108.1 83.59 108.823 83.4286C109.406 83.3066 109.98 83.1544 110.542 82.9727C111.016 82.8181 111.39 82.6793 111.646 82.5797C111.777 82.527 111.912 82.4798 112.049 82.4382Z" fill="white"/>
<path d="M123.121 82.771H122.997L122.641 82.7553L122.382 82.7422H122.07C121.849 82.7422 121.599 82.7422 121.324 82.7422L120.891 82.7579L120.432 82.792C120.12 82.8103 119.767 82.8627 119.409 82.9046C118.638 83.0177 117.878 83.1726 117.131 83.3684C116.402 83.567 115.689 83.8059 114.997 84.0836C114.685 84.2199 114.389 84.3457 114.13 84.4714L113.749 84.6601L113.409 84.8461C113.191 84.9614 113.01 85.0792 112.847 85.1788L112.62 85.3203L112.439 85.4461L112.189 85.619C112.159 85.6406 112.127 85.6599 112.092 85.6766C112.092 85.6766 112.114 85.6504 112.167 85.6059L112.401 85.4225C112.454 85.3806 112.513 85.3386 112.573 85.2889L112.794 85.1421C112.953 85.0373 113.131 84.9168 113.35 84.7963L113.683 84.605L114.064 84.4111C114.323 84.2723 114.626 84.1491 114.935 84.0103C115.629 83.7265 116.347 83.4831 117.081 83.2819C117.836 83.0856 118.605 82.9315 119.384 82.8208C119.749 82.7815 120.092 82.7317 120.42 82.716L120.891 82.6846H121.331C121.608 82.6846 121.861 82.6846 122.083 82.6846H122.395L122.65 82.7055L123.006 82.737C123.046 82.7437 123.085 82.7552 123.121 82.771Z" fill="white"/>
<path d="M99.0351 85.4512C98.8552 85.2724 98.6545 85.1092 98.436 84.9639C97.7828 84.5641 97.0398 84.2798 96.252 84.1281C95.6878 84.0122 95.1158 83.9247 94.5392 83.8661C93.9152 83.8006 93.2412 83.7455 92.5361 83.6643C91.8005 83.5744 91.0714 83.4502 90.3521 83.2923C89.59 83.1191 88.8143 82.9913 88.0308 82.9098C86.5064 82.8026 84.9717 82.9468 83.5131 83.3342C82.8454 83.5019 82.237 83.7036 81.6723 83.8975C81.1076 84.0914 80.5928 84.2905 80.1123 84.4713C79.1763 84.8329 78.4275 85.1394 77.9127 85.3542L77.323 85.6005L77.167 85.6634C77.1495 85.6724 77.1306 85.6795 77.1108 85.6844L77.1608 85.6555L77.3074 85.5848L77.8846 85.3228C78.3932 85.1001 79.1326 84.7831 80.0686 84.4137C80.5335 84.2303 81.0514 84.0311 81.613 83.832C82.2152 83.6108 82.8319 83.4183 83.46 83.2556C84.9378 82.8588 86.4941 82.7101 88.0402 82.8181C88.83 82.9016 89.6119 83.0312 90.3802 83.2058C91.0912 83.3637 91.812 83.4888 92.5392 83.5805C93.2381 83.6643 93.912 83.722 94.536 83.7927C95.1168 83.8512 95.693 83.9387 96.2614 84.0547C97.0608 84.2115 97.8116 84.5089 98.4641 84.9272C98.6906 85.0714 98.884 85.249 99.0351 85.4512Z" fill="white"/>
<path d="M74.5023 82.4854C74.516 82.5547 74.516 82.6256 74.5023 82.695C74.4627 82.885 74.3912 83.0693 74.2901 83.2425C73.926 83.8635 73.3403 84.3736 72.6147 84.7019C71.8232 85.0367 70.9918 85.3001 70.1343 85.4879C69.8036 85.5612 69.5321 85.6163 69.3418 85.6503C69.2444 85.6705 69.1453 85.6845 69.0454 85.6922C69.1349 85.6572 69.2292 85.6317 69.3262 85.6163L70.1031 85.425C70.9429 85.2252 71.7595 84.9622 72.5429 84.639C73.2468 84.3149 73.8235 83.8262 74.2028 83.2321C74.3326 82.9923 74.4329 82.7422 74.5023 82.4854Z" fill="white"/>
<path d="M49.2178 85.687C49.2984 85.6207 49.3874 85.5618 49.483 85.5115C49.6577 85.404 49.9229 85.2495 50.2567 85.0792C51.1503 84.6212 52.079 84.2133 53.0367 83.8582C54.1661 83.4338 55.2207 83.0958 55.9913 82.8548C56.3751 82.7343 56.6871 82.6399 56.9055 82.5771C57.0174 82.5403 57.132 82.5096 57.2487 82.4854C57.1498 82.535 57.0453 82.5762 56.9367 82.6085L56.0412 82.9124C55.2862 83.1744 54.2379 83.5176 53.1084 83.9395C52.1546 84.2941 51.2245 84.692 50.3223 85.1316C49.9822 85.2992 49.6983 85.4407 49.5235 85.5403C49.4256 85.5949 49.3235 85.6439 49.2178 85.687Z" fill="white"/>
<path d="M54.347 82.6191C54.347 82.6191 54.0974 82.5981 53.645 82.6191C53.0195 82.6606 52.4063 82.7872 51.8291 82.9937C51.0098 83.3027 50.2201 83.6644 49.4673 84.0758C49.0105 84.3106 48.5364 84.5206 48.0477 84.7046C47.4997 84.9003 46.9302 85.0504 46.3473 85.1526C45.2003 85.3355 44.036 85.431 42.8685 85.4382C41.789 85.4592 40.8218 85.4382 40.0137 85.467C39.375 85.4794 38.7375 85.5214 38.1043 85.5928L37.5895 85.6635C37.5309 85.675 37.4715 85.6828 37.4116 85.6871C37.4663 85.6666 37.524 85.6525 37.5832 85.6452C37.6987 85.6216 37.8703 85.5928 38.0918 85.5587C38.7258 85.4726 39.3656 85.4201 40.0075 85.4015C40.8218 85.3701 41.7921 85.3779 42.8623 85.3517C44.0204 85.3416 45.1752 85.2451 46.313 85.0635C46.886 84.9636 47.4461 84.817 47.9853 84.626C48.4703 84.4457 48.9413 84.2401 49.3955 84.0103C50.1563 83.5993 50.9555 83.2409 51.7855 82.9387C52.3813 82.7333 53.0142 82.6137 53.6575 82.585C53.8334 82.58 54.0095 82.5844 54.1847 82.5981C54.2394 82.6015 54.2936 82.6085 54.347 82.6191Z" fill="white"/>
<path d="M125.683 85.687C125.763 85.6207 125.852 85.5618 125.948 85.5115C126.123 85.404 126.388 85.2495 126.722 85.0792C127.614 84.6217 128.542 84.2138 129.498 83.8582C130.631 83.4338 131.682 83.0958 132.456 82.8548C132.84 82.7343 133.152 82.6399 133.37 82.5771C133.482 82.5394 133.597 82.5088 133.714 82.4854C133.614 82.5344 133.51 82.5756 133.402 82.6085L132.506 82.9124C131.751 83.1744 130.703 83.5176 129.573 83.9395C128.619 84.2941 127.689 84.692 126.787 85.1316C126.447 85.2992 126.163 85.4407 125.988 85.5403C125.89 85.5942 125.788 85.6432 125.683 85.687Z" fill="white"/>
<path d="M130.812 82.619C130.812 82.619 130.563 82.5981 130.11 82.619C129.485 82.6606 128.872 82.7871 128.294 82.9937C127.475 83.3026 126.685 83.6644 125.933 84.0758C125.475 84.3097 125 84.5188 124.51 84.702C123.963 84.898 123.395 85.0481 122.813 85.15C121.665 85.3329 120.499 85.4285 119.331 85.4355C118.254 85.4565 117.287 85.4356 116.476 85.4644C115.837 85.4768 115.2 85.5188 114.566 85.5901L114.055 85.6609C113.996 85.6723 113.937 85.6802 113.877 85.6845C113.932 85.664 113.989 85.6499 114.049 85.6425C114.164 85.6189 114.336 85.5901 114.557 85.5561C115.191 85.4699 115.831 85.4174 116.473 85.3989C117.287 85.3674 118.254 85.3753 119.328 85.3491C120.486 85.3389 121.64 85.2425 122.778 85.0609C123.351 84.9609 123.911 84.8144 124.451 84.6233C124.935 84.4425 125.406 84.2369 125.861 84.0077C126.622 83.5966 127.421 83.2383 128.251 82.9361C128.842 82.732 129.469 82.6125 130.107 82.5824C130.282 82.5773 130.457 82.5817 130.631 82.5955C130.692 82.5992 130.753 82.6071 130.812 82.619Z" fill="white"/>
<path d="M122.279 82.4254C122.279 82.4516 117.727 82.4726 112.114 82.4726C106.501 82.4726 101.946 82.4516 101.946 82.4254C101.946 82.3992 106.498 82.3809 112.114 82.3809C117.73 82.3809 122.279 82.3992 122.279 82.4254Z" fill="#263238"/>
<path d="M74 44.9649C73.5351 44.3753 72.9571 44.0373 72.3551 44.0029C71.753 43.9684 71.1603 44.2395 70.6682 44.7744C70.0013 45.532 69.6073 46.7182 69.1543 47.8048C68.7012 48.8914 68.099 49.9347 67.283 50.1728C66.6217 50.3676 65.9125 49.991 65.2766 50.3243C64.5871 50.6836 64.1678 51.8178 64.0919 52.9218C64.0594 54.045 64.1663 55.1675 64.407 56.2292C64.209 56.4635 63.9825 56.6348 63.7409 56.7329C63.4993 56.831 63.2475 56.854 63 56.8006C63.1726 57.6024 63.5117 58.2945 63.9652 58.7704C64.2721 59.0129 64.5515 59.3302 64.7926 59.7098C64.98 60.1525 65.078 60.6707 65.074 61.199C65.0869 61.5024 65.1441 61.7974 65.2413 62.0622C65.3385 62.327 65.4731 62.5547 65.6353 62.7285C65.7974 62.9023 65.983 63.0177 66.1781 63.0662C66.3732 63.1147 66.5729 63.095 66.7624 63.0086C67.1686 62.8226 67.5617 62.5746 67.9358 62.2683C67.9358 62.2683 67.5362 63.0995 68.1553 64C68.4047 63.957 68.6438 63.8225 68.8524 63.6078C69.061 63.3931 69.2331 63.1044 69.3541 62.7662" fill="#263238"/>
<path d="M71.6341 44.855C72.3872 44.8333 73.0269 56.6621 73.6187 57L75.6034 44.3955L72.6628 45.5261C67.8713 50.8284 76.0085 48.0402 80 44.9519C78.4974 44.3678 76.8915 43.3188 75.2206 43.0724C73.5497 42.826 70.4871 43.1942 68.9806 44.3955C68.4616 44.7964 68.0551 45.2664 67.7838 45.7795C67.2993 47.0424 67.0359 48.3443 67 49.6547C67.0802 50.0675 67.267 50.4656 67.5506 50.8284C68.1165 50.9031 68.4109 50.6042 68.4262 50.189L68.839 49.1602C69.4889 48.9126 69.9026 47.9446 70.2151 47.4636C67.478 51.3998 70.5883 50.175 70.4374 49.6547C70.4374 49.6547 70.4641 45.9373 70.4641 45.9207C70.4115 45.7926 70.4023 45.6572 70.4374 45.5261C70.4724 45.3949 70.5507 45.2717 70.6656 45.1671C70.7804 45.0625 70.9284 44.9795 71.097 44.9252C71.2657 44.8709 71.4499 44.8468 71.6341 44.855Z" fill="#263238"/>
<path d="M68.8477 50.6563C69.6355 50.6369 70.3048 61.1986 70.9238 61.5002L73 50.246L69.9238 51.2555C64.9115 55.9897 70.3245 53.4137 74.5 50.6563C72.9281 50.1348 74.3475 49.2846 72.5996 49.0646C70.8517 48.8447 67.6478 49.1734 66.0719 50.246C65.529 50.6039 65.1038 51.0236 64.82 51.4818C64.3131 52.6093 64.0376 53.7718 64 54.9418C64.0839 55.3104 64.2793 55.6659 64.576 55.9897C65.1679 56.0565 65.4759 55.7896 65.4919 55.4188L65.8119 53.9878C66.4917 53.7668 67.0364 53.4149 67.3633 52.9854C64.5 56.5 67.7538 55.4063 67.5958 54.9418C67.5958 54.9418 67.6238 51.6226 67.6238 51.6078C67.5687 51.4935 67.5591 51.3726 67.5958 51.2554C67.6325 51.1383 67.7144 51.0284 67.8345 50.935C67.9547 50.8416 68.1095 50.7675 68.2859 50.719C68.4623 50.6704 68.655 50.6489 68.8477 50.6563Z" fill="#263238"/>
<path d="M67 52.9004C67 52.9004 67.0769 52.9264 67.2268 52.9477C67.4498 52.9735 67.6805 52.9465 67.8725 52.8721C68.0212 52.8133 68.1441 52.733 68.2306 52.6381C68.317 52.5433 68.3643 52.4369 68.3684 52.3282C68.3796 52.0344 68.2571 51.7445 68.0147 51.4912C67.7148 51.1745 67.4799 50.8362 67.3152 50.4839C67.2197 50.2756 67.1974 50.0572 67.2498 49.8431C67.3021 49.6291 67.4279 49.4244 67.6188 49.2426C67.8478 49.0504 68.1692 48.9073 68.5375 48.8335C68.9104 48.7622 69.3003 48.7302 69.6906 48.7389C70.4593 48.7389 71.2857 48.8264 72.0506 48.6893C72.4229 48.6217 72.7477 48.4793 72.9731 48.285C73.1835 48.0877 73.3237 47.8653 73.3844 47.6324C73.5304 47.1737 73.4689 46.7055 73.5958 46.2633C73.6489 46.0453 73.7579 45.8338 73.9186 45.6367C74.0763 45.4476 74.3157 45.2889 74.6105 45.178C74.8776 45.0869 75.1714 45.0293 75.4749 45.0086C75.7784 44.9879 76.0856 45.0045 76.3786 45.0574C76.8584 45.1403 77.3013 45.289 77.6739 45.4925C77.9522 45.642 78.2094 45.8057 78.4427 45.982C78.6348 46.1262 78.7732 46.2444 78.8655 46.3224C78.9159 46.3619 78.9609 46.4038 79 46.4478C78.9385 46.4154 78.8831 46.3789 78.8347 46.339C78.7194 46.2539 78.5695 46.1475 78.3812 46.0151C78.147 45.8444 77.8898 45.6862 77.6124 45.5422C77.2466 45.3529 76.8175 45.2157 76.3555 45.1402C76.0813 45.0926 75.7945 45.0788 75.5116 45.0995C75.2286 45.1202 74.9551 45.175 74.7066 45.2608C74.443 45.3793 74.2244 45.5316 74.0658 45.7071C73.9072 45.8826 73.8124 46.0772 73.788 46.2775C73.6726 46.7031 73.738 47.1713 73.5881 47.6536C73.527 47.9068 73.3776 48.1488 73.1499 48.363C72.9002 48.5803 72.5386 48.7394 72.1236 48.8146C71.2857 48.9636 70.4632 48.869 69.6983 48.869C69.3279 48.8595 68.9577 48.8882 68.6028 48.9541C68.2713 49.0195 67.9811 49.1468 67.7726 49.3182C67.5955 49.4869 67.4779 49.6765 67.4276 49.8749C67.3773 50.0733 67.3953 50.2759 67.4805 50.4697C67.6352 50.8163 67.8585 51.1498 68.1454 51.4628C68.3893 51.7317 68.5065 52.0372 68.4837 52.3448C68.4731 52.4626 68.4157 52.577 68.3166 52.678C68.2174 52.779 68.0794 52.8635 67.9148 52.9241C67.8106 52.9612 67.6955 52.9854 67.5761 52.9951C67.4568 53.0049 67.3354 53 67.2191 52.9808C67.1366 52.9652 67.0615 52.9376 67 52.9004Z" fill="#455A64"/>
<path d="M67 51.9004C67 51.9004 67.0769 51.9264 67.2268 51.9477C67.4498 51.9735 67.6805 51.9465 67.8725 51.8721C68.0212 51.8133 68.1441 51.733 68.2306 51.6381C68.317 51.5433 68.3643 51.4369 68.3684 51.3282C68.3796 51.0344 68.2571 50.7445 68.0147 50.4912C67.7148 50.1745 67.4799 49.8362 67.3152 49.4839C67.2197 49.2756 67.1974 49.0572 67.2498 48.8431C67.3021 48.6291 67.4279 48.4244 67.6188 48.2426C67.8478 48.0504 68.1692 47.9073 68.5375 47.8335C68.9104 47.7622 69.3003 47.7302 69.6906 47.7389C70.4593 47.7389 71.2857 47.8264 72.0506 47.6893C72.4229 47.6217 72.7477 47.4793 72.9731 47.285C73.1835 47.0877 73.3237 46.8653 73.3844 46.6324C73.5304 46.1736 73.4689 45.7055 73.5958 45.2633C73.6489 45.0453 73.7579 44.8338 73.9186 44.6367C74.0763 44.4476 74.3157 44.2889 74.6105 44.178C74.8776 44.0869 75.1714 44.0293 75.4749 44.0086C75.7784 43.9879 76.0856 44.0045 76.3786 44.0574C76.8584 44.1403 77.3013 44.289 77.6739 44.4925C77.9522 44.642 78.2094 44.8057 78.4427 44.9819C78.6348 45.1262 78.7732 45.2444 78.8655 45.3224C78.9159 45.3619 78.9609 45.4038 79 45.4478C78.9385 45.4154 78.8831 45.3789 78.8347 45.339C78.7194 45.2539 78.5695 45.1475 78.3812 45.0151C78.147 44.8444 77.8898 44.6862 77.6124 44.5422C77.2466 44.3529 76.8175 44.2157 76.3555 44.1402C76.0813 44.0926 75.7945 44.0788 75.5116 44.0995C75.2286 44.1202 74.9551 44.175 74.7066 44.2608C74.443 44.3793 74.2244 44.5316 74.0658 44.7071C73.9072 44.8826 73.8124 45.0772 73.788 45.2775C73.6726 45.7031 73.738 46.1713 73.5881 46.6536C73.527 46.9068 73.3776 47.1488 73.1499 47.363C72.9002 47.5803 72.5386 47.7394 72.1236 47.8146C71.2857 47.9636 70.4632 47.869 69.6983 47.869C69.3279 47.8595 68.9577 47.8882 68.6028 47.9541C68.2713 48.0195 67.9811 48.1468 67.7726 48.3182C67.5955 48.4869 67.4779 48.6765 67.4276 48.8749C67.3773 49.0733 67.3953 49.2759 67.4805 49.4697C67.6352 49.8163 67.8585 50.1498 68.1454 50.4628C68.3893 50.7317 68.5065 51.0372 68.4837 51.3448C68.4731 51.4626 68.4157 51.577 68.3166 51.678C68.2174 51.779 68.0794 51.8635 67.9148 51.9241C67.8106 51.9612 67.6955 51.9854 67.5761 51.9951C67.4568 52.0049 67.3354 52 67.2191 51.9808C67.1366 51.9652 67.0615 51.9376 67 51.9004Z" fill="#263238"/>
<path d="M81.3185 55.2994C80.8185 57.5543 76.2655 55.7525 79.3185 57.5543C79.3185 57.5543 75.8603 58.4946 82.3185 58.0543L81.3185 55.2994Z" fill="#263238"/>
</svg>
